<svg width="270" height="64" viewBox="0 0 270 64" fill="none" xmlns="http://www.w3.org/2000/svg">
<rect width="270" height="64" rx="3" fill="#111111"/>
<path d="M77.5333 36.157C77.5333 36.955 77.3233 37.641 76.9033 38.215C76.4833 38.789 75.9233 39.23 75.2233 39.538C74.5373 39.846 73.7743 40 72.9343 40H65.8153V25.09H73.5013C74.2013 25.09 74.8033 25.279 75.3073 25.657C75.8113 26.021 76.2033 26.497 76.4833 27.085C76.7633 27.673 76.9033 28.275 76.9033 28.891C76.9033 29.619 76.7143 30.305 76.3363 30.949C75.9723 31.579 75.4473 32.048 74.7613 32.356C75.6013 32.608 76.2733 33.07 76.7773 33.742C77.2813 34.4 77.5333 35.205 77.5333 36.157ZM68.1673 27.127V31.516H72.4933C73.0813 31.516 73.5713 31.313 73.9633 30.907C74.3553 30.487 74.5513 29.962 74.5513 29.332C74.5513 28.688 74.3693 28.163 74.0053 27.757C73.6413 27.337 73.1793 27.127 72.6193 27.127H68.1673ZM75.1183 35.716C75.1183 35.1 74.9223 34.561 74.5303 34.099C74.1523 33.637 73.6693 33.406 73.0813 33.406H68.1673V37.963H72.9343C73.5503 37.963 74.0683 37.746 74.4883 37.312C74.9083 36.864 75.1183 36.332 75.1183 35.716ZM84.6692 40.21C83.5352 40.21 82.5412 39.951 81.6872 39.433C80.8332 38.901 80.1682 38.201 79.6922 37.333C79.2162 36.465 78.9782 35.52 78.9782 34.498C78.9782 33.476 79.2092 32.538 79.6712 31.684C80.1472 30.816 80.8052 30.123 81.6452 29.605C82.4992 29.087 83.5072 28.828 84.6692 28.828C85.8032 28.828 86.7762 29.08 87.5882 29.584C88.4142 30.074 89.0302 30.732 89.4362 31.558L87.1892 32.272C86.9372 31.81 86.5802 31.453 86.1182 31.201C85.6702 30.935 85.1732 30.802 84.6272 30.802C84.0112 30.802 83.4512 30.963 82.9472 31.285C82.4572 31.593 82.0652 32.027 81.7712 32.587C81.4912 33.147 81.3512 33.784 81.3512 34.498C81.3512 35.212 81.4982 35.849 81.7922 36.409C82.1002 36.969 82.4992 37.417 82.9892 37.753C83.4932 38.075 84.0462 38.236 84.6482 38.236C85.2082 38.236 85.7402 38.089 86.2442 37.795C86.7482 37.501 87.0842 37.144 87.2522 36.724L89.5202 37.396C89.1562 38.222 88.5472 38.901 87.6932 39.433C86.8392 39.951 85.8312 40.21 84.6692 40.21ZM96.2971 40.21C95.1631 40.21 94.1691 39.951 93.3151 39.433C92.4611 38.915 91.7961 38.229 91.3201 37.375C90.8441 36.507 90.6061 35.562 90.6061 34.54C90.6061 33.504 90.8441 32.552 91.3201 31.684C91.7961 30.816 92.4611 30.123 93.3151 29.605C94.1691 29.087 95.1701 28.828 96.3181 28.828C97.4661 28.828 98.4601 29.094 99.3001 29.626C100.14 30.144 100.784 30.83 101.232 31.684C101.694 32.538 101.925 33.455 101.925 34.435C101.925 34.785 101.904 35.065 101.862 35.275H93.0631C93.1051 35.919 93.2801 36.486 93.5881 36.976C93.9101 37.452 94.3091 37.83 94.7851 38.11C95.2751 38.376 95.8071 38.509 96.3811 38.509C96.9971 38.509 97.5781 38.355 98.1241 38.047C98.6701 37.739 99.0481 37.333 99.2581 36.829L101.232 37.396C100.854 38.222 100.224 38.901 99.3421 39.433C98.4741 39.951 97.4591 40.21 96.2971 40.21ZM93.0001 33.742H99.6361C99.5801 33.112 99.3981 32.559 99.0901 32.083C98.7821 31.593 98.3831 31.215 97.8931 30.949C97.4171 30.669 96.8851 30.529 96.2971 30.529C95.7231 30.529 95.1911 30.669 94.7011 30.949C94.2251 31.215 93.8331 31.593 93.5251 32.083C93.2171 32.559 93.0421 33.112 93.0001 33.742ZM108.998 40V29.017H111.392L115.172 35.8L118.973 29.017H121.325V40H119.12V32.272L115.886 38.047H114.437L111.182 32.272V40H108.998ZM123.294 36.787C123.294 36.087 123.49 35.478 123.882 34.96C124.274 34.428 124.82 34.022 125.52 33.742C126.234 33.448 127.053 33.301 127.977 33.301C128.467 33.301 128.964 33.343 129.468 33.427C129.986 33.497 130.441 33.602 130.833 33.742V33.049C130.833 32.279 130.602 31.677 130.14 31.243C129.678 30.809 129.013 30.592 128.145 30.592C127.543 30.592 126.962 30.697 126.402 30.907C125.842 31.117 125.261 31.425 124.659 31.831L123.882 30.277C124.61 29.801 125.338 29.444 126.066 29.206C126.808 28.954 127.585 28.828 128.397 28.828C129.867 28.828 131.022 29.22 131.862 30.004C132.716 30.774 133.143 31.873 133.143 33.301V37.396C133.143 37.662 133.185 37.851 133.269 37.963C133.367 38.075 133.528 38.138 133.752 38.152V40C133.542 40.042 133.353 40.07 133.185 40.084C133.017 40.098 132.877 40.105 132.765 40.105C132.261 40.105 131.883 39.986 131.631 39.748C131.393 39.496 131.253 39.216 131.211 38.908L131.148 38.278C130.672 38.894 130.063 39.37 129.321 39.706C128.579 40.042 127.83 40.21 127.074 40.21C126.346 40.21 125.695 40.063 125.121 39.769C124.547 39.461 124.099 39.048 123.777 38.53C123.455 38.012 123.294 37.431 123.294 36.787ZM130.287 37.459C130.651 37.095 130.833 36.752 130.833 36.43V35.17C130.007 34.862 129.167 34.708 128.313 34.708C127.473 34.708 126.787 34.883 126.255 35.233C125.737 35.569 125.478 36.024 125.478 36.598C125.478 37.074 125.667 37.515 126.045 37.921C126.437 38.313 126.997 38.509 127.725 38.509C128.215 38.509 128.691 38.411 129.153 38.215C129.615 38.019 129.993 37.767 130.287 37.459ZM135.945 40V29.017H142.959V31.054H138.255V40H135.945ZM143.904 36.787C143.904 36.087 144.1 35.478 144.492 34.96C144.884 34.428 145.43 34.022 146.13 33.742C146.844 33.448 147.663 33.301 148.587 33.301C149.077 33.301 149.574 33.343 150.078 33.427C150.596 33.497 151.051 33.602 151.443 33.742V33.049C151.443 32.279 151.212 31.677 150.75 31.243C150.288 30.809 149.623 30.592 148.755 30.592C148.153 30.592 147.572 30.697 147.012 30.907C146.452 31.117 145.871 31.425 145.269 31.831L144.492 30.277C145.22 29.801 145.948 29.444 146.676 29.206C147.418 28.954 148.195 28.828 149.007 28.828C150.477 28.828 151.632 29.22 152.472 30.004C153.326 30.774 153.753 31.873 153.753 33.301V37.396C153.753 37.662 153.795 37.851 153.879 37.963C153.977 38.075 154.138 38.138 154.362 38.152V40C154.152 40.042 153.963 40.07 153.795 40.084C153.627 40.098 153.487 40.105 153.375 40.105C152.871 40.105 152.493 39.986 152.241 39.748C152.003 39.496 151.863 39.216 151.821 38.908L151.758 38.278C151.282 38.894 150.673 39.37 149.931 39.706C149.189 40.042 148.44 40.21 147.684 40.21C146.956 40.21 146.305 40.063 145.731 39.769C145.157 39.461 144.709 39.048 144.387 38.53C144.065 38.012 143.904 37.431 143.904 36.787ZM150.897 37.459C151.261 37.095 151.443 36.752 151.443 36.43V35.17C150.617 34.862 149.777 34.708 148.923 34.708C148.083 34.708 147.397 34.883 146.865 35.233C146.347 35.569 146.088 36.024 146.088 36.598C146.088 37.074 146.277 37.515 146.655 37.921C147.047 38.313 147.607 38.509 148.335 38.509C148.825 38.509 149.301 38.411 149.763 38.215C150.225 38.019 150.603 37.767 150.897 37.459ZM160.23 40.168C159.11 40.168 158.165 39.965 157.395 39.559C156.639 39.139 156.058 38.565 155.652 37.837L157.521 36.997C157.759 37.403 158.095 37.725 158.529 37.963C158.963 38.187 159.488 38.299 160.104 38.299C160.846 38.299 161.42 38.145 161.826 37.837C162.232 37.529 162.435 37.123 162.435 36.619C162.435 36.157 162.267 35.786 161.931 35.506C161.595 35.212 161.119 35.058 160.503 35.044H159.369V33.574H160.545C160.965 33.574 161.301 33.441 161.553 33.175C161.819 32.895 161.952 32.545 161.952 32.125C161.952 31.705 161.791 31.369 161.469 31.117C161.161 30.851 160.692 30.718 160.062 30.718C159.516 30.718 159.061 30.823 158.697 31.033C158.347 31.229 158.067 31.523 157.857 31.915L156.114 30.991C156.478 30.319 157.003 29.794 157.689 29.416C158.389 29.038 159.215 28.849 160.167 28.849C161.273 28.849 162.19 29.108 162.918 29.626C163.646 30.144 164.01 30.879 164.01 31.831C164.01 32.335 163.891 32.811 163.653 33.259C163.415 33.693 163.044 34.015 162.54 34.225C163.212 34.435 163.716 34.778 164.052 35.254C164.402 35.73 164.577 36.297 164.577 36.955C164.577 37.627 164.388 38.208 164.01 38.698C163.646 39.174 163.135 39.538 162.477 39.79C161.819 40.042 161.07 40.168 160.23 40.168ZM166.707 40V29.038H169.017V36.913L174.582 29.017H176.682V40H174.372V32.293L168.87 40H166.707ZM179.442 40V29.017H181.752V33.385H186.855V29.017H189.165V40H186.855V35.38H181.752V40H179.442ZM191.952 40V29.017H194.262V32.629H196.341C197.643 32.629 198.637 32.958 199.323 33.616C200.009 34.274 200.352 35.142 200.352 36.22C200.352 37.312 200.023 38.215 199.365 38.929C198.707 39.643 197.755 40 196.509 40H191.952ZM202.158 40V29.038H204.468V40H202.158ZM194.262 38.215H196.152C196.824 38.215 197.314 38.026 197.622 37.648C197.93 37.256 198.084 36.794 198.084 36.262C198.084 35.744 197.937 35.296 197.643 34.918C197.363 34.54 196.859 34.351 196.131 34.351H194.262V38.215Z" fill="white"/>
</svg>
