<svg width="298" height="305" viewBox="0 0 298 305" fill="none" xmlns="http://www.w3.org/2000/svg">
<path d="M23 11.0669C23 4.95335 17.8528 0 11.5 0C5.14718 0 0 4.95335 0 11.0669C0 16.5906 4.20538 21.1691 9.70312 22V14.2661H6.78175V11.0669H9.70312V8.62864C9.70312 5.85521 11.4189 4.32325 14.0467 4.32325C15.3052 4.32325 16.6212 4.53923 16.6212 4.53923V7.26134H15.1707C13.7425 7.26134 13.2969 8.11456 13.2969 8.98965V11.0669H16.4863L15.9762 14.2661H13.2969V22C18.7946 21.1691 23 16.5906 23 11.0669Z" fill="#CCCCCC"/>
<path d="M82.3619 4.41895C82.5542 3.77442 82.3619 3.30005 81.4366 3.30005H78.3751C77.5954 3.30005 77.2367 3.70739 77.0444 4.16114C77.0444 4.16114 75.485 7.93036 73.2811 10.3744C72.569 11.0808 72.2415 11.3077 71.8517 11.3077C71.6593 11.3077 71.3631 11.0808 71.3631 10.4363V4.41895C71.3631 3.64552 71.1447 3.30005 70.5002 3.30005H65.6869C65.1983 3.30005 64.9072 3.66099 64.9072 3.99614C64.9072 4.72833 66.0092 4.89849 66.1236 6.96099V11.4366C66.1236 12.4163 65.9468 12.5968 65.557 12.5968C64.5174 12.5968 61.9912 8.81208 60.4942 4.48083C60.1927 3.64036 59.8964 3.30005 59.1116 3.30005H56.05C55.1767 3.30005 55 3.70739 55 4.16114C55 4.96552 56.0396 8.96161 59.8393 14.2416C62.3707 17.8458 65.9364 19.8 69.1799 19.8C71.1292 19.8 71.3683 19.3669 71.3683 18.6193C71.3683 15.1749 71.1915 14.85 72.1687 14.85C72.621 14.85 73.4006 15.0769 75.2199 16.8146C77.2991 18.8771 77.6422 19.8 78.8065 19.8H81.8681C82.7413 19.8 83.1831 19.3669 82.9284 18.511C82.3463 16.7115 78.4114 13.0093 78.2347 12.7618C77.7825 12.1843 77.9124 11.9265 78.2347 11.4108C78.2399 11.4057 81.9772 6.18755 82.3619 4.41895Z" fill="#CCCCCC"/>
<path d="M134.739 5.48279C134.753 5.72341 134.753 5.96407 134.753 6.20469C134.753 13.5437 130.216 22 121.924 22C119.369 22 116.996 21.089 115 19.5078C115.363 19.5594 115.712 19.5766 116.089 19.5766C118.197 19.5766 120.137 18.7 121.687 17.2047C119.704 17.1531 118.043 15.5547 117.471 13.3547C117.75 13.4062 118.029 13.4406 118.322 13.4406C118.727 13.4406 119.132 13.3718 119.509 13.2516C117.443 12.7359 115.893 10.5016 115.893 7.80312V7.73439C116.494 8.14689 117.192 8.4047 117.931 8.43904C116.717 7.44214 115.921 5.7406 115.921 3.81559C115.921 2.78436 116.145 1.83904 116.535 1.01404C118.755 4.38278 122.091 6.58275 125.832 6.82341C125.763 6.41091 125.721 5.98127 125.721 5.55157C125.721 2.49216 127.731 0 130.23 0C131.528 0 132.7 0.670311 133.524 1.75312C134.543 1.51251 135.52 1.04843 136.386 0.412503C136.051 1.70159 135.339 2.78441 134.404 3.47186C135.311 3.35161 136.19 3.04216 137 2.61252C136.386 3.71247 135.618 4.69212 134.739 5.48279Z" fill="#CCCCCC"/>
<path d="M184.207 14.3471C183.086 15.0945 181.544 15.3909 180.525 15.5026L181.38 16.3875L184.502 19.665C185.643 20.8935 183.786 22.8136 182.632 21.628C181.851 20.7947 180.705 19.5919 179.51 18.3377L176.389 21.6237C175.235 22.805 173.378 20.8677 174.531 19.6607C175.325 18.8273 176.458 17.6246 177.653 16.3832L178.496 15.4983C177.489 15.3866 175.922 15.1074 174.789 14.3428C173.455 13.4407 172.87 12.9124 173.386 11.8084C173.689 11.1813 174.519 10.6529 175.62 11.5636C175.62 11.5636 177.105 12.805 179.502 12.805C181.9 12.805 183.385 11.5636 183.385 11.5636C184.485 10.6572 185.312 11.1813 185.619 11.8084C186.126 12.9124 185.541 13.4407 184.207 14.3471ZM174.192 5.57131C174.192 2.49141 176.577 0 179.498 0C182.419 0 184.805 2.49141 184.805 5.57131C184.805 8.63833 182.419 11.1297 179.498 11.1297C176.577 11.1297 174.192 8.63833 174.192 5.57131ZM176.892 5.57131C176.892 7.07905 178.062 8.30757 179.498 8.30757C180.934 8.30757 182.104 7.07905 182.104 5.57131C182.104 4.05069 180.934 2.82217 179.498 2.82217C178.062 2.82217 176.892 4.05069 176.892 5.57131Z" fill="#CCCCCC"/>
<path d="M243.937 3.90234L240.617 19.7711C240.367 20.8911 239.714 21.1699 238.786 20.6422L233.727 16.8642L231.286 19.2435C231.016 19.5173 230.79 19.7463 230.27 19.7463L230.633 14.5247L240.008 5.93821C240.416 5.56986 239.92 5.36578 239.375 5.73412L227.785 13.1309L222.795 11.548C221.709 11.2046 221.69 10.448 223.021 9.92034L242.538 2.29953C243.441 1.95608 244.232 2.50362 243.937 3.90234Z" fill="#CCCCCC"/>
<path d="M294.705 3.19687C292.647 1.13437 289.907 0 286.995 0C280.984 0 276.093 4.89107 276.093 10.9018C276.093 12.8219 276.594 14.6978 277.547 16.3527L276 22L281.78 20.4826C283.371 21.3518 285.163 21.8085 286.99 21.8085H286.995C293.001 21.8085 298 16.9174 298 10.9067C298 7.99464 296.762 5.25937 294.705 3.19687ZM286.995 19.9719C285.365 19.9719 283.769 19.5348 282.379 18.7098L282.05 18.5134L278.622 19.4121L279.536 16.0679L279.32 15.7241C278.411 14.2804 277.935 12.6156 277.935 10.9018C277.935 5.90759 282.001 1.84152 287 1.84152C289.421 1.84152 291.695 2.78437 293.404 4.49821C295.112 6.21205 296.163 8.48571 296.158 10.9067C296.158 15.9058 291.989 19.9719 286.995 19.9719ZM291.965 13.1853C291.695 13.0478 290.354 12.3897 290.104 12.3013C289.853 12.208 289.671 12.1638 289.49 12.4388C289.308 12.7138 288.788 13.3228 288.625 13.5094C288.468 13.6911 288.306 13.7156 288.036 13.5781C286.435 12.7777 285.384 12.1491 284.329 10.3371C284.049 9.8558 284.608 9.89018 285.129 8.84911C285.217 8.66741 285.173 8.51027 285.104 8.37277C285.036 8.23527 284.491 6.89464 284.265 6.34955C284.044 5.8192 283.818 5.89286 283.651 5.88304C283.494 5.87321 283.312 5.87321 283.13 5.87321C282.949 5.87321 282.654 5.94196 282.404 6.21205C282.153 6.48705 281.451 7.14509 281.451 8.48571C281.451 9.82634 282.428 11.1228 282.561 11.3045C282.698 11.4862 284.481 14.2362 287.216 15.4196C288.945 16.1661 289.622 16.2299 290.487 16.1022C291.012 16.0237 292.097 15.4442 292.323 14.8058C292.549 14.1674 292.549 13.6223 292.48 13.5094C292.417 13.3866 292.235 13.3179 291.965 13.1853Z" fill="#CCCCCC"/>
<path d="M142.623 73.957V75.133H140.019V77.968H138.696V75.133H136.092V73.957H138.696V71.122H140.019V73.957H142.623ZM151.96 71.08H143.917V69.757H154.228L146.689 84.667H145.051L151.96 71.08ZM160.718 74.734C160.718 73.306 161.005 71.92 161.579 70.576C162.153 69.218 162.846 67.853 163.658 66.481L164.75 67.006C164.47 67.426 164.169 67.944 163.847 68.56C163.539 69.176 163.245 69.841 162.965 70.555C162.699 71.255 162.482 71.969 162.314 72.697C162.146 73.425 162.062 74.125 162.062 74.797C162.062 75.889 162.3 77.086 162.776 78.388C163.252 79.676 163.903 80.95 164.729 82.21L163.658 82.777C162.776 81.461 162.062 80.124 161.516 78.766C160.984 77.408 160.718 76.064 160.718 74.734ZM173.96 80.698V82H166.841V80.698H169.823V71.71C169.669 71.92 169.389 72.158 168.983 72.424C168.577 72.69 168.136 72.921 167.66 73.117C167.184 73.299 166.764 73.39 166.4 73.39V72.004C166.722 72.004 167.072 71.913 167.45 71.731C167.842 71.549 168.206 71.339 168.542 71.101C168.892 70.849 169.186 70.618 169.424 70.408C169.662 70.198 169.795 70.065 169.823 70.009H171.293V80.698H173.96ZM181.619 77.044C182.543 77.198 183.278 77.618 183.824 78.304C184.384 78.99 184.664 79.837 184.664 80.845C184.664 81.685 184.461 82.42 184.055 83.05C183.649 83.694 183.082 84.191 182.354 84.541C181.626 84.905 180.779 85.087 179.813 85.087C178.763 85.087 177.832 84.87 177.02 84.436C176.222 84.016 175.62 83.428 175.214 82.672L176.201 81.769C176.495 82.385 176.943 82.875 177.545 83.239C178.161 83.603 178.917 83.785 179.813 83.785C180.849 83.785 181.668 83.526 182.27 83.008C182.886 82.504 183.194 81.776 183.194 80.824C183.194 79.872 182.872 79.116 182.228 78.556C181.598 77.982 180.695 77.695 179.519 77.695H178.994V76.477H179.561C180.639 76.477 181.465 76.232 182.039 75.742C182.613 75.238 182.9 74.587 182.9 73.789C182.9 72.949 182.606 72.312 182.018 71.878C181.444 71.43 180.723 71.206 179.855 71.206C179.057 71.206 178.35 71.388 177.734 71.752C177.132 72.102 176.677 72.592 176.369 73.222L175.445 72.34C175.795 71.612 176.383 71.024 177.209 70.576C178.035 70.128 178.959 69.904 179.981 69.904C180.849 69.904 181.612 70.065 182.27 70.387C182.928 70.695 183.446 71.136 183.824 71.71C184.202 72.27 184.391 72.921 184.391 73.663C184.391 74.503 184.139 75.245 183.635 75.889C183.145 76.533 182.473 76.918 181.619 77.044ZM193.11 84.667V80.929H186.117V79.669L193.572 70.009H194.538V79.627H196.386V80.929H194.538V84.667H193.11ZM187.629 79.627H193.257V72.256L187.629 79.627ZM201.802 74.734C201.802 76.064 201.536 77.408 201.004 78.766C200.472 80.124 199.758 81.461 198.862 82.777L197.812 82.21C198.638 80.95 199.289 79.676 199.765 78.388C200.241 77.086 200.479 75.889 200.479 74.797C200.479 74.125 200.388 73.425 200.206 72.697C200.038 71.969 199.821 71.255 199.555 70.555C199.289 69.841 198.995 69.176 198.673 68.56C198.365 67.944 198.064 67.426 197.77 67.006L198.883 66.481C199.695 67.853 200.381 69.218 200.941 70.576C201.515 71.92 201.802 73.306 201.802 74.734ZM219.472 77.863C219.472 78.731 219.227 79.487 218.737 80.131C218.261 80.775 217.624 81.279 216.826 81.643C216.042 81.993 215.181 82.168 214.243 82.168C213.249 82.168 212.367 81.972 211.597 81.58C210.827 81.174 210.218 80.642 209.77 79.984C209.336 79.326 209.119 78.591 209.119 77.779C209.119 77.149 209.266 76.582 209.56 76.078C209.854 75.574 210.232 75.147 210.694 74.797C211.156 74.447 211.625 74.188 212.101 74.02C211.443 73.754 210.869 73.355 210.379 72.823C209.889 72.277 209.644 71.633 209.644 70.891C209.644 70.275 209.777 69.736 210.043 69.274C210.323 68.798 210.687 68.399 211.135 68.077C211.597 67.755 212.101 67.51 212.647 67.342C213.193 67.174 213.746 67.09 214.306 67.09C215.048 67.09 215.776 67.237 216.49 67.531C217.204 67.811 217.792 68.238 218.254 68.812C218.73 69.372 218.968 70.058 218.968 70.87C218.968 71.612 218.716 72.256 218.212 72.802C217.722 73.348 217.141 73.754 216.469 74.02C217.281 74.3 217.981 74.776 218.569 75.448C219.171 76.12 219.472 76.925 219.472 77.863ZM211.072 70.954C211.072 71.5 211.24 71.962 211.576 72.34C211.912 72.718 212.325 73.005 212.815 73.201C213.305 73.397 213.795 73.495 214.285 73.495C214.789 73.495 215.286 73.397 215.776 73.201C216.266 72.991 216.679 72.697 217.015 72.319C217.351 71.927 217.519 71.458 217.519 70.912C217.519 70.38 217.365 69.925 217.057 69.547C216.749 69.169 216.343 68.882 215.839 68.686C215.349 68.49 214.824 68.392 214.264 68.392C213.718 68.392 213.2 68.497 212.71 68.707C212.234 68.903 211.842 69.197 211.534 69.589C211.226 69.967 211.072 70.422 211.072 70.954ZM218.023 77.758C218.023 77.1 217.834 76.54 217.456 76.078C217.078 75.602 216.595 75.245 216.007 75.007C215.433 74.755 214.852 74.629 214.264 74.629C213.662 74.629 213.074 74.762 212.5 75.028C211.94 75.28 211.478 75.644 211.114 76.12C210.764 76.596 210.589 77.149 210.589 77.779C210.589 78.423 210.778 78.983 211.156 79.459C211.534 79.921 212.01 80.278 212.584 80.53C213.158 80.768 213.739 80.887 214.327 80.887C214.929 80.887 215.51 80.761 216.07 80.509C216.644 80.243 217.113 79.879 217.477 79.417C217.841 78.941 218.023 78.388 218.023 77.758ZM221.442 82C221.442 81.37 221.519 80.733 221.673 80.089C221.841 79.431 222.17 78.801 222.66 78.199C223.164 77.583 223.92 77.016 224.928 76.498C225.334 76.288 225.754 76.085 226.188 75.889C226.622 75.679 227.028 75.455 227.406 75.217C227.784 74.965 228.092 74.685 228.33 74.377C228.568 74.055 228.687 73.677 228.687 73.243C228.687 72.893 228.582 72.557 228.372 72.235C228.162 71.899 227.854 71.626 227.448 71.416C227.042 71.192 226.531 71.08 225.915 71.08C225.327 71.08 224.802 71.185 224.34 71.395C223.892 71.605 223.514 71.85 223.206 72.13C222.912 72.396 222.688 72.613 222.534 72.781L221.631 71.794C221.715 71.71 221.876 71.563 222.114 71.353C222.352 71.129 222.66 70.898 223.038 70.66C223.43 70.422 223.885 70.219 224.403 70.051C224.921 69.883 225.502 69.799 226.146 69.799C227 69.799 227.728 69.953 228.33 70.261C228.946 70.569 229.415 70.975 229.737 71.479C230.059 71.969 230.22 72.508 230.22 73.096C230.22 73.67 230.094 74.167 229.842 74.587C229.604 74.993 229.289 75.35 228.897 75.658C228.519 75.952 228.12 76.211 227.7 76.435C227.294 76.645 226.923 76.827 226.587 76.981C225.705 77.401 225.012 77.821 224.508 78.241C224.004 78.647 223.633 79.053 223.395 79.459C223.171 79.865 223.017 80.278 222.933 80.698H230.451V82H221.442ZM243.166 75.847C243.166 77.079 242.935 78.178 242.473 79.144C242.011 80.096 241.381 80.845 240.583 81.391C239.799 81.937 238.903 82.21 237.895 82.21C236.887 82.21 235.984 81.937 235.186 81.391C234.388 80.845 233.758 80.096 233.296 79.144C232.848 78.178 232.624 77.079 232.624 75.847C232.624 74.615 232.848 73.523 233.296 72.571C233.758 71.605 234.388 70.849 235.186 70.303C235.984 69.743 236.887 69.463 237.895 69.463C238.903 69.463 239.799 69.743 240.583 70.303C241.381 70.849 242.011 71.605 242.473 72.571C242.935 73.523 243.166 74.615 243.166 75.847ZM241.717 75.847C241.717 74.853 241.556 73.978 241.234 73.222C240.912 72.452 240.464 71.857 239.89 71.437C239.316 71.017 238.651 70.807 237.895 70.807C237.139 70.807 236.474 71.017 235.9 71.437C235.326 71.857 234.871 72.452 234.535 73.222C234.213 73.978 234.052 74.853 234.052 75.847C234.052 76.841 234.213 77.716 234.535 78.472C234.871 79.228 235.326 79.816 235.9 80.236C236.474 80.656 237.139 80.866 237.895 80.866C238.651 80.866 239.316 80.656 239.89 80.236C240.464 79.816 240.912 79.228 241.234 78.472C241.556 77.716 241.717 76.841 241.717 75.847ZM258.206 80.698V82H251.087V80.698H254.069V71.71C253.915 71.92 253.635 72.158 253.229 72.424C252.823 72.69 252.382 72.921 251.906 73.117C251.43 73.299 251.01 73.39 250.646 73.39V72.004C250.968 72.004 251.318 71.913 251.696 71.731C252.088 71.549 252.452 71.339 252.788 71.101C253.138 70.849 253.432 70.618 253.67 70.408C253.908 70.198 254.041 70.065 254.069 70.009H255.539V80.698H258.206ZM259.586 82C259.586 81.37 259.663 80.733 259.817 80.089C259.985 79.431 260.314 78.801 260.804 78.199C261.308 77.583 262.064 77.016 263.072 76.498C263.478 76.288 263.898 76.085 264.332 75.889C264.766 75.679 265.172 75.455 265.55 75.217C265.928 74.965 266.236 74.685 266.474 74.377C266.712 74.055 266.831 73.677 266.831 73.243C266.831 72.893 266.726 72.557 266.516 72.235C266.306 71.899 265.998 71.626 265.592 71.416C265.186 71.192 264.675 71.08 264.059 71.08C263.471 71.08 262.946 71.185 262.484 71.395C262.036 71.605 261.658 71.85 261.35 72.13C261.056 72.396 260.832 72.613 260.678 72.781L259.775 71.794C259.859 71.71 260.02 71.563 260.258 71.353C260.496 71.129 260.804 70.898 261.182 70.66C261.574 70.422 262.029 70.219 262.547 70.051C263.065 69.883 263.646 69.799 264.29 69.799C265.144 69.799 265.872 69.953 266.474 70.261C267.09 70.569 267.559 70.975 267.881 71.479C268.203 71.969 268.364 72.508 268.364 73.096C268.364 73.67 268.238 74.167 267.986 74.587C267.748 74.993 267.433 75.35 267.041 75.658C266.663 75.952 266.264 76.211 265.844 76.435C265.438 76.645 265.067 76.827 264.731 76.981C263.849 77.401 263.156 77.821 262.652 78.241C262.148 78.647 261.777 79.053 261.539 79.459C261.315 79.865 261.161 80.278 261.077 80.698H268.595V82H259.586ZM282.169 77.044C283.093 77.198 283.828 77.618 284.374 78.304C284.934 78.99 285.214 79.837 285.214 80.845C285.214 81.685 285.011 82.42 284.605 83.05C284.199 83.694 283.632 84.191 282.904 84.541C282.176 84.905 281.329 85.087 280.363 85.087C279.313 85.087 278.382 84.87 277.57 84.436C276.772 84.016 276.17 83.428 275.764 82.672L276.751 81.769C277.045 82.385 277.493 82.875 278.095 83.239C278.711 83.603 279.467 83.785 280.363 83.785C281.399 83.785 282.218 83.526 282.82 83.008C283.436 82.504 283.744 81.776 283.744 80.824C283.744 79.872 283.422 79.116 282.778 78.556C282.148 77.982 281.245 77.695 280.069 77.695H279.544V76.477H280.111C281.189 76.477 282.015 76.232 282.589 75.742C283.163 75.238 283.45 74.587 283.45 73.789C283.45 72.949 283.156 72.312 282.568 71.878C281.994 71.43 281.273 71.206 280.405 71.206C279.607 71.206 278.9 71.388 278.284 71.752C277.682 72.102 277.227 72.592 276.919 73.222L275.995 72.34C276.345 71.612 276.933 71.024 277.759 70.576C278.585 70.128 279.509 69.904 280.531 69.904C281.399 69.904 282.162 70.065 282.82 70.387C283.478 70.695 283.996 71.136 284.374 71.71C284.752 72.27 284.941 72.921 284.941 73.663C284.941 74.503 284.689 75.245 284.185 75.889C283.695 76.533 283.023 76.918 282.169 77.044ZM293.387 77.044C294.311 77.198 295.046 77.618 295.592 78.304C296.152 78.99 296.432 79.837 296.432 80.845C296.432 81.685 296.229 82.42 295.823 83.05C295.417 83.694 294.85 84.191 294.122 84.541C293.394 84.905 292.547 85.087 291.581 85.087C290.531 85.087 289.6 84.87 288.788 84.436C287.99 84.016 287.388 83.428 286.982 82.672L287.969 81.769C288.263 82.385 288.711 82.875 289.313 83.239C289.929 83.603 290.685 83.785 291.581 83.785C292.617 83.785 293.436 83.526 294.038 83.008C294.654 82.504 294.962 81.776 294.962 80.824C294.962 79.872 294.64 79.116 293.996 78.556C293.366 77.982 292.463 77.695 291.287 77.695H290.762V76.477H291.329C292.407 76.477 293.233 76.232 293.807 75.742C294.381 75.238 294.668 74.587 294.668 73.789C294.668 72.949 294.374 72.312 293.786 71.878C293.212 71.43 292.491 71.206 291.623 71.206C290.825 71.206 290.118 71.388 289.502 71.752C288.9 72.102 288.445 72.592 288.137 73.222L287.213 72.34C287.563 71.612 288.151 71.024 288.977 70.576C289.803 70.128 290.727 69.904 291.749 69.904C292.617 69.904 293.38 70.065 294.038 70.387C294.696 70.695 295.214 71.136 295.592 71.71C295.97 72.27 296.159 72.921 296.159 73.663C296.159 74.503 295.907 75.245 295.403 75.889C294.913 76.533 294.241 76.918 293.387 77.044Z" fill="#999999"/>
<path d="M101.161 123.21C100.251 123.21 99.432 122.972 98.704 122.496C97.99 122.02 97.423 121.432 97.003 120.732V127.473H95.575V112.059H96.856V114.18C97.29 113.494 97.864 112.941 98.578 112.521C99.306 112.087 100.09 111.87 100.93 111.87C101.686 111.87 102.379 112.031 103.009 112.353C103.639 112.661 104.185 113.081 104.647 113.613C105.123 114.145 105.487 114.754 105.739 115.44C105.991 116.112 106.117 116.812 106.117 117.54C106.117 118.562 105.907 119.507 105.487 120.375C105.081 121.229 104.5 121.915 103.744 122.433C103.002 122.951 102.141 123.21 101.161 123.21ZM100.762 121.95C101.56 121.95 102.246 121.74 102.82 121.32C103.408 120.886 103.863 120.333 104.185 119.661C104.507 118.989 104.668 118.282 104.668 117.54C104.668 116.756 104.486 116.028 104.122 115.356C103.758 114.684 103.268 114.145 102.652 113.739C102.05 113.333 101.364 113.13 100.594 113.13C100.118 113.13 99.614 113.256 99.082 113.508C98.564 113.746 98.102 114.075 97.696 114.495C97.304 114.901 97.073 115.349 97.003 115.839V119.199C97.325 119.969 97.829 120.62 98.515 121.152C99.201 121.684 99.95 121.95 100.762 121.95ZM113.996 113.319C113.044 113.347 112.204 113.613 111.476 114.117C110.762 114.621 110.258 115.314 109.964 116.196V123H108.536V112.059H109.88V114.684C110.258 113.914 110.755 113.291 111.371 112.815C112.001 112.339 112.666 112.073 113.366 112.017C113.506 112.003 113.625 111.996 113.723 111.996C113.821 111.996 113.912 112.003 113.996 112.017V113.319ZM120.295 123.21C119.245 123.21 118.307 122.951 117.481 122.433C116.655 121.915 116.004 121.222 115.528 120.354C115.052 119.486 114.814 118.534 114.814 117.498C114.814 116.476 115.045 115.538 115.507 114.684C115.983 113.83 116.634 113.151 117.46 112.647C118.286 112.129 119.224 111.87 120.274 111.87C121.352 111.87 122.297 112.129 123.109 112.647C123.921 113.165 124.551 113.851 124.999 114.705C125.461 115.545 125.692 116.469 125.692 117.477C125.692 117.701 125.685 117.89 125.671 118.044H116.305C116.375 118.828 116.599 119.528 116.977 120.144C117.355 120.746 117.838 121.229 118.426 121.593C119.014 121.943 119.658 122.118 120.358 122.118C121.072 122.118 121.744 121.936 122.374 121.572C123.004 121.208 123.452 120.732 123.718 120.144L124.957 120.48C124.733 121.012 124.383 121.488 123.907 121.908C123.445 122.314 122.906 122.636 122.29 122.874C121.674 123.098 121.009 123.21 120.295 123.21ZM116.263 117.015H124.348C124.292 116.231 124.075 115.538 123.697 114.936C123.319 114.32 122.836 113.844 122.248 113.508C121.66 113.158 121.009 112.983 120.295 112.983C119.581 112.983 118.93 113.158 118.342 113.508C117.754 113.844 117.271 114.32 116.893 114.936C116.529 115.538 116.319 116.231 116.263 117.015ZM131.486 123.21C130.59 123.21 129.757 123.063 128.987 122.769C128.231 122.461 127.566 122.013 126.992 121.425L127.58 120.417C128.196 120.991 128.812 121.411 129.428 121.677C130.058 121.929 130.723 122.055 131.423 122.055C132.263 122.055 132.949 121.887 133.481 121.551C134.027 121.201 134.3 120.704 134.3 120.06C134.3 119.626 134.167 119.297 133.901 119.073C133.649 118.835 133.278 118.646 132.788 118.506C132.312 118.366 131.738 118.205 131.066 118.023C130.31 117.813 129.673 117.596 129.155 117.372C128.651 117.134 128.266 116.84 128 116.49C127.748 116.126 127.622 115.657 127.622 115.083C127.622 114.383 127.797 113.795 128.147 113.319C128.511 112.843 129.001 112.486 129.617 112.248C130.247 111.996 130.947 111.87 131.717 111.87C132.557 111.87 133.299 112.003 133.943 112.269C134.587 112.535 135.112 112.906 135.518 113.382L134.825 114.348C134.447 113.9 133.978 113.571 133.418 113.361C132.872 113.137 132.277 113.025 131.633 113.025C131.185 113.025 130.758 113.088 130.352 113.214C129.946 113.326 129.61 113.522 129.344 113.802C129.092 114.068 128.966 114.439 128.966 114.915C128.966 115.503 129.183 115.909 129.617 116.133C130.051 116.357 130.709 116.595 131.591 116.847C132.417 117.071 133.138 117.295 133.754 117.519C134.37 117.743 134.846 118.044 135.182 118.422C135.518 118.786 135.686 119.297 135.686 119.955C135.686 120.977 135.301 121.775 134.531 122.349C133.761 122.923 132.746 123.21 131.486 123.21ZM142.772 123.21C141.722 123.21 140.784 122.951 139.958 122.433C139.132 121.915 138.481 121.222 138.005 120.354C137.529 119.486 137.291 118.534 137.291 117.498C137.291 116.476 137.522 115.538 137.984 114.684C138.46 113.83 139.111 113.151 139.937 112.647C140.763 112.129 141.701 111.87 142.751 111.87C143.829 111.87 144.774 112.129 145.586 112.647C146.398 113.165 147.028 113.851 147.476 114.705C147.938 115.545 148.169 116.469 148.169 117.477C148.169 117.701 148.162 117.89 148.148 118.044H138.782C138.852 118.828 139.076 119.528 139.454 120.144C139.832 120.746 140.315 121.229 140.903 121.593C141.491 121.943 142.135 122.118 142.835 122.118C143.549 122.118 144.221 121.936 144.851 121.572C145.481 121.208 145.929 120.732 146.195 120.144L147.434 120.48C147.21 121.012 146.86 121.488 146.384 121.908C145.922 122.314 145.383 122.636 144.767 122.874C144.151 123.098 143.486 123.21 142.772 123.21ZM138.74 117.015H146.825C146.769 116.231 146.552 115.538 146.174 114.936C145.796 114.32 145.313 113.844 144.725 113.508C144.137 113.158 143.486 112.983 142.772 112.983C142.058 112.983 141.407 113.158 140.819 113.508C140.231 113.844 139.748 114.32 139.37 114.936C139.006 115.538 138.796 116.231 138.74 117.015ZM159.57 123H158.142V116.889C158.142 115.601 157.946 114.663 157.554 114.075C157.176 113.473 156.588 113.172 155.79 113.172C155.23 113.172 154.677 113.312 154.131 113.592C153.585 113.858 153.102 114.229 152.682 114.705C152.276 115.167 151.982 115.699 151.8 116.301V123H150.372V112.059H151.674V114.537C152.108 113.739 152.745 113.095 153.585 112.605C154.425 112.115 155.335 111.87 156.315 111.87C157.127 111.87 157.771 112.066 158.247 112.458C158.723 112.836 159.059 113.382 159.255 114.096C159.465 114.796 159.57 115.629 159.57 116.595V123ZM167.763 122.475C167.595 122.545 167.287 122.671 166.839 122.853C166.391 123.035 165.873 123.126 165.285 123.126C164.669 123.126 164.13 122.951 163.668 122.601C163.206 122.251 162.975 121.726 162.975 121.026V113.193H161.463V112.059H162.975V108.363H164.403V112.059H166.923V113.193H164.403V120.627C164.431 121.033 164.571 121.334 164.823 121.53C165.089 121.712 165.39 121.803 165.726 121.803C166.118 121.803 166.468 121.74 166.776 121.614C167.098 121.474 167.301 121.376 167.385 121.32L167.763 122.475ZM174.902 123.21C174.048 123.21 173.257 122.993 172.529 122.559C171.801 122.111 171.234 121.551 170.828 120.879V123H169.547V107.67H170.975V114.348C171.465 113.606 172.053 113.011 172.739 112.563C173.425 112.101 174.223 111.87 175.133 111.87C175.903 111.87 176.589 112.031 177.191 112.353C177.807 112.675 178.332 113.109 178.766 113.655C179.2 114.187 179.529 114.796 179.753 115.482C179.977 116.154 180.089 116.847 180.089 117.561C180.089 118.583 179.858 119.521 179.396 120.375C178.948 121.229 178.332 121.915 177.548 122.433C176.764 122.951 175.882 123.21 174.902 123.21ZM174.566 121.95C175.364 121.95 176.064 121.74 176.666 121.32C177.282 120.9 177.765 120.361 178.115 119.703C178.465 119.031 178.64 118.317 178.64 117.561C178.64 116.791 178.472 116.07 178.136 115.398C177.814 114.726 177.359 114.18 176.771 113.76C176.183 113.34 175.504 113.13 174.734 113.13C173.88 113.13 173.124 113.403 172.466 113.949C171.822 114.495 171.325 115.132 170.975 115.86V119.262C171.045 119.766 171.276 120.221 171.668 120.627C172.06 121.033 172.522 121.355 173.054 121.593C173.586 121.831 174.09 121.95 174.566 121.95ZM181.626 119.85C181.626 119.178 181.822 118.597 182.214 118.107C182.606 117.603 183.145 117.211 183.831 116.931C184.531 116.651 185.336 116.511 186.246 116.511C186.778 116.511 187.331 116.56 187.905 116.658C188.479 116.742 188.99 116.861 189.438 117.015V116.091C189.438 115.167 189.165 114.432 188.619 113.886C188.073 113.34 187.317 113.067 186.351 113.067C185.777 113.067 185.203 113.179 184.629 113.403C184.055 113.613 183.46 113.928 182.844 114.348L182.298 113.34C183.012 112.85 183.712 112.486 184.398 112.248C185.084 111.996 185.784 111.87 186.498 111.87C187.842 111.87 188.906 112.255 189.69 113.025C190.474 113.795 190.866 114.859 190.866 116.217V121.278C190.866 121.656 191.041 121.852 191.391 121.866V123C191.083 123.042 190.866 123.056 190.74 123.042C190.39 123.028 190.124 122.916 189.942 122.706C189.76 122.496 189.662 122.272 189.648 122.034L189.627 121.236C189.137 121.866 188.5 122.356 187.716 122.706C186.932 123.042 186.134 123.21 185.322 123.21C184.608 123.21 183.971 123.063 183.411 122.769C182.851 122.461 182.41 122.055 182.088 121.551C181.78 121.033 181.626 120.466 181.626 119.85ZM188.955 120.69C189.277 120.312 189.438 119.962 189.438 119.64V118.044C188.472 117.666 187.464 117.477 186.414 117.477C185.392 117.477 184.566 117.68 183.936 118.086C183.306 118.492 182.991 119.045 182.991 119.745C182.991 120.347 183.222 120.893 183.684 121.383C184.16 121.873 184.818 122.118 185.658 122.118C186.344 122.118 186.981 121.985 187.569 121.719C188.171 121.453 188.633 121.11 188.955 120.69ZM198.697 123.21C197.633 123.21 196.688 122.951 195.862 122.433C195.036 121.901 194.385 121.208 193.909 120.354C193.433 119.486 193.195 118.534 193.195 117.498C193.195 116.462 193.426 115.524 193.888 114.684C194.35 113.83 194.994 113.151 195.82 112.647C196.646 112.129 197.598 111.87 198.676 111.87C199.698 111.87 200.594 112.108 201.364 112.584C202.148 113.046 202.736 113.676 203.128 114.474L201.742 114.915C201.434 114.355 201 113.921 200.44 113.613C199.894 113.291 199.285 113.13 198.613 113.13C197.871 113.13 197.199 113.319 196.597 113.697C196.009 114.075 195.533 114.6 195.169 115.272C194.819 115.93 194.644 116.672 194.644 117.498C194.644 118.324 194.826 119.073 195.19 119.745C195.554 120.417 196.037 120.956 196.639 121.362C197.241 121.754 197.906 121.95 198.634 121.95C199.11 121.95 199.572 121.866 200.02 121.698C200.468 121.53 200.853 121.306 201.175 121.026C201.497 120.732 201.714 120.417 201.826 120.081L203.233 120.501C203.037 121.019 202.715 121.488 202.267 121.908C201.819 122.314 201.287 122.636 200.671 122.874C200.055 123.098 199.397 123.21 198.697 123.21ZM213.288 123L209.235 117.393L206.904 119.577V123H205.476V107.67H206.904V118.044L213.099 112.08H214.674L210.201 116.553L214.842 123H213.288ZM223.794 110.337C224.83 110.337 225.81 110.533 226.734 110.925C227.658 111.303 228.47 111.849 229.17 112.563C229.87 113.263 230.423 114.103 230.829 115.083C231.235 116.063 231.438 117.148 231.438 118.338C231.438 118.576 231.417 118.898 231.375 119.304C231.347 119.71 231.277 120.144 231.165 120.606C231.053 121.068 230.885 121.509 230.661 121.929C230.451 122.335 230.157 122.671 229.779 122.937C229.401 123.203 228.932 123.336 228.372 123.336C227.896 123.336 227.539 123.245 227.301 123.063C227.063 122.881 226.895 122.643 226.797 122.349C226.713 122.055 226.65 121.74 226.608 121.404C226.23 121.824 225.726 122.181 225.096 122.475C224.466 122.755 223.787 122.895 223.059 122.895C222.065 122.895 221.288 122.629 220.728 122.097C220.182 121.565 219.909 120.893 219.909 120.081C219.909 119.367 220.105 118.807 220.497 118.401C220.889 117.981 221.379 117.687 221.967 117.519C222.569 117.351 223.178 117.267 223.794 117.267C224.396 117.267 224.935 117.33 225.411 117.456C225.887 117.568 226.237 117.666 226.461 117.75C226.461 117.078 226.384 116.49 226.23 115.986C226.09 115.482 225.831 115.09 225.453 114.81C225.075 114.516 224.543 114.369 223.857 114.369C223.311 114.369 222.786 114.46 222.282 114.642C221.778 114.81 221.323 115.048 220.917 115.356L220.539 114.537C221.043 114.201 221.582 113.935 222.156 113.739C222.73 113.543 223.339 113.445 223.983 113.445C224.753 113.445 225.369 113.578 225.831 113.844C226.293 114.096 226.636 114.432 226.86 114.852C227.084 115.272 227.231 115.734 227.301 116.238C227.371 116.742 227.406 117.246 227.406 117.75V120.459C227.406 121.075 227.462 121.579 227.574 121.971C227.7 122.363 228.008 122.559 228.498 122.559C228.932 122.559 229.289 122.412 229.569 122.118C229.863 121.824 230.087 121.453 230.241 121.005C230.409 120.557 230.521 120.095 230.577 119.619C230.647 119.129 230.682 118.688 230.682 118.296C230.682 117.288 230.507 116.343 230.157 115.461C229.821 114.579 229.338 113.809 228.708 113.151C228.078 112.493 227.343 111.982 226.503 111.618C225.663 111.24 224.753 111.051 223.773 111.051C222.807 111.051 221.904 111.226 221.064 111.576C220.224 111.926 219.482 112.423 218.838 113.067C218.194 113.697 217.69 114.446 217.326 115.314C216.962 116.182 216.78 117.134 216.78 118.17C216.78 119.164 216.948 120.095 217.284 120.963C217.634 121.831 218.117 122.594 218.733 123.252C219.363 123.91 220.091 124.421 220.917 124.785C221.757 125.163 222.674 125.352 223.668 125.352C224.256 125.352 224.809 125.282 225.327 125.142C225.845 125.002 226.363 124.806 226.881 124.554L227.154 125.226C226.594 125.506 226.013 125.716 225.411 125.856C224.823 125.996 224.235 126.066 223.647 126.066C222.597 126.066 221.61 125.87 220.686 125.478C219.776 125.086 218.971 124.533 218.271 123.819C217.571 123.119 217.018 122.286 216.612 121.32C216.22 120.354 216.024 119.304 216.024 118.17C216.024 116.98 216.234 115.909 216.654 114.957C217.088 113.991 217.669 113.165 218.397 112.479C219.125 111.793 219.951 111.268 220.875 110.904C221.813 110.526 222.786 110.337 223.794 110.337ZM225.075 121.53C225.663 121.264 226.034 120.942 226.188 120.564C226.356 120.172 226.44 119.78 226.44 119.388V118.548C226.272 118.534 225.95 118.457 225.474 118.317C224.998 118.163 224.424 118.086 223.752 118.086C223.262 118.086 222.793 118.149 222.345 118.275C221.911 118.387 221.554 118.583 221.274 118.863C221.008 119.143 220.875 119.535 220.875 120.039C220.875 120.627 221.085 121.103 221.505 121.467C221.939 121.817 222.478 121.992 223.122 121.992C223.472 121.992 223.822 121.95 224.172 121.866C224.522 121.768 224.823 121.656 225.075 121.53ZM250.462 123H249.034V116.889C249.034 115.629 248.831 114.698 248.425 114.096C248.019 113.48 247.417 113.172 246.619 113.172C245.779 113.172 245.037 113.466 244.393 114.054C243.749 114.642 243.294 115.398 243.028 116.322V123H241.6V116.889C241.6 115.601 241.397 114.663 240.991 114.075C240.599 113.473 240.004 113.172 239.206 113.172C238.38 113.172 237.638 113.459 236.98 114.033C236.336 114.607 235.881 115.363 235.615 116.301V123H234.187V112.059H235.489V114.537C235.937 113.697 236.525 113.046 237.253 112.584C237.981 112.108 238.786 111.87 239.668 111.87C240.578 111.87 241.313 112.136 241.873 112.668C242.433 113.186 242.776 113.858 242.902 114.684C243.91 112.808 245.317 111.87 247.123 111.87C248.355 111.87 249.216 112.304 249.706 113.172C250.21 114.026 250.462 115.167 250.462 116.595V123ZM252.603 119.85C252.603 119.178 252.799 118.597 253.191 118.107C253.583 117.603 254.122 117.211 254.808 116.931C255.508 116.651 256.313 116.511 257.223 116.511C257.755 116.511 258.308 116.56 258.882 116.658C259.456 116.742 259.967 116.861 260.415 117.015V116.091C260.415 115.167 260.142 114.432 259.596 113.886C259.05 113.34 258.294 113.067 257.328 113.067C256.754 113.067 256.18 113.179 255.606 113.403C255.032 113.613 254.437 113.928 253.821 114.348L253.275 113.34C253.989 112.85 254.689 112.486 255.375 112.248C256.061 111.996 256.761 111.87 257.475 111.87C258.819 111.87 259.883 112.255 260.667 113.025C261.451 113.795 261.843 114.859 261.843 116.217V121.278C261.843 121.656 262.018 121.852 262.368 121.866V123C262.06 123.042 261.843 123.056 261.717 123.042C261.367 123.028 261.101 122.916 260.919 122.706C260.737 122.496 260.639 122.272 260.625 122.034L260.604 121.236C260.114 121.866 259.477 122.356 258.693 122.706C257.909 123.042 257.111 123.21 256.299 123.21C255.585 123.21 254.948 123.063 254.388 122.769C253.828 122.461 253.387 122.055 253.065 121.551C252.757 121.033 252.603 120.466 252.603 119.85ZM259.932 120.69C260.254 120.312 260.415 119.962 260.415 119.64V118.044C259.449 117.666 258.441 117.477 257.391 117.477C256.369 117.477 255.543 117.68 254.913 118.086C254.283 118.492 253.968 119.045 253.968 119.745C253.968 120.347 254.199 120.893 254.661 121.383C255.137 121.873 255.795 122.118 256.635 122.118C257.321 122.118 257.958 121.985 258.546 121.719C259.148 121.453 259.61 121.11 259.932 120.69ZM264.929 109.77V107.67H266.357V109.77H264.929ZM264.929 123V112.059H266.357V123H264.929ZM269.565 107.67H270.993V120.522C270.993 121.068 271.084 121.425 271.266 121.593C271.462 121.761 271.707 121.845 272.001 121.845C272.253 121.845 272.505 121.817 272.757 121.761C273.023 121.705 273.24 121.649 273.408 121.593L273.66 122.748C273.394 122.86 273.065 122.951 272.673 123.021C272.295 123.091 271.966 123.126 271.686 123.126C271.042 123.126 270.524 122.937 270.132 122.559C269.754 122.181 269.565 121.663 269.565 121.005V107.67ZM275.013 123V120.942H276.252V123H275.013ZM284.662 113.319C283.71 113.347 282.87 113.613 282.142 114.117C281.428 114.621 280.924 115.314 280.63 116.196V123H279.202V112.059H280.546V114.684C280.924 113.914 281.421 113.291 282.037 112.815C282.667 112.339 283.332 112.073 284.032 112.017C284.172 112.003 284.291 111.996 284.389 111.996C284.487 111.996 284.578 112.003 284.662 112.017V113.319ZM286.459 118.485V112.059H287.887V118.233C287.887 120.711 288.734 121.95 290.428 121.95C291.268 121.95 292.052 121.677 292.78 121.131C293.522 120.585 294.054 119.857 294.376 118.947V112.059H295.804V121.278C295.804 121.656 295.972 121.852 296.308 121.866V123C296.14 123.028 296.007 123.042 295.909 123.042C295.825 123.042 295.734 123.042 295.636 123.042C295.342 123.014 295.09 122.902 294.88 122.706C294.684 122.51 294.586 122.272 294.586 121.992L294.544 120.522C294.068 121.376 293.417 122.041 292.591 122.517C291.779 122.979 290.897 123.21 289.945 123.21C287.621 123.21 286.459 121.635 286.459 118.485Z" fill="#999999"/>
<a href="mailto:presentback@mail.ru">
<rect fill="black" fill-opacity="0" y="0.173" width="203.463" height="24.654"/>
</a>
<path d="M149.321 300.21C148.257 300.21 147.312 299.951 146.486 299.433C145.66 298.901 145.009 298.208 144.533 297.354C144.057 296.486 143.819 295.534 143.819 294.498C143.819 293.462 144.05 292.524 144.512 291.684C144.974 290.83 145.618 290.151 146.444 289.647C147.27 289.129 148.222 288.87 149.3 288.87C150.322 288.87 151.218 289.108 151.988 289.584C152.772 290.046 153.36 290.676 153.752 291.474L152.366 291.915C152.058 291.355 151.624 290.921 151.064 290.613C150.518 290.291 149.909 290.13 149.237 290.13C148.495 290.13 147.823 290.319 147.221 290.697C146.633 291.075 146.157 291.6 145.793 292.272C145.443 292.93 145.268 293.672 145.268 294.498C145.268 295.324 145.45 296.073 145.814 296.745C146.178 297.417 146.661 297.956 147.263 298.362C147.865 298.754 148.53 298.95 149.258 298.95C149.734 298.95 150.196 298.866 150.644 298.698C151.092 298.53 151.477 298.306 151.799 298.026C152.121 297.732 152.338 297.417 152.45 297.081L153.857 297.501C153.661 298.019 153.339 298.488 152.891 298.908C152.443 299.314 151.911 299.636 151.295 299.874C150.679 300.098 150.021 300.21 149.321 300.21ZM161.56 290.319C160.608 290.347 159.768 290.613 159.04 291.117C158.326 291.621 157.822 292.314 157.528 293.196V300H156.1V289.059H157.444V291.684C157.822 290.914 158.319 290.291 158.935 289.815C159.565 289.339 160.23 289.073 160.93 289.017C161.07 289.003 161.189 288.996 161.287 288.996C161.385 288.996 161.476 289.003 161.56 289.017V290.319ZM167.86 300.21C166.81 300.21 165.872 299.951 165.046 299.433C164.22 298.915 163.569 298.222 163.093 297.354C162.617 296.486 162.379 295.534 162.379 294.498C162.379 293.476 162.61 292.538 163.072 291.684C163.548 290.83 164.199 290.151 165.025 289.647C165.851 289.129 166.789 288.87 167.839 288.87C168.917 288.87 169.862 289.129 170.674 289.647C171.486 290.165 172.116 290.851 172.564 291.705C173.026 292.545 173.257 293.469 173.257 294.477C173.257 294.701 173.25 294.89 173.236 295.044H163.87C163.94 295.828 164.164 296.528 164.542 297.144C164.92 297.746 165.403 298.229 165.991 298.593C166.579 298.943 167.223 299.118 167.923 299.118C168.637 299.118 169.309 298.936 169.939 298.572C170.569 298.208 171.017 297.732 171.283 297.144L172.522 297.48C172.298 298.012 171.948 298.488 171.472 298.908C171.01 299.314 170.471 299.636 169.855 299.874C169.239 300.098 168.574 300.21 167.86 300.21ZM163.828 294.015H171.913C171.857 293.231 171.64 292.538 171.262 291.936C170.884 291.32 170.401 290.844 169.813 290.508C169.225 290.158 168.574 289.983 167.86 289.983C167.146 289.983 166.495 290.158 165.907 290.508C165.319 290.844 164.836 291.32 164.458 291.936C164.094 292.538 163.884 293.231 163.828 294.015ZM174.578 296.85C174.578 296.178 174.774 295.597 175.166 295.107C175.558 294.603 176.097 294.211 176.783 293.931C177.483 293.651 178.288 293.511 179.198 293.511C179.73 293.511 180.283 293.56 180.857 293.658C181.431 293.742 181.942 293.861 182.39 294.015V293.091C182.39 292.167 182.117 291.432 181.571 290.886C181.025 290.34 180.269 290.067 179.303 290.067C178.729 290.067 178.155 290.179 177.581 290.403C177.007 290.613 176.412 290.928 175.796 291.348L175.25 290.34C175.964 289.85 176.664 289.486 177.35 289.248C178.036 288.996 178.736 288.87 179.45 288.87C180.794 288.87 181.858 289.255 182.642 290.025C183.426 290.795 183.818 291.859 183.818 293.217V298.278C183.818 298.656 183.993 298.852 184.343 298.866V300C184.035 300.042 183.818 300.056 183.692 300.042C183.342 300.028 183.076 299.916 182.894 299.706C182.712 299.496 182.614 299.272 182.6 299.034L182.579 298.236C182.089 298.866 181.452 299.356 180.668 299.706C179.884 300.042 179.086 300.21 178.274 300.21C177.56 300.21 176.923 300.063 176.363 299.769C175.803 299.461 175.362 299.055 175.04 298.551C174.732 298.033 174.578 297.466 174.578 296.85ZM181.907 297.69C182.229 297.312 182.39 296.962 182.39 296.64V295.044C181.424 294.666 180.416 294.477 179.366 294.477C178.344 294.477 177.518 294.68 176.888 295.086C176.258 295.492 175.943 296.045 175.943 296.745C175.943 297.347 176.174 297.893 176.636 298.383C177.112 298.873 177.77 299.118 178.61 299.118C179.296 299.118 179.933 298.985 180.521 298.719C181.123 298.453 181.585 298.11 181.907 297.69ZM192.071 299.475C191.903 299.545 191.595 299.671 191.147 299.853C190.699 300.035 190.181 300.126 189.593 300.126C188.977 300.126 188.438 299.951 187.976 299.601C187.514 299.251 187.283 298.726 187.283 298.026V290.193H185.771V289.059H187.283V285.363H188.711V289.059H191.231V290.193H188.711V297.627C188.739 298.033 188.879 298.334 189.131 298.53C189.397 298.712 189.698 298.803 190.034 298.803C190.426 298.803 190.776 298.74 191.084 298.614C191.406 298.474 191.609 298.376 191.693 298.32L192.071 299.475ZM198.396 300.21C197.346 300.21 196.408 299.951 195.582 299.433C194.756 298.915 194.105 298.222 193.629 297.354C193.153 296.486 192.915 295.534 192.915 294.498C192.915 293.476 193.146 292.538 193.608 291.684C194.084 290.83 194.735 290.151 195.561 289.647C196.387 289.129 197.325 288.87 198.375 288.87C199.453 288.87 200.398 289.129 201.21 289.647C202.022 290.165 202.652 290.851 203.1 291.705C203.562 292.545 203.793 293.469 203.793 294.477C203.793 294.701 203.786 294.89 203.772 295.044H194.406C194.476 295.828 194.7 296.528 195.078 297.144C195.456 297.746 195.939 298.229 196.527 298.593C197.115 298.943 197.759 299.118 198.459 299.118C199.173 299.118 199.845 298.936 200.475 298.572C201.105 298.208 201.553 297.732 201.819 297.144L203.058 297.48C202.834 298.012 202.484 298.488 202.008 298.908C201.546 299.314 201.007 299.636 200.391 299.874C199.775 300.098 199.11 300.21 198.396 300.21ZM194.364 294.015H202.449C202.393 293.231 202.176 292.538 201.798 291.936C201.42 291.32 200.937 290.844 200.349 290.508C199.761 290.158 199.11 289.983 198.396 289.983C197.682 289.983 197.031 290.158 196.443 290.508C195.855 290.844 195.372 291.32 194.994 291.936C194.63 292.538 194.42 293.231 194.364 294.015ZM205.261 294.561C205.261 293.525 205.471 292.58 205.891 291.726C206.325 290.858 206.92 290.165 207.676 289.647C208.432 289.129 209.293 288.87 210.259 288.87C211.169 288.87 211.981 289.115 212.695 289.605C213.423 290.081 213.99 290.662 214.396 291.348V284.67H215.824V298.278C215.824 298.656 215.992 298.852 216.328 298.866V300C216.048 300.042 215.831 300.056 215.677 300.042C215.369 300.028 215.103 299.916 214.879 299.706C214.669 299.482 214.564 299.23 214.564 298.95V297.879C214.13 298.593 213.542 299.16 212.8 299.58C212.058 300 211.288 300.21 210.49 300.21C209.734 300.21 209.034 300.056 208.39 299.748C207.746 299.44 207.186 299.02 206.71 298.488C206.248 297.956 205.891 297.354 205.639 296.682C205.387 295.996 205.261 295.289 205.261 294.561ZM214.396 296.241V292.86C214.214 292.356 213.92 291.901 213.514 291.495C213.108 291.075 212.646 290.746 212.128 290.508C211.624 290.256 211.12 290.13 210.616 290.13C209.832 290.13 209.146 290.347 208.558 290.781C207.984 291.201 207.536 291.754 207.214 292.44C206.892 293.112 206.731 293.819 206.731 294.561C206.731 295.345 206.906 296.073 207.256 296.745C207.62 297.417 208.11 297.956 208.726 298.362C209.342 298.754 210.035 298.95 210.805 298.95C211.281 298.95 211.778 298.831 212.296 298.593C212.828 298.341 213.29 298.012 213.682 297.606C214.088 297.2 214.326 296.745 214.396 296.241ZM229.767 300.21C228.913 300.21 228.122 299.993 227.394 299.559C226.666 299.111 226.099 298.551 225.693 297.879V300H224.412V284.67H225.84V291.348C226.33 290.606 226.918 290.011 227.604 289.563C228.29 289.101 229.088 288.87 229.998 288.87C230.768 288.87 231.454 289.031 232.056 289.353C232.672 289.675 233.197 290.109 233.631 290.655C234.065 291.187 234.394 291.796 234.618 292.482C234.842 293.154 234.954 293.847 234.954 294.561C234.954 295.583 234.723 296.521 234.261 297.375C233.813 298.229 233.197 298.915 232.413 299.433C231.629 299.951 230.747 300.21 229.767 300.21ZM229.431 298.95C230.229 298.95 230.929 298.74 231.531 298.32C232.147 297.9 232.63 297.361 232.98 296.703C233.33 296.031 233.505 295.317 233.505 294.561C233.505 293.791 233.337 293.07 233.001 292.398C232.679 291.726 232.224 291.18 231.636 290.76C231.048 290.34 230.369 290.13 229.599 290.13C228.745 290.13 227.989 290.403 227.331 290.949C226.687 291.495 226.19 292.132 225.84 292.86V296.262C225.91 296.766 226.141 297.221 226.533 297.627C226.925 298.033 227.387 298.355 227.919 298.593C228.451 298.831 228.955 298.95 229.431 298.95ZM237.634 303.36C237.83 303.374 238.019 303.381 238.201 303.381C238.383 303.395 238.516 303.388 238.6 303.36C238.768 303.346 238.922 303.248 239.062 303.066C239.216 302.898 239.398 302.576 239.608 302.1C239.832 301.638 240.133 300.938 240.511 300L235.744 289.059H237.256L241.267 298.53L244.963 289.059H246.391L240.721 303.171C240.567 303.577 240.308 303.927 239.944 304.221C239.58 304.515 239.097 304.669 238.495 304.683C238.369 304.697 238.236 304.697 238.096 304.683C237.956 304.683 237.802 304.669 237.634 304.641V303.36Z" fill="#999999"/>
<path d="M252.839 300C252.839 299.216 252.93 298.509 253.112 297.879C253.308 297.235 253.644 296.647 254.12 296.115C254.61 295.569 255.31 295.044 256.22 294.54C256.864 294.176 257.459 293.854 258.005 293.574C258.565 293.28 259.006 292.979 259.328 292.671C259.664 292.363 259.832 291.999 259.832 291.579C259.832 291.131 259.636 290.732 259.244 290.382C258.866 290.018 258.32 289.836 257.606 289.836C256.85 289.836 256.213 290.018 255.695 290.382C255.177 290.732 254.764 291.089 254.456 291.453L253.007 289.794C253.203 289.584 253.532 289.325 253.994 289.017C254.456 288.695 255.023 288.415 255.695 288.177C256.381 287.925 257.151 287.799 258.005 287.799C259.349 287.799 260.406 288.128 261.176 288.786C261.946 289.444 262.331 290.27 262.331 291.264C262.331 291.95 262.156 292.538 261.806 293.028C261.456 293.504 261.036 293.903 260.546 294.225C260.07 294.547 259.629 294.813 259.223 295.023C258.495 295.387 257.893 295.709 257.417 295.989C256.955 296.269 256.584 296.556 256.304 296.85C256.024 297.144 255.8 297.501 255.632 297.921H262.562V300H252.839ZM275.347 293.847C275.347 295.079 275.109 296.178 274.633 297.144C274.171 298.096 273.534 298.845 272.722 299.391C271.91 299.937 270.993 300.21 269.971 300.21C268.935 300.21 268.011 299.937 267.199 299.391C266.401 298.845 265.764 298.096 265.288 297.144C264.826 296.178 264.595 295.079 264.595 293.847C264.595 292.615 264.826 291.523 265.288 290.571C265.764 289.605 266.401 288.849 267.199 288.303C268.011 287.743 268.935 287.463 269.971 287.463C270.993 287.463 271.91 287.743 272.722 288.303C273.534 288.849 274.171 289.605 274.633 290.571C275.109 291.523 275.347 292.615 275.347 293.847ZM272.995 293.847C272.995 293.007 272.862 292.272 272.596 291.642C272.344 290.998 271.987 290.501 271.525 290.151C271.077 289.787 270.559 289.605 269.971 289.605C269.369 289.605 268.837 289.787 268.375 290.151C267.913 290.501 267.549 290.998 267.283 291.642C267.031 292.272 266.905 293.007 266.905 293.847C266.905 295.107 267.185 296.129 267.745 296.913C268.319 297.683 269.061 298.068 269.971 298.068C270.559 298.068 271.077 297.893 271.525 297.543C271.987 297.193 272.344 296.703 272.596 296.073C272.862 295.429 272.995 294.687 272.995 293.847ZM277.264 300C277.264 299.216 277.355 298.509 277.537 297.879C277.733 297.235 278.069 296.647 278.545 296.115C279.035 295.569 279.735 295.044 280.645 294.54C281.289 294.176 281.884 293.854 282.43 293.574C282.99 293.28 283.431 292.979 283.753 292.671C284.089 292.363 284.257 291.999 284.257 291.579C284.257 291.131 284.061 290.732 283.669 290.382C283.291 290.018 282.745 289.836 282.031 289.836C281.275 289.836 280.638 290.018 280.12 290.382C279.602 290.732 279.189 291.089 278.881 291.453L277.432 289.794C277.628 289.584 277.957 289.325 278.419 289.017C278.881 288.695 279.448 288.415 280.12 288.177C280.806 287.925 281.576 287.799 282.43 287.799C283.774 287.799 284.831 288.128 285.601 288.786C286.371 289.444 286.756 290.27 286.756 291.264C286.756 291.95 286.581 292.538 286.231 293.028C285.881 293.504 285.461 293.903 284.971 294.225C284.495 294.547 284.054 294.813 283.648 295.023C282.92 295.387 282.318 295.709 281.842 295.989C281.38 296.269 281.009 296.556 280.729 296.85C280.449 297.144 280.225 297.501 280.057 297.921H286.987V300H277.264ZM297.336 297.921V300H289.314V297.921H292.296V290.592C292.142 290.802 291.862 291.033 291.456 291.285C291.05 291.537 290.609 291.747 290.133 291.915C289.671 292.083 289.258 292.167 288.894 292.167V290.004C289.174 290.004 289.496 289.92 289.86 289.752C290.224 289.584 290.581 289.388 290.931 289.164C291.295 288.926 291.603 288.702 291.855 288.492C292.107 288.268 292.254 288.107 292.296 288.009H294.669V297.921H297.336Z" fill="white"/>
</svg>
