<svg width="423" height="264" viewBox="0 0 423 264" fill="none" xmlns="http://www.w3.org/2000/svg">
<path d="M15.078 20V7.862L9.681 17.291H8.757L3.339 7.862V20H1.869V5.09H3.381L9.198 15.296L15.057 5.09H16.548V20H15.078ZM19.0065 16.85C19.0065 16.178 19.2025 15.597 19.5945 15.107C19.9865 14.603 20.5255 14.211 21.2115 13.931C21.9115 13.651 22.7165 13.511 23.6265 13.511C24.1585 13.511 24.7115 13.56 25.2855 13.658C25.8595 13.742 26.3705 13.861 26.8185 14.015V13.091C26.8185 12.167 26.5455 11.432 25.9995 10.886C25.4535 10.34 24.6975 10.067 23.7315 10.067C23.1575 10.067 22.5835 10.179 22.0095 10.403C21.4355 10.613 20.8405 10.928 20.2245 11.348L19.6785 10.34C20.3925 9.85 21.0925 9.486 21.7785 9.248C22.4645 8.996 23.1645 8.87 23.8785 8.87C25.2225 8.87 26.2865 9.255 27.0705 10.025C27.8545 10.795 28.2465 11.859 28.2465 13.217V18.278C28.2465 18.656 28.4215 18.852 28.7715 18.866V20C28.4635 20.042 28.2465 20.056 28.1205 20.042C27.7705 20.028 27.5045 19.916 27.3225 19.706C27.1405 19.496 27.0425 19.272 27.0285 19.034L27.0075 18.236C26.5175 18.866 25.8805 19.356 25.0965 19.706C24.3125 20.042 23.5145 20.21 22.7025 20.21C21.9885 20.21 21.3515 20.063 20.7915 19.769C20.2315 19.461 19.7905 19.055 19.4685 18.551C19.1605 18.033 19.0065 17.466 19.0065 16.85ZM26.3355 17.69C26.6575 17.312 26.8185 16.962 26.8185 16.64V15.044C25.8525 14.666 24.8445 14.477 23.7945 14.477C22.7725 14.477 21.9465 14.68 21.3165 15.086C20.6865 15.492 20.3715 16.045 20.3715 16.745C20.3715 17.347 20.6025 17.893 21.0645 18.383C21.5405 18.873 22.1985 19.118 23.0385 19.118C23.7245 19.118 24.3615 18.985 24.9495 18.719C25.5515 18.453 26.0135 18.11 26.3355 17.69ZM31.3108 20V9.059H37.8418V10.34H32.7388V20H31.3108ZM38.9606 16.85C38.9606 16.178 39.1566 15.597 39.5486 15.107C39.9406 14.603 40.4796 14.211 41.1656 13.931C41.8656 13.651 42.6706 13.511 43.5806 13.511C44.1126 13.511 44.6656 13.56 45.2396 13.658C45.8136 13.742 46.3246 13.861 46.7726 14.015V13.091C46.7726 12.167 46.4996 11.432 45.9536 10.886C45.4076 10.34 44.6516 10.067 43.6856 10.067C43.1116 10.067 42.5376 10.179 41.9636 10.403C41.3896 10.613 40.7946 10.928 40.1786 11.348L39.6326 10.34C40.3466 9.85 41.0466 9.486 41.7326 9.248C42.4186 8.996 43.1186 8.87 43.8326 8.87C45.1766 8.87 46.2406 9.255 47.0246 10.025C47.8086 10.795 48.2006 11.859 48.2006 13.217V18.278C48.2006 18.656 48.3756 18.852 48.7256 18.866V20C48.4176 20.042 48.2006 20.056 48.0746 20.042C47.7246 20.028 47.4586 19.916 47.2766 19.706C47.0946 19.496 46.9966 19.272 46.9826 19.034L46.9616 18.236C46.4716 18.866 45.8346 19.356 45.0506 19.706C44.2666 20.042 43.4686 20.21 42.6566 20.21C41.9426 20.21 41.3056 20.063 40.7456 19.769C40.1856 19.461 39.7446 19.055 39.4226 18.551C39.1146 18.033 38.9606 17.466 38.9606 16.85ZM46.2896 17.69C46.6116 17.312 46.7726 16.962 46.7726 16.64V15.044C45.8066 14.666 44.7986 14.477 43.7486 14.477C42.7266 14.477 41.9006 14.68 41.2706 15.086C40.6406 15.492 40.3256 16.045 40.3256 16.745C40.3256 17.347 40.5566 17.893 41.0186 18.383C41.4946 18.873 42.1526 19.118 42.9926 19.118C43.6786 19.118 44.3156 18.985 44.9036 18.719C45.5056 18.453 45.9676 18.11 46.2896 17.69ZM54.4569 20.126C53.4489 20.126 52.5809 19.937 51.8529 19.559C51.1389 19.167 50.5999 18.621 50.2359 17.921L51.4119 17.396C51.6779 17.886 52.0629 18.271 52.5669 18.551C53.0709 18.817 53.6799 18.95 54.3939 18.95C55.2479 18.95 55.9269 18.754 56.4309 18.362C56.9489 17.97 57.2079 17.445 57.2079 16.787C57.2079 16.199 57.0049 15.716 56.5989 15.338C56.1929 14.96 55.6329 14.771 54.9189 14.771H53.8059V13.784H55.0029C55.4649 13.784 55.8499 13.609 56.1579 13.259C56.4799 12.895 56.6409 12.447 56.6409 11.915C56.6409 11.369 56.4449 10.928 56.0529 10.592C55.6749 10.256 55.1149 10.088 54.3729 10.088C53.1689 10.088 52.3219 10.571 51.8319 11.537L50.7399 10.949C51.0619 10.305 51.5379 9.801 52.1679 9.437C52.7979 9.073 53.5469 8.891 54.4149 8.891C55.4509 8.891 56.2979 9.15 56.9559 9.668C57.6139 10.172 57.9429 10.872 57.9429 11.768C57.9429 12.286 57.8169 12.769 57.5649 13.217C57.3129 13.665 56.9629 13.994 56.5149 14.204C57.1589 14.414 57.6559 14.764 58.0059 15.254C58.3699 15.73 58.5519 16.297 58.5519 16.955C58.5519 17.949 58.1669 18.726 57.3969 19.286C56.6269 19.846 55.6469 20.126 54.4569 20.126ZM60.9241 20V9.08H62.3521V18.068L69.0091 9.059H70.2901V20H68.8621V11.159L62.3101 20H60.9241ZM73.3929 20V9.059H74.8209V13.763H81.0789V9.059H82.5069V20H81.0789V15.044H74.8209V20H73.3929ZM85.636 20V9.059H87.064V12.923H89.542C90.788 12.923 91.726 13.245 92.356 13.889C93 14.519 93.322 15.352 93.322 16.388C93.322 17.06 93.182 17.669 92.902 18.215C92.622 18.761 92.209 19.195 91.663 19.517C91.117 19.839 90.445 20 89.647 20H85.636ZM95.317 20V9.08H96.745V20H95.317ZM87.064 18.866H89.458C90.312 18.866 90.928 18.621 91.306 18.131C91.684 17.627 91.873 17.053 91.873 16.409C91.873 15.989 91.796 15.604 91.642 15.254C91.502 14.89 91.25 14.603 90.886 14.393C90.536 14.169 90.046 14.057 89.416 14.057H87.064V18.866Z" fill="#999999"/>
<path d="M1.869 57V42.09H13.125V57H11.655V43.392H3.339V57H1.869ZM22.1522 57.21C21.2422 57.21 20.4232 56.972 19.6952 56.496C18.9812 56.02 18.4142 55.432 17.9942 54.732V61.473H16.5662V46.059H17.8472V48.18C18.2812 47.494 18.8552 46.941 19.5692 46.521C20.2972 46.087 21.0812 45.87 21.9212 45.87C22.6772 45.87 23.3702 46.031 24.0002 46.353C24.6302 46.661 25.1762 47.081 25.6382 47.613C26.1142 48.145 26.4782 48.754 26.7302 49.44C26.9822 50.112 27.1082 50.812 27.1082 51.54C27.1082 52.562 26.8982 53.507 26.4782 54.375C26.0722 55.229 25.4912 55.915 24.7352 56.433C23.9932 56.951 23.1322 57.21 22.1522 57.21ZM21.7532 55.95C22.5512 55.95 23.2372 55.74 23.8112 55.32C24.3992 54.886 24.8542 54.333 25.1762 53.661C25.4982 52.989 25.6592 52.282 25.6592 51.54C25.6592 50.756 25.4772 50.028 25.1132 49.356C24.7492 48.684 24.2592 48.145 23.6432 47.739C23.0412 47.333 22.3552 47.13 21.5852 47.13C21.1092 47.13 20.6052 47.256 20.0732 47.508C19.5552 47.746 19.0932 48.075 18.6872 48.495C18.2952 48.901 18.0642 49.349 17.9942 49.839V53.199C18.3162 53.969 18.8202 54.62 19.5062 55.152C20.1922 55.684 20.9412 55.95 21.7532 55.95ZM34.1891 57.21C33.1391 57.21 32.2011 56.951 31.3751 56.433C30.5631 55.915 29.9261 55.229 29.4641 54.375C29.0021 53.507 28.7711 52.569 28.7711 51.561C28.7711 50.539 29.0021 49.601 29.4641 48.747C29.9401 47.879 30.5841 47.186 31.3961 46.668C32.2221 46.136 33.1531 45.87 34.1891 45.87C35.2391 45.87 36.1701 46.136 36.9821 46.668C37.8081 47.186 38.4521 47.879 38.9141 48.747C39.3901 49.601 39.6281 50.539 39.6281 51.561C39.6281 52.569 39.3971 53.507 38.9351 54.375C38.4731 55.229 37.8291 55.915 37.0031 56.433C36.1911 56.951 35.2531 57.21 34.1891 57.21ZM30.2201 51.582C30.2201 52.394 30.3951 53.136 30.7451 53.808C31.1091 54.466 31.5921 54.991 32.1941 55.383C32.7961 55.761 33.4611 55.95 34.1891 55.95C34.9171 55.95 35.5821 55.754 36.1841 55.362C36.7861 54.97 37.2691 54.438 37.6331 53.766C37.9971 53.094 38.1791 52.352 38.1791 51.54C38.1791 50.728 37.9971 49.986 37.6331 49.314C37.2691 48.642 36.7861 48.11 36.1841 47.718C35.5821 47.326 34.9171 47.13 34.1891 47.13C33.4751 47.13 32.8171 47.333 32.2151 47.739C31.6131 48.131 31.1301 48.663 30.7661 49.335C30.4021 50.007 30.2201 50.756 30.2201 51.582ZM41.9954 57V46.059H43.4654L47.8124 53.598L52.1804 46.059H53.5874V57H52.2224V48.201L48.2744 55.047H47.3504L43.3604 48.201V57H41.9954ZM61.403 57.21C60.353 57.21 59.415 56.951 58.589 56.433C57.777 55.915 57.14 55.229 56.678 54.375C56.216 53.507 55.985 52.569 55.985 51.561C55.985 50.539 56.216 49.601 56.678 48.747C57.154 47.879 57.798 47.186 58.61 46.668C59.436 46.136 60.367 45.87 61.403 45.87C62.453 45.87 63.384 46.136 64.196 46.668C65.022 47.186 65.666 47.879 66.128 48.747C66.604 49.601 66.842 50.539 66.842 51.561C66.842 52.569 66.611 53.507 66.149 54.375C65.687 55.229 65.043 55.915 64.217 56.433C63.405 56.951 62.467 57.21 61.403 57.21ZM57.434 51.582C57.434 52.394 57.609 53.136 57.959 53.808C58.323 54.466 58.806 54.991 59.408 55.383C60.01 55.761 60.675 55.95 61.403 55.95C62.131 55.95 62.796 55.754 63.398 55.362C64 54.97 64.483 54.438 64.847 53.766C65.211 53.094 65.393 52.352 65.393 51.54C65.393 50.728 65.211 49.986 64.847 49.314C64.483 48.642 64 48.11 63.398 47.718C62.796 47.326 62.131 47.13 61.403 47.13C60.689 47.13 60.031 47.333 59.429 47.739C58.827 48.131 58.344 48.663 57.98 49.335C57.616 50.007 57.434 50.756 57.434 51.582ZM69.2093 57V46.059H70.6373V50.742H72.2753L75.9503 46.059H77.5883L73.4093 51.372L78.1133 57H76.4333L72.2753 52.065H70.6373V57H69.2093ZM84.2282 57.21C83.1782 57.21 82.2402 56.951 81.4142 56.433C80.6022 55.915 79.9652 55.229 79.5032 54.375C79.0412 53.507 78.8102 52.569 78.8102 51.561C78.8102 50.539 79.0412 49.601 79.5032 48.747C79.9792 47.879 80.6232 47.186 81.4352 46.668C82.2612 46.136 83.1922 45.87 84.2282 45.87C85.2782 45.87 86.2092 46.136 87.0212 46.668C87.8472 47.186 88.4912 47.879 88.9532 48.747C89.4292 49.601 89.6672 50.539 89.6672 51.561C89.6672 52.569 89.4362 53.507 88.9742 54.375C88.5122 55.229 87.8682 55.915 87.0422 56.433C86.2302 56.951 85.2922 57.21 84.2282 57.21ZM80.2592 51.582C80.2592 52.394 80.4342 53.136 80.7842 53.808C81.1482 54.466 81.6312 54.991 82.2332 55.383C82.8352 55.761 83.5002 55.95 84.2282 55.95C84.9562 55.95 85.6212 55.754 86.2232 55.362C86.8252 54.97 87.3082 54.438 87.6722 53.766C88.0362 53.094 88.2182 52.352 88.2182 51.54C88.2182 50.728 88.0362 49.986 87.6722 49.314C87.3082 48.642 86.8252 48.11 86.2232 47.718C85.6212 47.326 84.9562 47.13 84.2282 47.13C83.5142 47.13 82.8562 47.333 82.2542 47.739C81.6522 48.131 81.1692 48.663 80.8052 49.335C80.4412 50.007 80.2592 50.756 80.2592 51.582ZM90.8375 59.541V55.719H91.0265C91.4465 55.719 91.8245 55.537 92.1605 55.173C92.4965 54.809 92.7695 54.151 92.9795 53.199C93.2035 52.233 93.3365 50.868 93.3785 49.104L93.4835 46.059H100.602V55.719H102.072V59.541H100.791V57H92.0975V59.541H90.8375ZM93.1895 55.719H99.1745V47.34H94.7645L94.7015 49.23C94.6315 51.19 94.4705 52.674 94.2185 53.682C93.9665 54.676 93.6235 55.355 93.1895 55.719ZM104.216 57V46.059H105.644V49.923H108.122C109.368 49.923 110.306 50.245 110.936 50.889C111.58 51.519 111.902 52.352 111.902 53.388C111.902 54.06 111.762 54.669 111.482 55.215C111.202 55.761 110.789 56.195 110.243 56.517C109.697 56.839 109.025 57 108.227 57H104.216ZM113.897 57V46.08H115.325V57H113.897ZM105.644 55.866H108.038C108.892 55.866 109.508 55.621 109.886 55.131C110.264 54.627 110.453 54.053 110.453 53.409C110.453 52.989 110.376 52.604 110.222 52.254C110.082 51.89 109.83 51.603 109.466 51.393C109.116 51.169 108.626 51.057 107.996 51.057H105.644V55.866Z" fill="#999999"/>
<path d="M288.453 6.392H283.14V20H281.67V6.392H276.357V5.09H288.453V6.392ZM292.759 20.21C291.709 20.21 290.771 19.951 289.945 19.433C289.119 18.915 288.468 18.222 287.992 17.354C287.516 16.486 287.278 15.534 287.278 14.498C287.278 13.476 287.509 12.538 287.971 11.684C288.447 10.83 289.098 10.151 289.924 9.647C290.75 9.129 291.688 8.87 292.738 8.87C293.816 8.87 294.761 9.129 295.573 9.647C296.385 10.165 297.015 10.851 297.463 11.705C297.925 12.545 298.156 13.469 298.156 14.477C298.156 14.701 298.149 14.89 298.135 15.044H288.769C288.839 15.828 289.063 16.528 289.441 17.144C289.819 17.746 290.302 18.229 290.89 18.593C291.478 18.943 292.122 19.118 292.822 19.118C293.536 19.118 294.208 18.936 294.838 18.572C295.468 18.208 295.916 17.732 296.182 17.144L297.421 17.48C297.197 18.012 296.847 18.488 296.371 18.908C295.909 19.314 295.37 19.636 294.754 19.874C294.138 20.098 293.473 20.21 292.759 20.21ZM288.727 14.015H296.812C296.756 13.231 296.539 12.538 296.161 11.936C295.783 11.32 295.3 10.844 294.712 10.508C294.124 10.158 293.473 9.983 292.759 9.983C292.045 9.983 291.394 10.158 290.806 10.508C290.218 10.844 289.735 11.32 289.357 11.936C288.993 12.538 288.783 13.231 288.727 14.015ZM300.695 9.059L303.908 13.343L304.076 13.658L304.244 13.343L307.436 9.059H309.053L304.895 14.561L309.053 20H307.436L304.244 15.737L304.076 15.443L303.908 15.737L300.716 20H299.099L303.236 14.561L299.099 9.059H300.695ZM310.92 20V9.059H319.719V20H318.291V10.34H312.348V20H310.92ZM327.539 20.21C326.489 20.21 325.551 19.951 324.725 19.433C323.913 18.915 323.276 18.229 322.814 17.375C322.352 16.507 322.121 15.569 322.121 14.561C322.121 13.539 322.352 12.601 322.814 11.747C323.29 10.879 323.934 10.186 324.746 9.668C325.572 9.136 326.503 8.87 327.539 8.87C328.589 8.87 329.52 9.136 330.332 9.668C331.158 10.186 331.802 10.879 332.264 11.747C332.74 12.601 332.978 13.539 332.978 14.561C332.978 15.569 332.747 16.507 332.285 17.375C331.823 18.229 331.179 18.915 330.353 19.433C329.541 19.951 328.603 20.21 327.539 20.21ZM323.57 14.582C323.57 15.394 323.745 16.136 324.095 16.808C324.459 17.466 324.942 17.991 325.544 18.383C326.146 18.761 326.811 18.95 327.539 18.95C328.267 18.95 328.932 18.754 329.534 18.362C330.136 17.97 330.619 17.438 330.983 16.766C331.347 16.094 331.529 15.352 331.529 14.54C331.529 13.728 331.347 12.986 330.983 12.314C330.619 11.642 330.136 11.11 329.534 10.718C328.932 10.326 328.267 10.13 327.539 10.13C326.825 10.13 326.167 10.333 325.565 10.739C324.963 11.131 324.48 11.663 324.116 12.335C323.752 13.007 323.57 13.756 323.57 14.582ZM334.148 22.541V18.719H334.337C334.757 18.719 335.135 18.537 335.471 18.173C335.807 17.809 336.08 17.151 336.29 16.199C336.514 15.233 336.647 13.868 336.689 12.104L336.794 9.059H343.913V18.719H345.383V22.541H344.102V20H335.408V22.541H334.148ZM336.5 18.719H342.485V10.34H338.075L338.012 12.23C337.942 14.19 337.781 15.674 337.529 16.682C337.277 17.676 336.934 18.355 336.5 18.719ZM346.33 22.541V18.719H346.519C346.939 18.719 347.317 18.537 347.653 18.173C347.989 17.809 348.262 17.151 348.472 16.199C348.696 15.233 348.829 13.868 348.871 12.104L348.976 9.059H356.095V18.719H357.565V22.541H356.284V20H347.59V22.541H346.33ZM348.682 18.719H354.667V10.34H350.257L350.194 12.23C350.124 14.19 349.963 15.674 349.711 16.682C349.459 17.676 349.116 18.355 348.682 18.719ZM364.454 20.21C363.404 20.21 362.466 19.951 361.64 19.433C360.814 18.915 360.163 18.222 359.687 17.354C359.211 16.486 358.973 15.534 358.973 14.498C358.973 13.476 359.204 12.538 359.666 11.684C360.142 10.83 360.793 10.151 361.619 9.647C362.445 9.129 363.383 8.87 364.433 8.87C365.511 8.87 366.456 9.129 367.268 9.647C368.08 10.165 368.71 10.851 369.158 11.705C369.62 12.545 369.851 13.469 369.851 14.477C369.851 14.701 369.844 14.89 369.83 15.044H360.464C360.534 15.828 360.758 16.528 361.136 17.144C361.514 17.746 361.997 18.229 362.585 18.593C363.173 18.943 363.817 19.118 364.517 19.118C365.231 19.118 365.903 18.936 366.533 18.572C367.163 18.208 367.611 17.732 367.877 17.144L369.116 17.48C368.892 18.012 368.542 18.488 368.066 18.908C367.604 19.314 367.065 19.636 366.449 19.874C365.833 20.098 365.168 20.21 364.454 20.21ZM360.422 14.015H368.507C368.451 13.231 368.234 12.538 367.856 11.936C367.478 11.32 366.995 10.844 366.407 10.508C365.819 10.158 365.168 9.983 364.454 9.983C363.74 9.983 363.089 10.158 362.501 10.508C361.913 10.844 361.43 11.32 361.052 11.936C360.688 12.538 360.478 13.231 360.422 14.015ZM377.64 20.21C376.73 20.21 375.911 19.972 375.183 19.496C374.469 19.02 373.902 18.432 373.482 17.732V24.473H372.054V9.059H373.335V11.18C373.769 10.494 374.343 9.941 375.057 9.521C375.785 9.087 376.569 8.87 377.409 8.87C378.165 8.87 378.858 9.031 379.488 9.353C380.118 9.661 380.664 10.081 381.126 10.613C381.602 11.145 381.966 11.754 382.218 12.44C382.47 13.112 382.596 13.812 382.596 14.54C382.596 15.562 382.386 16.507 381.966 17.375C381.56 18.229 380.979 18.915 380.223 19.433C379.481 19.951 378.62 20.21 377.64 20.21ZM377.241 18.95C378.039 18.95 378.725 18.74 379.299 18.32C379.887 17.886 380.342 17.333 380.664 16.661C380.986 15.989 381.147 15.282 381.147 14.54C381.147 13.756 380.965 13.028 380.601 12.356C380.237 11.684 379.747 11.145 379.131 10.739C378.529 10.333 377.843 10.13 377.073 10.13C376.597 10.13 376.093 10.256 375.561 10.508C375.043 10.746 374.581 11.075 374.175 11.495C373.783 11.901 373.552 12.349 373.482 12.839V16.199C373.804 16.969 374.308 17.62 374.994 18.152C375.68 18.684 376.429 18.95 377.241 18.95ZM384.238 20L388.333 14.372L384.637 9.059H386.254L389.551 13.784H390.979V9.059H392.449V13.784H393.919L397.153 9.059H398.791L395.074 14.372L399.211 20H397.552L393.919 15.044H392.449V20H390.979V15.044H389.551L385.897 20H384.238ZM401.565 20V9.059H402.993V13.742H404.631L408.306 9.059H409.944L405.765 14.372L410.469 20H408.789L404.631 15.065H402.993V20H401.565ZM411.573 16.85C411.573 16.178 411.769 15.597 412.161 15.107C412.553 14.603 413.092 14.211 413.778 13.931C414.478 13.651 415.283 13.511 416.193 13.511C416.725 13.511 417.278 13.56 417.852 13.658C418.426 13.742 418.937 13.861 419.385 14.015V13.091C419.385 12.167 419.112 11.432 418.566 10.886C418.02 10.34 417.264 10.067 416.298 10.067C415.724 10.067 415.15 10.179 414.576 10.403C414.002 10.613 413.407 10.928 412.791 11.348L412.245 10.34C412.959 9.85 413.659 9.486 414.345 9.248C415.031 8.996 415.731 8.87 416.445 8.87C417.789 8.87 418.853 9.255 419.637 10.025C420.421 10.795 420.813 11.859 420.813 13.217V18.278C420.813 18.656 420.988 18.852 421.338 18.866V20C421.03 20.042 420.813 20.056 420.687 20.042C420.337 20.028 420.071 19.916 419.889 19.706C419.707 19.496 419.609 19.272 419.595 19.034L419.574 18.236C419.084 18.866 418.447 19.356 417.663 19.706C416.879 20.042 416.081 20.21 415.269 20.21C414.555 20.21 413.918 20.063 413.358 19.769C412.798 19.461 412.357 19.055 412.035 18.551C411.727 18.033 411.573 17.466 411.573 16.85ZM418.902 17.69C419.224 17.312 419.385 16.962 419.385 16.64V15.044C418.419 14.666 417.411 14.477 416.361 14.477C415.339 14.477 414.513 14.68 413.883 15.086C413.253 15.492 412.938 16.045 412.938 16.745C412.938 17.347 413.169 17.893 413.631 18.383C414.107 18.873 414.765 19.118 415.605 19.118C416.291 19.118 416.928 18.985 417.516 18.719C418.118 18.453 418.58 18.11 418.902 17.69Z" fill="#999999"/>
<path d="M277.869 57V42.09H289.125V57H287.655V43.392H279.339V57H277.869ZM298.152 57.21C297.242 57.21 296.423 56.972 295.695 56.496C294.981 56.02 294.414 55.432 293.994 54.732V61.473H292.566V46.059H293.847V48.18C294.281 47.494 294.855 46.941 295.569 46.521C296.297 46.087 297.081 45.87 297.921 45.87C298.677 45.87 299.37 46.031 300 46.353C300.63 46.661 301.176 47.081 301.638 47.613C302.114 48.145 302.478 48.754 302.73 49.44C302.982 50.112 303.108 50.812 303.108 51.54C303.108 52.562 302.898 53.507 302.478 54.375C302.072 55.229 301.491 55.915 300.735 56.433C299.993 56.951 299.132 57.21 298.152 57.21ZM297.753 55.95C298.551 55.95 299.237 55.74 299.811 55.32C300.399 54.886 300.854 54.333 301.176 53.661C301.498 52.989 301.659 52.282 301.659 51.54C301.659 50.756 301.477 50.028 301.113 49.356C300.749 48.684 300.259 48.145 299.643 47.739C299.041 47.333 298.355 47.13 297.585 47.13C297.109 47.13 296.605 47.256 296.073 47.508C295.555 47.746 295.093 48.075 294.687 48.495C294.295 48.901 294.064 49.349 293.994 49.839V53.199C294.316 53.969 294.82 54.62 295.506 55.152C296.192 55.684 296.941 55.95 297.753 55.95ZM304.645 53.85C304.645 53.178 304.841 52.597 305.233 52.107C305.625 51.603 306.164 51.211 306.85 50.931C307.55 50.651 308.355 50.511 309.265 50.511C309.797 50.511 310.35 50.56 310.924 50.658C311.498 50.742 312.009 50.861 312.457 51.015V50.091C312.457 49.167 312.184 48.432 311.638 47.886C311.092 47.34 310.336 47.067 309.37 47.067C308.796 47.067 308.222 47.179 307.648 47.403C307.074 47.613 306.479 47.928 305.863 48.348L305.317 47.34C306.031 46.85 306.731 46.486 307.417 46.248C308.103 45.996 308.803 45.87 309.517 45.87C310.861 45.87 311.925 46.255 312.709 47.025C313.493 47.795 313.885 48.859 313.885 50.217V55.278C313.885 55.656 314.06 55.852 314.41 55.866V57C314.102 57.042 313.885 57.056 313.759 57.042C313.409 57.028 313.143 56.916 312.961 56.706C312.779 56.496 312.681 56.272 312.667 56.034L312.646 55.236C312.156 55.866 311.519 56.356 310.735 56.706C309.951 57.042 309.153 57.21 308.341 57.21C307.627 57.21 306.99 57.063 306.43 56.769C305.87 56.461 305.429 56.055 305.107 55.551C304.799 55.033 304.645 54.466 304.645 53.85ZM311.974 54.69C312.296 54.312 312.457 53.962 312.457 53.64V52.044C311.491 51.666 310.483 51.477 309.433 51.477C308.411 51.477 307.585 51.68 306.955 52.086C306.325 52.492 306.01 53.045 306.01 53.745C306.01 54.347 306.241 54.893 306.703 55.383C307.179 55.873 307.837 56.118 308.677 56.118C309.363 56.118 310 55.985 310.588 55.719C311.19 55.453 311.652 55.11 311.974 54.69ZM316.95 57V46.059H322.41C323.026 46.059 323.544 46.192 323.964 46.458C324.384 46.71 324.699 47.046 324.909 47.466C325.133 47.872 325.245 48.299 325.245 48.747C325.245 49.335 325.098 49.867 324.804 50.343C324.524 50.805 324.125 51.155 323.607 51.393C324.237 51.561 324.748 51.89 325.14 52.38C325.532 52.87 325.728 53.444 325.728 54.102C325.728 54.984 325.413 55.691 324.783 56.223C324.167 56.741 323.376 57 322.41 57H316.95ZM318.315 50.994H322.032C322.578 50.994 323.019 50.791 323.355 50.385C323.705 49.965 323.88 49.496 323.88 48.978C323.88 48.474 323.712 48.033 323.376 47.655C323.054 47.277 322.634 47.088 322.116 47.088H318.315V50.994ZM318.315 55.971H322.368C322.928 55.971 323.397 55.768 323.775 55.362C324.153 54.942 324.342 54.48 324.342 53.976C324.342 53.43 324.16 52.961 323.796 52.569C323.432 52.177 322.984 51.981 322.452 51.981H318.315V55.971ZM328.188 57V46.08H329.616V55.068L336.273 46.059H337.554V57H336.126V48.159L329.574 57H328.188ZM339.628 57.063V55.761C339.992 55.761 340.321 55.663 340.615 55.467C340.923 55.271 341.189 54.928 341.413 54.438C341.651 53.948 341.84 53.269 341.98 52.401C342.12 51.533 342.211 50.434 342.253 49.104L342.379 46.059H349.477V57H348.049V47.34H343.639L343.597 49.23C343.527 51.26 343.338 52.842 343.03 53.976C342.722 55.11 342.281 55.908 341.707 56.37C341.147 56.818 340.454 57.049 339.628 57.063ZM351.752 53.85C351.752 53.178 351.948 52.597 352.34 52.107C352.732 51.603 353.271 51.211 353.957 50.931C354.657 50.651 355.462 50.511 356.372 50.511C356.904 50.511 357.457 50.56 358.031 50.658C358.605 50.742 359.116 50.861 359.564 51.015V50.091C359.564 49.167 359.291 48.432 358.745 47.886C358.199 47.34 357.443 47.067 356.477 47.067C355.903 47.067 355.329 47.179 354.755 47.403C354.181 47.613 353.586 47.928 352.97 48.348L352.424 47.34C353.138 46.85 353.838 46.486 354.524 46.248C355.21 45.996 355.91 45.87 356.624 45.87C357.968 45.87 359.032 46.255 359.816 47.025C360.6 47.795 360.992 48.859 360.992 50.217V55.278C360.992 55.656 361.167 55.852 361.517 55.866V57C361.209 57.042 360.992 57.056 360.866 57.042C360.516 57.028 360.25 56.916 360.068 56.706C359.886 56.496 359.788 56.272 359.774 56.034L359.753 55.236C359.263 55.866 358.626 56.356 357.842 56.706C357.058 57.042 356.26 57.21 355.448 57.21C354.734 57.21 354.097 57.063 353.537 56.769C352.977 56.461 352.536 56.055 352.214 55.551C351.906 55.033 351.752 54.466 351.752 53.85ZM359.081 54.69C359.403 54.312 359.564 53.962 359.564 53.64V52.044C358.598 51.666 357.59 51.477 356.54 51.477C355.518 51.477 354.692 51.68 354.062 52.086C353.432 52.492 353.117 53.045 353.117 53.745C353.117 54.347 353.348 54.893 353.81 55.383C354.286 55.873 354.944 56.118 355.784 56.118C356.47 56.118 357.107 55.985 357.695 55.719C358.297 55.453 358.759 55.11 359.081 54.69Z" fill="#999999"/>
<path d="M5.395 261.091C4.71033 261.091 4.07767 260.974 3.497 260.74C2.91633 260.506 2.40933 260.177 1.976 259.752C1.55133 259.327 1.21767 258.829 0.975 258.257C0.741 257.685 0.624 257.061 0.624 256.385C0.624 255.718 0.741 255.098 0.975 254.526C1.21767 253.954 1.55133 253.46 1.976 253.044C2.40933 252.619 2.91633 252.29 3.497 252.056C4.07767 251.822 4.71033 251.705 5.395 251.705C6.07967 251.705 6.71233 251.822 7.293 252.056C7.88233 252.29 8.39367 252.619 8.827 253.044C9.26033 253.46 9.594 253.954 9.828 254.526C10.0707 255.098 10.192 255.718 10.192 256.385C10.192 257.061 10.0707 257.685 9.828 258.257C9.594 258.829 9.26033 259.327 8.827 259.752C8.39367 260.177 7.88233 260.506 7.293 260.74C6.71233 260.974 6.07967 261.091 5.395 261.091ZM5.395 260.61C6.201 260.61 6.92467 260.432 7.566 260.077C8.216 259.722 8.73167 259.232 9.113 258.608C9.49433 257.975 9.685 257.243 9.685 256.411C9.685 255.813 9.57667 255.258 9.36 254.747C9.152 254.227 8.853 253.776 8.463 253.395C8.073 253.014 7.618 252.719 7.098 252.511C6.578 252.294 6.01033 252.186 5.395 252.186C4.78833 252.186 4.225 252.294 3.705 252.511C3.185 252.719 2.73 253.014 2.34 253.395C1.95867 253.776 1.65967 254.223 1.443 254.734C1.235 255.245 1.131 255.8 1.131 256.398C1.131 256.996 1.235 257.551 1.443 258.062C1.65967 258.573 1.95867 259.02 2.34 259.401C2.73 259.782 3.18067 260.081 3.692 260.298C4.212 260.506 4.77967 260.61 5.395 260.61ZM5.499 259.401C4.97033 259.401 4.472 259.28 4.004 259.037C3.54467 258.786 3.172 258.435 2.886 257.984C2.6 257.525 2.457 256.992 2.457 256.385C2.457 256.021 2.51767 255.661 2.639 255.306C2.76033 254.942 2.94233 254.613 3.185 254.318C3.42767 254.023 3.73533 253.789 4.108 253.616C4.48067 253.434 4.91833 253.343 5.421 253.343C5.98433 253.343 6.49133 253.469 6.942 253.72C7.39267 253.963 7.71767 254.318 7.917 254.786L7.059 255.059C6.94633 254.799 6.79033 254.604 6.591 254.474C6.40033 254.335 6.19667 254.244 5.98 254.201C5.772 254.149 5.58567 254.123 5.421 254.123C4.96167 254.123 4.58033 254.236 4.277 254.461C3.97367 254.686 3.744 254.972 3.588 255.319C3.44067 255.666 3.367 256.021 3.367 256.385C3.367 256.862 3.47533 257.269 3.692 257.607C3.90867 257.936 4.17733 258.192 4.498 258.374C4.81867 258.547 5.135 258.634 5.447 258.634C5.76767 258.634 6.097 258.547 6.435 258.374C6.773 258.192 7.01133 257.949 7.15 257.646L8.008 257.893C7.92133 258.11 7.76533 258.335 7.54 258.569C7.31467 258.794 7.02433 258.989 6.669 259.154C6.32233 259.319 5.93233 259.401 5.499 259.401ZM15.2869 261V251.77H18.4199C19.3992 251.77 20.2139 251.978 20.8639 252.394C21.5225 252.801 22.0165 253.356 22.3459 254.058C22.6752 254.751 22.8399 255.523 22.8399 256.372C22.8399 257.308 22.6579 258.123 22.2939 258.816C21.9299 259.509 21.4185 260.047 20.7599 260.428C20.1012 260.809 19.3212 261 18.4199 261H15.2869ZM21.9299 256.372C21.9299 255.635 21.7912 254.981 21.5139 254.409C21.2452 253.837 20.8465 253.391 20.3179 253.07C19.7979 252.741 19.1652 252.576 18.4199 252.576H16.1969V260.194H18.4199C19.1825 260.194 19.8239 260.025 20.3439 259.687C20.8639 259.349 21.2582 258.894 21.5269 258.322C21.7955 257.75 21.9299 257.1 21.9299 256.372ZM27.3229 261.13C26.6729 261.13 26.0922 260.97 25.5809 260.649C25.0695 260.328 24.6665 259.899 24.3719 259.362C24.0772 258.825 23.9299 258.235 23.9299 257.594C23.9299 256.961 24.0729 256.381 24.3589 255.852C24.6535 255.323 25.0565 254.903 25.5679 254.591C26.0792 254.27 26.6599 254.11 27.3099 254.11C27.9772 254.11 28.5622 254.27 29.0649 254.591C29.5675 254.912 29.9575 255.336 30.2349 255.865C30.5209 256.385 30.6639 256.957 30.6639 257.581C30.6639 257.72 30.6595 257.837 30.6509 257.932H24.8529C24.8962 258.417 25.0349 258.851 25.2689 259.232C25.5029 259.605 25.8019 259.904 26.1659 260.129C26.5299 260.346 26.9285 260.454 27.3619 260.454C27.8039 260.454 28.2199 260.341 28.6099 260.116C28.9999 259.891 29.2772 259.596 29.4419 259.232L30.2089 259.44C30.0702 259.769 29.8535 260.064 29.5589 260.324C29.2729 260.575 28.9392 260.775 28.5579 260.922C28.1765 261.061 27.7649 261.13 27.3229 261.13ZM24.8269 257.295H29.8319C29.7972 256.81 29.6629 256.381 29.4289 256.008C29.1949 255.627 28.8959 255.332 28.5319 255.124C28.1679 254.907 27.7649 254.799 27.3229 254.799C26.8809 254.799 26.4779 254.907 26.1139 255.124C25.7499 255.332 25.4509 255.627 25.2169 256.008C24.9915 256.381 24.8615 256.81 24.8269 257.295ZM34.2507 261.13C33.6961 261.13 33.1804 261.039 32.7037 260.857C32.2357 260.666 31.8241 260.389 31.4687 260.025L31.8327 259.401C32.2141 259.756 32.5954 260.016 32.9767 260.181C33.3667 260.337 33.7784 260.415 34.2117 260.415C34.7317 260.415 35.1564 260.311 35.4857 260.103C35.8237 259.886 35.9927 259.579 35.9927 259.18C35.9927 258.911 35.9104 258.708 35.7457 258.569C35.5897 258.422 35.3601 258.305 35.0567 258.218C34.7621 258.131 34.4067 258.032 33.9907 257.919C33.5227 257.789 33.1284 257.655 32.8077 257.516C32.4957 257.369 32.2574 257.187 32.0927 256.97C31.9367 256.745 31.8587 256.454 31.8587 256.099C31.8587 255.666 31.9671 255.302 32.1837 255.007C32.4091 254.712 32.7124 254.491 33.0937 254.344C33.4837 254.188 33.9171 254.11 34.3937 254.11C34.9137 254.11 35.3731 254.192 35.7717 254.357C36.1704 254.522 36.4954 254.751 36.7467 255.046L36.3177 255.644C36.0837 255.367 35.7934 255.163 35.4467 255.033C35.1087 254.894 34.7404 254.825 34.3417 254.825C34.0644 254.825 33.8001 254.864 33.5487 254.942C33.2974 255.011 33.0894 255.133 32.9247 255.306C32.7687 255.471 32.6907 255.7 32.6907 255.995C32.6907 256.359 32.8251 256.61 33.0937 256.749C33.3624 256.888 33.7697 257.035 34.3157 257.191C34.8271 257.33 35.2734 257.468 35.6547 257.607C36.0361 257.746 36.3307 257.932 36.5387 258.166C36.7467 258.391 36.8507 258.708 36.8507 259.115C36.8507 259.748 36.6124 260.242 36.1357 260.597C35.6591 260.952 35.0307 261.13 34.2507 261.13ZM38.3119 252.81V251.51H39.1959V252.81H38.3119ZM38.3119 261V254.227H39.1959V261H38.3119ZM43.86 261.091C43.392 261.091 42.963 260.996 42.573 260.805C42.1916 260.614 41.858 260.359 41.572 260.038C41.2946 259.709 41.078 259.336 40.922 258.92C40.766 258.504 40.688 258.075 40.688 257.633C40.688 257 40.8223 256.42 41.091 255.891C41.3596 255.354 41.728 254.925 42.196 254.604C42.6726 254.275 43.2186 254.11 43.834 254.11C44.4146 254.11 44.9173 254.257 45.342 254.552C45.7753 254.847 46.1393 255.211 46.434 255.644V254.227H47.227V261.026C47.227 261.659 47.0753 262.187 46.772 262.612C46.4686 263.037 46.0656 263.357 45.563 263.574C45.0603 263.791 44.51 263.899 43.912 263.899C43.132 263.899 42.5036 263.76 42.027 263.483C41.559 263.206 41.1733 262.833 40.87 262.365L41.416 261.936C41.6846 262.361 42.04 262.677 42.482 262.885C42.9326 263.093 43.4093 263.197 43.912 263.197C44.354 263.197 44.757 263.115 45.121 262.95C45.4936 262.794 45.7883 262.556 46.005 262.235C46.2303 261.914 46.343 261.511 46.343 261.026V259.687C46.083 260.112 45.7276 260.454 45.277 260.714C44.8263 260.965 44.354 261.091 43.86 261.091ZM44.107 260.35C44.4623 260.35 44.8003 260.268 45.121 260.103C45.4416 259.938 45.7103 259.73 45.927 259.479C46.1523 259.219 46.291 258.95 46.343 258.673V256.58C46.213 256.251 46.0266 255.96 45.784 255.709C45.5413 255.449 45.264 255.25 44.952 255.111C44.64 254.964 44.3236 254.89 44.003 254.89C43.5003 254.89 43.067 255.029 42.703 255.306C42.3476 255.575 42.0703 255.921 41.871 256.346C41.6803 256.762 41.585 257.195 41.585 257.646C41.585 258.131 41.6976 258.582 41.923 258.998C42.1483 259.405 42.4516 259.735 42.833 259.986C43.2143 260.229 43.639 260.35 44.107 260.35ZM54.8731 261H53.9891V257.217C53.9891 256.42 53.8678 255.839 53.6251 255.475C53.3911 255.102 53.0271 254.916 52.5331 254.916C52.1864 254.916 51.8441 255.003 51.5061 255.176C51.1681 255.341 50.8691 255.57 50.6091 255.865C50.3578 256.151 50.1758 256.48 50.0631 256.853V261H49.1791V254.227H49.9851V255.761C50.2538 255.267 50.6481 254.868 51.1681 254.565C51.6881 254.262 52.2514 254.11 52.8581 254.11C53.3608 254.11 53.7594 254.231 54.0541 254.474C54.3488 254.708 54.5568 255.046 54.6781 255.488C54.8081 255.921 54.8731 256.437 54.8731 257.035V261ZM59.6832 261.13C59.0332 261.13 58.4525 260.97 57.9412 260.649C57.4299 260.328 57.0269 259.899 56.7322 259.362C56.4375 258.825 56.2902 258.235 56.2902 257.594C56.2902 256.961 56.4332 256.381 56.7192 255.852C57.0139 255.323 57.4169 254.903 57.9282 254.591C58.4395 254.27 59.0202 254.11 59.6702 254.11C60.3375 254.11 60.9225 254.27 61.4252 254.591C61.9279 254.912 62.3179 255.336 62.5952 255.865C62.8812 256.385 63.0242 256.957 63.0242 257.581C63.0242 257.72 63.0199 257.837 63.0112 257.932H57.2132C57.2565 258.417 57.3952 258.851 57.6292 259.232C57.8632 259.605 58.1622 259.904 58.5262 260.129C58.8902 260.346 59.2889 260.454 59.7222 260.454C60.1642 260.454 60.5802 260.341 60.9702 260.116C61.3602 259.891 61.6375 259.596 61.8022 259.232L62.5692 259.44C62.4305 259.769 62.2139 260.064 61.9192 260.324C61.6332 260.575 61.2995 260.775 60.9182 260.922C60.5369 261.061 60.1252 261.13 59.6832 261.13ZM57.1872 257.295H62.1922C62.1575 256.81 62.0232 256.381 61.7892 256.008C61.5552 255.627 61.2562 255.332 60.8922 255.124C60.5282 254.907 60.1252 254.799 59.6832 254.799C59.2412 254.799 58.8382 254.907 58.4742 255.124C58.1102 255.332 57.8112 255.627 57.5772 256.008C57.3519 256.381 57.2219 256.81 57.1872 257.295ZM63.9331 257.633C63.9331 256.992 64.0631 256.407 64.3231 255.878C64.5918 255.341 64.9601 254.912 65.4281 254.591C65.8961 254.27 66.4291 254.11 67.0271 254.11C67.5904 254.11 68.0931 254.262 68.5351 254.565C68.9858 254.86 69.3368 255.219 69.5881 255.644V251.51H70.4721V259.934C70.4721 260.168 70.5761 260.289 70.7841 260.298V261C70.6108 261.026 70.4764 261.035 70.3811 261.026C70.1904 261.017 70.0258 260.948 69.8871 260.818C69.7571 260.679 69.6921 260.523 69.6921 260.35V259.687C69.4234 260.129 69.0594 260.48 68.6001 260.74C68.1408 261 67.6641 261.13 67.1701 261.13C66.7021 261.13 66.2688 261.035 65.8701 260.844C65.4714 260.653 65.1248 260.393 64.8301 260.064C64.5441 259.735 64.3231 259.362 64.1671 258.946C64.0111 258.521 63.9331 258.084 63.9331 257.633ZM69.5881 258.673V256.58C69.4754 256.268 69.2934 255.986 69.0421 255.735C68.7908 255.475 68.5048 255.271 68.1841 255.124C67.8721 254.968 67.5601 254.89 67.2481 254.89C66.7628 254.89 66.3381 255.024 65.9741 255.293C65.6188 255.553 65.3414 255.895 65.1421 256.32C64.9428 256.736 64.8431 257.174 64.8431 257.633C64.8431 258.118 64.9514 258.569 65.1681 258.985C65.3934 259.401 65.6968 259.735 66.0781 259.986C66.4594 260.229 66.8884 260.35 67.3651 260.35C67.6598 260.35 67.9674 260.276 68.2881 260.129C68.6174 259.973 68.9034 259.769 69.1461 259.518C69.3974 259.267 69.5448 258.985 69.5881 258.673ZM75.2425 259.05C75.2425 258.634 75.3638 258.274 75.6065 257.971C75.8491 257.659 76.1828 257.416 76.6075 257.243C77.0408 257.07 77.5391 256.983 78.1025 256.983C78.4318 256.983 78.7741 257.013 79.1295 257.074C79.4848 257.126 79.8011 257.2 80.0785 257.295V256.723C80.0785 256.151 79.9095 255.696 79.5715 255.358C79.2335 255.02 78.7655 254.851 78.1675 254.851C77.8121 254.851 77.4568 254.92 77.1015 255.059C76.7461 255.189 76.3778 255.384 75.9965 255.644L75.6585 255.02C76.1005 254.717 76.5338 254.491 76.9585 254.344C77.3831 254.188 77.8165 254.11 78.2585 254.11C79.0905 254.11 79.7491 254.348 80.2345 254.825C80.7198 255.302 80.9625 255.96 80.9625 256.801V259.934C80.9625 260.168 81.0708 260.289 81.2875 260.298V261C81.0968 261.026 80.9625 261.035 80.8845 261.026C80.6678 261.017 80.5031 260.948 80.3905 260.818C80.2778 260.688 80.2171 260.549 80.2085 260.402L80.1955 259.908C79.8921 260.298 79.4978 260.601 79.0125 260.818C78.5271 261.026 78.0331 261.13 77.5305 261.13C77.0885 261.13 76.6941 261.039 76.3475 260.857C76.0008 260.666 75.7278 260.415 75.5285 260.103C75.3378 259.782 75.2425 259.431 75.2425 259.05ZM79.7795 259.57C79.9788 259.336 80.0785 259.119 80.0785 258.92V257.932C79.4805 257.698 78.8565 257.581 78.2065 257.581C77.5738 257.581 77.0625 257.707 76.6725 257.958C76.2825 258.209 76.0875 258.552 76.0875 258.985C76.0875 259.358 76.2305 259.696 76.5165 259.999C76.8111 260.302 77.2185 260.454 77.7385 260.454C78.1631 260.454 78.5575 260.372 78.9215 260.207C79.2941 260.042 79.5801 259.83 79.7795 259.57ZM88.5665 261H87.6825V257.217C87.6825 256.42 87.5611 255.839 87.3185 255.475C87.0845 255.102 86.7205 254.916 86.2265 254.916C85.8798 254.916 85.5375 255.003 85.1995 255.176C84.8615 255.341 84.5625 255.57 84.3025 255.865C84.0511 256.151 83.8691 256.48 83.7565 256.853V261H82.8725V254.227H83.6785V255.761C83.9471 255.267 84.3415 254.868 84.8615 254.565C85.3815 254.262 85.9448 254.11 86.5515 254.11C87.0541 254.11 87.4528 254.231 87.7475 254.474C88.0421 254.708 88.2501 255.046 88.3715 255.488C88.5015 255.921 88.5665 256.437 88.5665 257.035V261ZM89.9966 257.633C89.9966 256.992 90.1266 256.407 90.3866 255.878C90.6552 255.341 91.0236 254.912 91.4916 254.591C91.9596 254.27 92.4926 254.11 93.0906 254.11C93.6539 254.11 94.1566 254.262 94.5986 254.565C95.0492 254.86 95.4002 255.219 95.6516 255.644V251.51H96.5356V259.934C96.5356 260.168 96.6396 260.289 96.8476 260.298V261C96.6742 261.026 96.5399 261.035 96.4446 261.026C96.2539 261.017 96.0892 260.948 95.9506 260.818C95.8206 260.679 95.7556 260.523 95.7556 260.35V259.687C95.4869 260.129 95.1229 260.48 94.6636 260.74C94.2042 261 93.7276 261.13 93.2336 261.13C92.7656 261.13 92.3322 261.035 91.9336 260.844C91.5349 260.653 91.1882 260.393 90.8936 260.064C90.6076 259.735 90.3866 259.362 90.2306 258.946C90.0746 258.521 89.9966 258.084 89.9966 257.633ZM95.6516 258.673V256.58C95.5389 256.268 95.3569 255.986 95.1056 255.735C94.8542 255.475 94.5682 255.271 94.2476 255.124C93.9356 254.968 93.6236 254.89 93.3116 254.89C92.8262 254.89 92.4016 255.024 92.0376 255.293C91.6822 255.553 91.4049 255.895 91.2056 256.32C91.0062 256.736 90.9066 257.174 90.9066 257.633C90.9066 258.118 91.0149 258.569 91.2316 258.985C91.4569 259.401 91.7602 259.735 92.1416 259.986C92.5229 260.229 92.9519 260.35 93.4286 260.35C93.7232 260.35 94.0309 260.276 94.3516 260.129C94.6809 259.973 94.9669 259.769 95.2096 259.518C95.4609 259.267 95.6082 258.985 95.6516 258.673ZM101.397 257.633C101.397 256.992 101.527 256.407 101.787 255.878C102.056 255.341 102.424 254.912 102.892 254.591C103.36 254.27 103.893 254.11 104.491 254.11C105.054 254.11 105.557 254.262 105.999 254.565C106.45 254.86 106.801 255.219 107.052 255.644V251.51H107.936V259.934C107.936 260.168 108.04 260.289 108.248 260.298V261C108.075 261.026 107.94 261.035 107.845 261.026C107.654 261.017 107.49 260.948 107.351 260.818C107.221 260.679 107.156 260.523 107.156 260.35V259.687C106.887 260.129 106.523 260.48 106.064 260.74C105.605 261 105.128 261.13 104.634 261.13C104.166 261.13 103.733 261.035 103.334 260.844C102.935 260.653 102.589 260.393 102.294 260.064C102.008 259.735 101.787 259.362 101.631 258.946C101.475 258.521 101.397 258.084 101.397 257.633ZM107.052 258.673V256.58C106.939 256.268 106.757 255.986 106.506 255.735C106.255 255.475 105.969 255.271 105.648 255.124C105.336 254.968 105.024 254.89 104.712 254.89C104.227 254.89 103.802 255.024 103.438 255.293C103.083 255.553 102.805 255.895 102.606 256.32C102.407 256.736 102.307 257.174 102.307 257.633C102.307 258.118 102.415 258.569 102.632 258.985C102.857 259.401 103.161 259.735 103.542 259.986C103.923 260.229 104.352 260.35 104.829 260.35C105.124 260.35 105.431 260.276 105.752 260.129C106.081 259.973 106.367 259.769 106.61 259.518C106.861 259.267 107.009 258.985 107.052 258.673ZM112.864 261.13C112.214 261.13 111.633 260.97 111.122 260.649C110.611 260.328 110.208 259.899 109.913 259.362C109.618 258.825 109.471 258.235 109.471 257.594C109.471 256.961 109.614 256.381 109.9 255.852C110.195 255.323 110.598 254.903 111.109 254.591C111.62 254.27 112.201 254.11 112.851 254.11C113.518 254.11 114.103 254.27 114.606 254.591C115.109 254.912 115.499 255.336 115.776 255.865C116.062 256.385 116.205 256.957 116.205 257.581C116.205 257.72 116.201 257.837 116.192 257.932H110.394C110.437 258.417 110.576 258.851 110.81 259.232C111.044 259.605 111.343 259.904 111.707 260.129C112.071 260.346 112.47 260.454 112.903 260.454C113.345 260.454 113.761 260.341 114.151 260.116C114.541 259.891 114.818 259.596 114.983 259.232L115.75 259.44C115.611 259.769 115.395 260.064 115.1 260.324C114.814 260.575 114.48 260.775 114.099 260.922C113.718 261.061 113.306 261.13 112.864 261.13ZM110.368 257.295H115.373C115.338 256.81 115.204 256.381 114.97 256.008C114.736 255.627 114.437 255.332 114.073 255.124C113.709 254.907 113.306 254.799 112.864 254.799C112.422 254.799 112.019 254.907 111.655 255.124C111.291 255.332 110.992 255.627 110.758 256.008C110.533 256.381 110.403 256.81 110.368 257.295ZM119.406 261L116.663 254.227H117.586L119.9 260.116L122.227 254.227H123.098L120.355 261H119.406ZM127.019 261.13C126.369 261.13 125.788 260.97 125.277 260.649C124.766 260.328 124.363 259.899 124.068 259.362C123.773 258.825 123.626 258.235 123.626 257.594C123.626 256.961 123.769 256.381 124.055 255.852C124.35 255.323 124.753 254.903 125.264 254.591C125.775 254.27 126.356 254.11 127.006 254.11C127.673 254.11 128.258 254.27 128.761 254.591C129.264 254.912 129.654 255.336 129.931 255.865C130.217 256.385 130.36 256.957 130.36 257.581C130.36 257.72 130.356 257.837 130.347 257.932H124.549C124.592 258.417 124.731 258.851 124.965 259.232C125.199 259.605 125.498 259.904 125.862 260.129C126.226 260.346 126.625 260.454 127.058 260.454C127.5 260.454 127.916 260.341 128.306 260.116C128.696 259.891 128.973 259.596 129.138 259.232L129.905 259.44C129.766 259.769 129.55 260.064 129.255 260.324C128.969 260.575 128.635 260.775 128.254 260.922C127.873 261.061 127.461 261.13 127.019 261.13ZM124.523 257.295H129.528C129.493 256.81 129.359 256.381 129.125 256.008C128.891 255.627 128.592 255.332 128.228 255.124C127.864 254.907 127.461 254.799 127.019 254.799C126.577 254.799 126.174 254.907 125.81 255.124C125.446 255.332 125.147 255.627 124.913 256.008C124.688 256.381 124.558 256.81 124.523 257.295ZM131.763 251.51H132.647V259.466C132.647 259.804 132.703 260.025 132.816 260.129C132.937 260.233 133.089 260.285 133.271 260.285C133.427 260.285 133.583 260.268 133.739 260.233C133.904 260.198 134.038 260.164 134.142 260.129L134.298 260.844C134.133 260.913 133.93 260.97 133.687 261.013C133.453 261.056 133.249 261.078 133.076 261.078C132.677 261.078 132.357 260.961 132.114 260.727C131.88 260.493 131.763 260.172 131.763 259.765V251.51ZM138.152 261.13C137.502 261.13 136.921 260.97 136.41 260.649C135.907 260.328 135.513 259.904 135.227 259.375C134.941 258.838 134.798 258.257 134.798 257.633C134.798 257 134.941 256.42 135.227 255.891C135.522 255.354 135.92 254.925 136.423 254.604C136.934 254.275 137.511 254.11 138.152 254.11C138.802 254.11 139.378 254.275 139.881 254.604C140.392 254.925 140.791 255.354 141.077 255.891C141.372 256.42 141.519 257 141.519 257.633C141.519 258.257 141.376 258.838 141.09 259.375C140.804 259.904 140.405 260.328 139.894 260.649C139.391 260.97 138.811 261.13 138.152 261.13ZM135.695 257.646C135.695 258.149 135.803 258.608 136.02 259.024C136.245 259.431 136.544 259.756 136.917 259.999C137.29 260.233 137.701 260.35 138.152 260.35C138.603 260.35 139.014 260.229 139.387 259.986C139.76 259.743 140.059 259.414 140.284 258.998C140.509 258.582 140.622 258.123 140.622 257.62C140.622 257.117 140.509 256.658 140.284 256.242C140.059 255.826 139.76 255.497 139.387 255.254C139.014 255.011 138.603 254.89 138.152 254.89C137.71 254.89 137.303 255.016 136.93 255.267C136.557 255.51 136.258 255.839 136.033 256.255C135.808 256.671 135.695 257.135 135.695 257.646ZM146.455 261.13C145.892 261.13 145.385 260.983 144.934 260.688C144.492 260.393 144.141 260.029 143.881 259.596V263.769H142.997V254.227H143.79V255.54C144.059 255.115 144.414 254.773 144.856 254.513C145.307 254.244 145.792 254.11 146.312 254.11C146.78 254.11 147.209 254.21 147.599 254.409C147.989 254.6 148.327 254.86 148.613 255.189C148.908 255.518 149.133 255.895 149.289 256.32C149.445 256.736 149.523 257.169 149.523 257.62C149.523 258.253 149.393 258.838 149.133 259.375C148.882 259.904 148.522 260.328 148.054 260.649C147.595 260.97 147.062 261.13 146.455 261.13ZM146.208 260.35C146.702 260.35 147.127 260.22 147.482 259.96C147.846 259.691 148.128 259.349 148.327 258.933C148.527 258.517 148.626 258.079 148.626 257.62C148.626 257.135 148.514 256.684 148.288 256.268C148.063 255.852 147.76 255.518 147.378 255.267C147.006 255.016 146.581 254.89 146.104 254.89C145.81 254.89 145.498 254.968 145.168 255.124C144.848 255.271 144.562 255.475 144.31 255.735C144.068 255.986 143.925 256.264 143.881 256.567V258.647C144.081 259.124 144.393 259.527 144.817 259.856C145.242 260.185 145.706 260.35 146.208 260.35ZM153.946 261.13C153.296 261.13 152.715 260.97 152.204 260.649C151.693 260.328 151.29 259.899 150.995 259.362C150.7 258.825 150.553 258.235 150.553 257.594C150.553 256.961 150.696 256.381 150.982 255.852C151.277 255.323 151.68 254.903 152.191 254.591C152.702 254.27 153.283 254.11 153.933 254.11C154.6 254.11 155.185 254.27 155.688 254.591C156.191 254.912 156.581 255.336 156.858 255.865C157.144 256.385 157.287 256.957 157.287 257.581C157.287 257.72 157.283 257.837 157.274 257.932H151.476C151.519 258.417 151.658 258.851 151.892 259.232C152.126 259.605 152.425 259.904 152.789 260.129C153.153 260.346 153.552 260.454 153.985 260.454C154.427 260.454 154.843 260.341 155.233 260.116C155.623 259.891 155.9 259.596 156.065 259.232L156.832 259.44C156.693 259.769 156.477 260.064 156.182 260.324C155.896 260.575 155.562 260.775 155.181 260.922C154.8 261.061 154.388 261.13 153.946 261.13ZM151.45 257.295H156.455C156.42 256.81 156.286 256.381 156.052 256.008C155.818 255.627 155.519 255.332 155.155 255.124C154.791 254.907 154.388 254.799 153.946 254.799C153.504 254.799 153.101 254.907 152.737 255.124C152.373 255.332 152.074 255.627 151.84 256.008C151.615 256.381 151.485 256.81 151.45 257.295ZM158.196 257.633C158.196 256.992 158.326 256.407 158.586 255.878C158.854 255.341 159.223 254.912 159.691 254.591C160.159 254.27 160.692 254.11 161.29 254.11C161.853 254.11 162.356 254.262 162.798 254.565C163.248 254.86 163.599 255.219 163.851 255.644V251.51H164.735V259.934C164.735 260.168 164.839 260.289 165.047 260.298V261C164.873 261.026 164.739 261.035 164.644 261.026C164.453 261.017 164.288 260.948 164.15 260.818C164.02 260.679 163.955 260.523 163.955 260.35V259.687C163.686 260.129 163.322 260.48 162.863 260.74C162.403 261 161.927 261.13 161.433 261.13C160.965 261.13 160.531 261.035 160.133 260.844C159.734 260.653 159.387 260.393 159.093 260.064C158.807 259.735 158.586 259.362 158.43 258.946C158.274 258.521 158.196 258.084 158.196 257.633ZM163.851 258.673V256.58C163.738 256.268 163.556 255.986 163.305 255.735C163.053 255.475 162.767 255.271 162.447 255.124C162.135 254.968 161.823 254.89 161.511 254.89C161.025 254.89 160.601 255.024 160.237 255.293C159.881 255.553 159.604 255.895 159.405 256.32C159.205 256.736 159.106 257.174 159.106 257.633C159.106 258.118 159.214 258.569 159.431 258.985C159.656 259.401 159.959 259.735 160.341 259.986C160.722 260.229 161.151 260.35 161.628 260.35C161.922 260.35 162.23 260.276 162.551 260.129C162.88 259.973 163.166 259.769 163.409 259.518C163.66 259.267 163.807 258.985 163.851 258.673ZM173.366 261.13C172.838 261.13 172.348 260.996 171.897 260.727C171.447 260.45 171.096 260.103 170.844 259.687V261H170.051V251.51H170.935V255.644C171.239 255.185 171.603 254.816 172.027 254.539C172.452 254.253 172.946 254.11 173.509 254.11C173.986 254.11 174.411 254.21 174.783 254.409C175.165 254.608 175.49 254.877 175.758 255.215C176.027 255.544 176.231 255.921 176.369 256.346C176.508 256.762 176.577 257.191 176.577 257.633C176.577 258.266 176.434 258.846 176.148 259.375C175.871 259.904 175.49 260.328 175.004 260.649C174.519 260.97 173.973 261.13 173.366 261.13ZM173.158 260.35C173.652 260.35 174.086 260.22 174.458 259.96C174.84 259.7 175.139 259.366 175.355 258.959C175.572 258.543 175.68 258.101 175.68 257.633C175.68 257.156 175.576 256.71 175.368 256.294C175.169 255.878 174.887 255.54 174.523 255.28C174.159 255.02 173.739 254.89 173.262 254.89C172.734 254.89 172.266 255.059 171.858 255.397C171.46 255.735 171.152 256.129 170.935 256.58V258.686C170.979 258.998 171.122 259.28 171.364 259.531C171.607 259.782 171.893 259.982 172.222 260.129C172.552 260.276 172.864 260.35 173.158 260.35ZM178.236 263.08C178.357 263.089 178.474 263.093 178.587 263.093C178.7 263.102 178.782 263.097 178.834 263.08C178.938 263.071 179.033 263.011 179.12 262.898C179.215 262.794 179.328 262.595 179.458 262.3C179.597 262.014 179.783 261.581 180.017 261L177.066 254.227H178.002L180.485 260.09L182.773 254.227H183.657L180.147 262.963C180.052 263.214 179.891 263.431 179.666 263.613C179.441 263.795 179.142 263.89 178.769 263.899C178.691 263.908 178.609 263.908 178.522 263.899C178.435 263.899 178.34 263.89 178.236 263.873V263.08ZM188.032 261V251.77H191.165C192.144 251.77 192.959 251.978 193.609 252.394C194.268 252.801 194.762 253.356 195.091 254.058C195.42 254.751 195.585 255.523 195.585 256.372C195.585 257.308 195.403 258.123 195.039 258.816C194.675 259.509 194.164 260.047 193.505 260.428C192.846 260.809 192.066 261 191.165 261H188.032ZM194.675 256.372C194.675 255.635 194.536 254.981 194.259 254.409C193.99 253.837 193.592 253.391 193.063 253.07C192.543 252.741 191.91 252.576 191.165 252.576H188.942V260.194H191.165C191.928 260.194 192.569 260.025 193.089 259.687C193.609 259.349 194.003 258.894 194.272 258.322C194.541 257.75 194.675 257.1 194.675 256.372ZM196.546 259.05C196.546 258.634 196.668 258.274 196.91 257.971C197.153 257.659 197.487 257.416 197.911 257.243C198.345 257.07 198.843 256.983 199.406 256.983C199.736 256.983 200.078 257.013 200.433 257.074C200.789 257.126 201.105 257.2 201.382 257.295V256.723C201.382 256.151 201.213 255.696 200.875 255.358C200.537 255.02 200.069 254.851 199.471 254.851C199.116 254.851 198.761 254.92 198.405 255.059C198.05 255.189 197.682 255.384 197.3 255.644L196.962 255.02C197.404 254.717 197.838 254.491 198.262 254.344C198.687 254.188 199.12 254.11 199.562 254.11C200.394 254.11 201.053 254.348 201.538 254.825C202.024 255.302 202.266 255.96 202.266 256.801V259.934C202.266 260.168 202.375 260.289 202.591 260.298V261C202.401 261.026 202.266 261.035 202.188 261.026C201.972 261.017 201.807 260.948 201.694 260.818C201.582 260.688 201.521 260.549 201.512 260.402L201.499 259.908C201.196 260.298 200.802 260.601 200.316 260.818C199.831 261.026 199.337 261.13 198.834 261.13C198.392 261.13 197.998 261.039 197.651 260.857C197.305 260.666 197.032 260.415 196.832 260.103C196.642 259.782 196.546 259.431 196.546 259.05ZM201.083 259.57C201.283 259.336 201.382 259.119 201.382 258.92V257.932C200.784 257.698 200.16 257.581 199.51 257.581C198.878 257.581 198.366 257.707 197.976 257.958C197.586 258.209 197.391 258.552 197.391 258.985C197.391 259.358 197.534 259.696 197.82 259.999C198.115 260.302 198.522 260.454 199.042 260.454C199.467 260.454 199.861 260.372 200.225 260.207C200.598 260.042 200.884 259.83 201.083 259.57ZM209.87 261H208.986V257.217C208.986 256.42 208.865 255.839 208.622 255.475C208.388 255.102 208.024 254.916 207.53 254.916C207.184 254.916 206.841 255.003 206.503 255.176C206.165 255.341 205.866 255.57 205.606 255.865C205.355 256.151 205.173 256.48 205.06 256.853V261H204.176V254.227H204.982V255.761C205.251 255.267 205.645 254.868 206.165 254.565C206.685 254.262 207.249 254.11 207.855 254.11C208.358 254.11 208.757 254.231 209.051 254.474C209.346 254.708 209.554 255.046 209.675 255.488C209.805 255.921 209.87 256.437 209.87 257.035V261ZM211.755 252.81V251.51H212.639V252.81H211.755ZM211.755 261V254.227H212.639V261H211.755ZM217.511 261.13C216.861 261.13 216.281 260.97 215.769 260.649C215.258 260.328 214.855 259.899 214.56 259.362C214.266 258.825 214.118 258.235 214.118 257.594C214.118 256.961 214.261 256.381 214.547 255.852C214.842 255.323 215.245 254.903 215.756 254.591C216.268 254.27 216.848 254.11 217.498 254.11C218.166 254.11 218.751 254.27 219.253 254.591C219.756 254.912 220.146 255.336 220.423 255.865C220.709 256.385 220.852 256.957 220.852 257.581C220.852 257.72 220.848 257.837 220.839 257.932H215.041C215.085 258.417 215.223 258.851 215.457 259.232C215.691 259.605 215.99 259.904 216.354 260.129C216.718 260.346 217.117 260.454 217.55 260.454C217.992 260.454 218.408 260.341 218.798 260.116C219.188 259.891 219.466 259.596 219.63 259.232L220.397 259.44C220.259 259.769 220.042 260.064 219.747 260.324C219.461 260.575 219.128 260.775 218.746 260.922C218.365 261.061 217.953 261.13 217.511 261.13ZM215.015 257.295H220.02C219.986 256.81 219.851 256.381 219.617 256.008C219.383 255.627 219.084 255.332 218.72 255.124C218.356 254.907 217.953 254.799 217.511 254.799C217.069 254.799 216.666 254.907 216.302 255.124C215.938 255.332 215.639 255.627 215.405 256.008C215.18 256.381 215.05 256.81 215.015 257.295ZM222.255 251.51H223.139V259.466C223.139 259.804 223.196 260.025 223.308 260.129C223.43 260.233 223.581 260.285 223.763 260.285C223.919 260.285 224.075 260.268 224.231 260.233C224.396 260.198 224.53 260.164 224.634 260.129L224.79 260.844C224.626 260.913 224.422 260.97 224.179 261.013C223.945 261.056 223.742 261.078 223.568 261.078C223.17 261.078 222.849 260.961 222.606 260.727C222.372 260.493 222.255 260.172 222.255 259.765V251.51ZM228.86 261V251.783H229.77V257.139L234.853 251.77H235.854L232.084 255.826L236.049 261H235.022L231.499 256.372L229.77 258.166V261H228.86ZM242.726 261H241.842V257.217C241.842 255.683 241.322 254.916 240.282 254.916C239.944 254.916 239.614 255.003 239.294 255.176C238.973 255.341 238.687 255.57 238.436 255.865C238.193 256.151 238.02 256.48 237.916 256.853V261H237.032V251.51H237.916V255.761C238.184 255.258 238.557 254.86 239.034 254.565C239.519 254.262 240.035 254.11 240.581 254.11C241.101 254.11 241.517 254.236 241.829 254.487C242.141 254.73 242.366 255.072 242.505 255.514C242.652 255.947 242.726 256.454 242.726 257.035V261ZM247.536 261.13C246.886 261.13 246.305 260.97 245.794 260.649C245.282 260.328 244.879 259.899 244.585 259.362C244.29 258.825 244.143 258.235 244.143 257.594C244.143 256.961 244.286 256.381 244.572 255.852C244.866 255.323 245.269 254.903 245.781 254.591C246.292 254.27 246.873 254.11 247.523 254.11C248.19 254.11 248.775 254.27 249.278 254.591C249.78 254.912 250.17 255.336 250.448 255.865C250.734 256.385 250.877 256.957 250.877 257.581C250.877 257.72 250.872 257.837 250.864 257.932H245.066C245.109 258.417 245.248 258.851 245.482 259.232C245.716 259.605 246.015 259.904 246.379 260.129C246.743 260.346 247.141 260.454 247.575 260.454C248.017 260.454 248.433 260.341 248.823 260.116C249.213 259.891 249.49 259.596 249.655 259.232L250.422 259.44C250.283 259.769 250.066 260.064 249.772 260.324C249.486 260.575 249.152 260.775 248.771 260.922C248.389 261.061 247.978 261.13 247.536 261.13ZM245.04 257.295H250.045C250.01 256.81 249.876 256.381 249.642 256.008C249.408 255.627 249.109 255.332 248.745 255.124C248.381 254.907 247.978 254.799 247.536 254.799C247.094 254.799 246.691 254.907 246.327 255.124C245.963 255.332 245.664 255.627 245.43 256.008C245.204 256.381 245.074 256.81 245.04 257.295ZM255.621 255.007C255.031 255.024 254.511 255.189 254.061 255.501C253.619 255.813 253.307 256.242 253.125 256.788V261H252.241V254.227H253.073V255.852C253.307 255.375 253.614 254.99 253.996 254.695C254.386 254.4 254.797 254.236 255.231 254.201C255.317 254.192 255.391 254.188 255.452 254.188C255.512 254.188 255.569 254.192 255.621 254.201V255.007ZM259.021 261.13C258.467 261.13 257.951 261.039 257.474 260.857C257.006 260.666 256.595 260.389 256.239 260.025L256.603 259.401C256.985 259.756 257.366 260.016 257.747 260.181C258.137 260.337 258.549 260.415 258.982 260.415C259.502 260.415 259.927 260.311 260.256 260.103C260.594 259.886 260.763 259.579 260.763 259.18C260.763 258.911 260.681 258.708 260.516 258.569C260.36 258.422 260.131 258.305 259.827 258.218C259.533 258.131 259.177 258.032 258.761 257.919C258.293 257.789 257.899 257.655 257.578 257.516C257.266 257.369 257.028 257.187 256.863 256.97C256.707 256.745 256.629 256.454 256.629 256.099C256.629 255.666 256.738 255.302 256.954 255.007C257.18 254.712 257.483 254.491 257.864 254.344C258.254 254.188 258.688 254.11 259.164 254.11C259.684 254.11 260.144 254.192 260.542 254.357C260.941 254.522 261.266 254.751 261.517 255.046L261.088 255.644C260.854 255.367 260.564 255.163 260.217 255.033C259.879 254.894 259.511 254.825 259.112 254.825C258.835 254.825 258.571 254.864 258.319 254.942C258.068 255.011 257.86 255.133 257.695 255.306C257.539 255.471 257.461 255.7 257.461 255.995C257.461 256.359 257.596 256.61 257.864 256.749C258.133 256.888 258.54 257.035 259.086 257.191C259.598 257.33 260.044 257.468 260.425 257.607C260.807 257.746 261.101 257.932 261.309 258.166C261.517 258.391 261.621 258.708 261.621 259.115C261.621 259.748 261.383 260.242 260.906 260.597C260.43 260.952 259.801 261.13 259.021 261.13ZM265.968 261.13C265.318 261.13 264.738 260.97 264.226 260.649C263.724 260.328 263.329 259.904 263.043 259.375C262.757 258.838 262.614 258.257 262.614 257.633C262.614 257 262.757 256.42 263.043 255.891C263.338 255.354 263.737 254.925 264.239 254.604C264.751 254.275 265.327 254.11 265.968 254.11C266.618 254.11 267.195 254.275 267.697 254.604C268.209 254.925 268.607 255.354 268.893 255.891C269.188 256.42 269.335 257 269.335 257.633C269.335 258.257 269.192 258.838 268.906 259.375C268.62 259.904 268.222 260.328 267.71 260.649C267.208 260.97 266.627 261.13 265.968 261.13ZM263.511 257.646C263.511 258.149 263.62 258.608 263.836 259.024C264.062 259.431 264.361 259.756 264.733 259.999C265.106 260.233 265.518 260.35 265.968 260.35C266.419 260.35 266.831 260.229 267.203 259.986C267.576 259.743 267.875 259.414 268.1 258.998C268.326 258.582 268.438 258.123 268.438 257.62C268.438 257.117 268.326 256.658 268.1 256.242C267.875 255.826 267.576 255.497 267.203 255.254C266.831 255.011 266.419 254.89 265.968 254.89C265.526 254.89 265.119 255.016 264.746 255.267C264.374 255.51 264.075 255.839 263.849 256.255C263.624 256.671 263.511 257.135 263.511 257.646ZM276.508 261H275.624V257.217C275.624 256.42 275.503 255.839 275.26 255.475C275.026 255.102 274.662 254.916 274.168 254.916C273.821 254.916 273.479 255.003 273.141 255.176C272.803 255.341 272.504 255.57 272.244 255.865C271.993 256.151 271.811 256.48 271.698 256.853V261H270.814V254.227H271.62V255.761C271.889 255.267 272.283 254.868 272.803 254.565C273.323 254.262 273.886 254.11 274.493 254.11C274.996 254.11 275.394 254.231 275.689 254.474C275.984 254.708 276.192 255.046 276.313 255.488C276.443 255.921 276.508 256.437 276.508 257.035V261ZM281.318 261.13C280.668 261.13 280.087 260.97 279.576 260.649C279.065 260.328 278.662 259.899 278.367 259.362C278.072 258.825 277.925 258.235 277.925 257.594C277.925 256.961 278.068 256.381 278.354 255.852C278.649 255.323 279.052 254.903 279.563 254.591C280.074 254.27 280.655 254.11 281.305 254.11C281.972 254.11 282.557 254.27 283.06 254.591C283.563 254.912 283.953 255.336 284.23 255.865C284.516 256.385 284.659 256.957 284.659 257.581C284.659 257.72 284.655 257.837 284.646 257.932H278.848C278.891 258.417 279.03 258.851 279.264 259.232C279.498 259.605 279.797 259.904 280.161 260.129C280.525 260.346 280.924 260.454 281.357 260.454C281.799 260.454 282.215 260.341 282.605 260.116C282.995 259.891 283.272 259.596 283.437 259.232L284.204 259.44C284.065 259.769 283.849 260.064 283.554 260.324C283.268 260.575 282.934 260.775 282.553 260.922C282.172 261.061 281.76 261.13 281.318 261.13ZM278.822 257.295H283.827C283.792 256.81 283.658 256.381 283.424 256.008C283.19 255.627 282.891 255.332 282.527 255.124C282.163 254.907 281.76 254.799 281.318 254.799C280.876 254.799 280.473 254.907 280.109 255.124C279.745 255.332 279.446 255.627 279.212 256.008C278.987 256.381 278.857 256.81 278.822 257.295ZM291.717 261H290.833V257.217C290.833 256.42 290.712 255.839 290.469 255.475C290.235 255.102 289.871 254.916 289.377 254.916C289.03 254.916 288.688 255.003 288.35 255.176C288.012 255.341 287.713 255.57 287.453 255.865C287.202 256.151 287.02 256.48 286.907 256.853V261H286.023V254.227H286.829V255.761C287.098 255.267 287.492 254.868 288.012 254.565C288.532 254.262 289.095 254.11 289.702 254.11C290.205 254.11 290.603 254.231 290.898 254.474C291.193 254.708 291.401 255.046 291.522 255.488C291.652 255.921 291.717 256.437 291.717 257.035V261ZM295.825 261.13C295.27 261.13 294.755 261.039 294.278 260.857C293.81 260.666 293.398 260.389 293.043 260.025L293.407 259.401C293.788 259.756 294.17 260.016 294.551 260.181C294.941 260.337 295.353 260.415 295.786 260.415C296.306 260.415 296.731 260.311 297.06 260.103C297.398 259.886 297.567 259.579 297.567 259.18C297.567 258.911 297.485 258.708 297.32 258.569C297.164 258.422 296.934 258.305 296.631 258.218C296.336 258.131 295.981 258.032 295.565 257.919C295.097 257.789 294.703 257.655 294.382 257.516C294.07 257.369 293.832 257.187 293.667 256.97C293.511 256.745 293.433 256.454 293.433 256.099C293.433 255.666 293.541 255.302 293.758 255.007C293.983 254.712 294.287 254.491 294.668 254.344C295.058 254.188 295.491 254.11 295.968 254.11C296.488 254.11 296.947 254.192 297.346 254.357C297.745 254.522 298.07 254.751 298.321 255.046L297.892 255.644C297.658 255.367 297.368 255.163 297.021 255.033C296.683 254.894 296.315 254.825 295.916 254.825C295.639 254.825 295.374 254.864 295.123 254.942C294.872 255.011 294.664 255.133 294.499 255.306C294.343 255.471 294.265 255.7 294.265 255.995C294.265 256.359 294.399 256.61 294.668 256.749C294.937 256.888 295.344 257.035 295.89 257.191C296.401 257.33 296.848 257.468 297.229 257.607C297.61 257.746 297.905 257.932 298.113 258.166C298.321 258.391 298.425 258.708 298.425 259.115C298.425 259.748 298.187 260.242 297.71 260.597C297.233 260.952 296.605 261.13 295.825 261.13Z" fill="#CCCCCC"/>
</svg>
