<svg width="223" height="40" viewBox="0 0 223 40" fill="none" xmlns="http://www.w3.org/2000/svg">
<rect width="139" height="40" fill="#111111"/>
<path d="M10.516 32V7.86H20.75C21.8607 7.86 22.8807 8.08667 23.81 8.54C24.762 8.99333 25.578 9.60533 26.258 10.376C26.938 11.1467 27.4707 12.008 27.856 12.96C28.2413 13.912 28.434 14.8867 28.434 15.884C28.434 17.244 28.1167 18.536 27.482 19.76C26.8473 20.984 25.9633 21.9813 24.83 22.752C23.7193 23.5227 22.416 23.908 20.92 23.908H15.208V32H10.516ZM15.208 19.794H20.648C21.5093 19.794 22.2233 19.4427 22.79 18.74C23.3793 18.0147 23.674 17.0627 23.674 15.884C23.674 14.6373 23.3453 13.674 22.688 12.994C22.0307 12.314 21.2827 11.974 20.444 11.974H15.208V19.794ZM39.1544 32.34C37.2277 32.34 35.5617 31.9207 34.1564 31.082C32.7737 30.2433 31.697 29.1327 30.9264 27.75C30.1557 26.3447 29.7704 24.826 29.7704 23.194C29.7704 21.5167 30.1444 19.9753 30.8924 18.57C31.663 17.142 32.751 16.0087 34.1564 15.17C35.5617 14.3087 37.239 13.878 39.1884 13.878C41.1377 13.878 42.8037 14.3087 44.1864 15.17C45.569 16.0087 46.623 17.1307 47.3484 18.536C48.0964 19.9187 48.4704 21.4147 48.4704 23.024C48.4704 23.6133 48.4364 24.1233 48.3684 24.554H34.5984C34.7117 25.9367 35.2217 27.0247 36.1284 27.818C37.0577 28.6113 38.123 29.008 39.3244 29.008C40.231 29.008 41.081 28.7927 41.8744 28.362C42.6904 27.9087 43.2457 27.3193 43.5404 26.594L47.4504 27.682C46.793 29.042 45.739 30.164 44.2884 31.048C42.8377 31.9093 41.1264 32.34 39.1544 32.34ZM34.4964 21.664H43.8124C43.6764 20.3267 43.1664 19.25 42.2824 18.434C41.421 17.5953 40.367 17.176 39.1204 17.176C37.8964 17.176 36.8424 17.5953 35.9584 18.434C35.097 19.25 34.6097 20.3267 34.4964 21.664ZM61.8539 18.128C60.4712 18.128 59.2359 18.4 58.1479 18.944C57.0599 19.4653 56.2779 20.2247 55.8019 21.222V32H51.2459V14.184H55.4279V17.992C56.0399 16.768 56.8332 15.8047 57.8079 15.102C58.8052 14.3993 59.8479 14.014 60.9359 13.946C61.4119 13.946 61.7179 13.9573 61.8539 13.98V18.128ZM70.9563 32.34C69.4376 32.34 67.987 32.0907 66.6043 31.592C65.2216 31.0933 64.0316 30.3567 63.0343 29.382L64.6663 26.424C65.7316 27.2853 66.7743 27.92 67.7943 28.328C68.8143 28.736 69.8116 28.94 70.7863 28.94C71.6703 28.94 72.373 28.7813 72.8943 28.464C73.4383 28.1467 73.7103 27.6707 73.7103 27.036C73.7103 26.3787 73.3816 25.9367 72.7243 25.71C72.067 25.4607 71.149 25.1547 69.9703 24.792C68.6556 24.384 67.5563 23.9647 66.6723 23.534C65.7883 23.1033 65.1196 22.582 64.6663 21.97C64.2356 21.358 64.0203 20.5647 64.0203 19.59C64.0203 17.8447 64.6776 16.4507 65.9923 15.408C67.307 14.3653 69.0523 13.844 71.2283 13.844C72.4976 13.844 73.699 14.048 74.8323 14.456C75.9656 14.8413 76.997 15.476 77.9263 16.36L76.0903 19.25C74.345 17.89 72.6563 17.21 71.0243 17.21C70.299 17.21 69.653 17.346 69.0863 17.618C68.5423 17.89 68.2703 18.366 68.2703 19.046C68.2703 19.6807 68.531 20.134 69.0523 20.406C69.5963 20.678 70.4123 20.9727 71.5003 21.29C72.9056 21.7207 74.0956 22.14 75.0703 22.548C76.0676 22.956 76.8156 23.4773 77.3143 24.112C77.8356 24.7467 78.0963 25.608 78.0963 26.696C78.0963 28.464 77.4503 29.8467 76.1583 30.844C74.8663 31.8413 73.1323 32.34 70.9563 32.34ZM89.4571 32.34C87.5304 32.34 85.8644 31.9207 84.4591 31.082C83.0764 30.2433 81.9998 29.1327 81.2291 27.75C80.4584 26.3447 80.0731 24.826 80.0731 23.194C80.0731 21.5167 80.4471 19.9753 81.1951 18.57C81.9658 17.142 83.0538 16.0087 84.4591 15.17C85.8644 14.3087 87.5418 13.878 89.4911 13.878C91.4404 13.878 93.1064 14.3087 94.4891 15.17C95.8718 16.0087 96.9258 17.1307 97.6511 18.536C98.3991 19.9187 98.7731 21.4147 98.7731 23.024C98.7731 23.6133 98.7391 24.1233 98.6711 24.554H84.9011C85.0144 25.9367 85.5244 27.0247 86.4311 27.818C87.3604 28.6113 88.4258 29.008 89.6271 29.008C90.5338 29.008 91.3838 28.7927 92.1771 28.362C92.9931 27.9087 93.5484 27.3193 93.8431 26.594L97.7531 27.682C97.0958 29.042 96.0418 30.164 94.5911 31.048C93.1404 31.9093 91.4291 32.34 89.4571 32.34ZM84.7991 21.664H94.1151C93.9791 20.3267 93.4691 19.25 92.5851 18.434C91.7238 17.5953 90.6698 17.176 89.4231 17.176C88.1991 17.176 87.1451 17.5953 86.2611 18.434C85.3998 19.25 84.9124 20.3267 84.7991 21.664ZM118.107 32H113.551V22.004C113.551 20.576 113.301 19.5333 112.803 18.876C112.304 18.2187 111.613 17.89 110.729 17.89C110.117 17.89 109.493 18.0487 108.859 18.366C108.247 18.6833 107.691 19.1253 107.193 19.692C106.694 20.236 106.331 20.8707 106.105 21.596V32H101.549V14.184H105.663V17.482C106.32 16.3713 107.272 15.4987 108.519 14.864C109.765 14.2067 111.171 13.878 112.735 13.878C113.845 13.878 114.752 14.082 115.455 14.49C116.157 14.8753 116.701 15.408 117.087 16.088C117.472 16.7453 117.733 17.4933 117.869 18.332C118.027 19.1707 118.107 20.0207 118.107 20.882V32ZM132.645 31.082C132.033 31.354 131.273 31.626 130.367 31.898C129.483 32.17 128.565 32.306 127.613 32.306C126.774 32.306 126.003 32.1587 125.301 31.864C124.598 31.5693 124.031 31.1047 123.601 30.47C123.193 29.8127 122.989 28.9627 122.989 27.92V17.686H120.643V14.184H122.989V8.404H127.545V14.184H131.285V17.686H127.545V26.39C127.545 27.002 127.703 27.444 128.021 27.716C128.361 27.988 128.769 28.124 129.245 28.124C129.721 28.124 130.185 28.0447 130.639 27.886C131.092 27.7273 131.455 27.5913 131.727 27.478L132.645 31.082Z" fill="white"/>
<path d="M163.075 25.778C163.075 27.138 162.724 28.2827 162.021 29.212C161.319 30.1187 160.367 30.81 159.165 31.286C157.987 31.762 156.695 32 155.289 32H143.627V7.86H156.547C157.681 7.86 158.655 8.166 159.471 8.778C160.287 9.36733 160.922 10.138 161.375 11.09C161.829 12.042 162.055 13.0167 162.055 14.014C162.055 15.1927 161.761 16.3033 161.171 17.346C160.582 18.366 159.721 19.1253 158.587 19.624C159.97 20.032 161.058 20.7687 161.851 21.834C162.667 22.8993 163.075 24.214 163.075 25.778ZM148.319 11.872V17.958H154.575C155.346 17.958 156.015 17.686 156.581 17.142C157.148 16.598 157.431 15.85 157.431 14.898C157.431 13.9913 157.171 13.266 156.649 12.722C156.151 12.1553 155.527 11.872 154.779 11.872H148.319ZM158.349 24.894C158.349 24.01 158.077 23.2507 157.533 22.616C156.989 21.9813 156.321 21.664 155.527 21.664H148.319V28.022H155.289C156.151 28.022 156.876 27.716 157.465 27.104C158.055 26.492 158.349 25.7553 158.349 24.894ZM165.071 26.73C165.071 25.574 165.388 24.5653 166.023 23.704C166.68 22.82 167.587 22.14 168.743 21.664C169.899 21.188 171.225 20.95 172.721 20.95C173.469 20.95 174.228 21.018 174.999 21.154C175.769 21.2673 176.438 21.4373 177.005 21.664V20.712C177.005 19.5787 176.665 18.706 175.985 18.094C175.327 17.482 174.341 17.176 173.027 17.176C172.052 17.176 171.123 17.346 170.239 17.686C169.355 18.026 168.425 18.5247 167.451 19.182L165.989 16.19C167.167 15.4193 168.369 14.8413 169.593 14.456C170.839 14.0707 172.143 13.878 173.503 13.878C176.041 13.878 178.013 14.5127 179.419 15.782C180.847 17.0513 181.561 18.8647 181.561 21.222V26.9C181.561 27.3987 181.64 27.75 181.799 27.954C181.957 28.1353 182.241 28.2487 182.649 28.294V32C182.241 32.0907 181.867 32.1473 181.527 32.17C181.209 32.2153 180.937 32.238 180.711 32.238C179.804 32.238 179.113 32.034 178.637 31.626C178.161 31.218 177.877 30.7193 177.787 30.13L177.685 29.212C176.891 30.232 175.917 31.014 174.761 31.558C173.627 32.0793 172.46 32.34 171.259 32.34C170.057 32.34 168.992 32.102 168.063 31.626C167.133 31.1273 166.397 30.4587 165.853 29.62C165.331 28.7587 165.071 27.7953 165.071 26.73ZM176.155 27.648C176.721 27.104 177.005 26.5827 177.005 26.084V24.282C175.826 23.806 174.636 23.568 173.435 23.568C172.233 23.568 171.259 23.8287 170.511 24.35C169.763 24.8487 169.389 25.5173 169.389 26.356C169.389 27.036 169.661 27.648 170.205 28.192C170.749 28.736 171.531 29.008 172.551 29.008C173.231 29.008 173.888 28.8833 174.523 28.634C175.18 28.3847 175.724 28.056 176.155 27.648ZM194.114 32.34C192.187 32.34 190.521 31.9093 189.116 31.048C187.711 30.1867 186.623 29.0533 185.852 27.648C185.081 26.2427 184.696 24.724 184.696 23.092C184.696 21.4373 185.07 19.9073 185.818 18.502C186.589 17.0967 187.677 15.9747 189.082 15.136C190.487 14.2973 192.153 13.878 194.08 13.878C196.029 13.878 197.684 14.2973 199.044 15.136C200.427 15.9747 201.458 17.074 202.138 18.434L197.684 19.794C196.891 18.434 195.678 17.754 194.046 17.754C193.162 17.754 192.369 17.9807 191.666 18.434C190.963 18.8647 190.408 19.488 190 20.304C189.592 21.0973 189.388 22.0267 189.388 23.092C189.388 24.1347 189.592 25.064 190 25.88C190.431 26.6733 190.997 27.308 191.7 27.784C192.403 28.2373 193.185 28.464 194.046 28.464C194.862 28.464 195.61 28.2713 196.29 27.886C196.993 27.478 197.48 26.968 197.752 26.356L202.206 27.716C201.594 29.0533 200.574 30.164 199.146 31.048C197.741 31.9093 196.063 32.34 194.114 32.34ZM217.182 32L211.98 24.316L209.566 26.696V32H205.01V7.18H209.566V22.208L216.74 14.218H221.568L214.938 21.766L222.044 32H217.182Z" fill="#111111"/>
</svg>
