<svg width="973" height="103" viewBox="0 0 973 103" fill="none" xmlns="http://www.w3.org/2000/svg">
<g clip-path="url(#clip0)">
<path d="M37.46 16.9664H38.5167V19.2666H39.2802L40.6503 16.9664H41.8056L40.1611 19.6661V19.685L41.9035 22.631H40.7093L39.2997 20.1594H38.5368V22.631H37.4794V16.9658H37.46V16.9664ZM44.2719 18.4684C45.5434 18.4684 46.5813 19.3618 46.5813 20.5973C46.5813 21.8523 45.5635 22.7267 44.2914 22.7267C43.0186 22.7267 42.0008 21.8523 42.0008 20.5973C41.9814 19.3429 42.9992 18.4684 44.2719 18.4684ZM47.4032 18.5629H48.4015V21.7571H49.7131V18.5635H50.7109V21.7571H52.0225V18.5635H53.0209V22.631H47.4421V18.5629H47.4032ZM55.9769 18.4684C57.1706 18.4684 57.8361 19.324 57.8361 20.3887C57.8328 20.5224 57.8198 20.6556 57.7972 20.7875H54.9196C54.9786 21.4907 55.5462 21.8712 56.1728 21.8712C56.6029 21.8712 57.0337 21.6809 57.3664 21.4339L57.7777 22.1566C57.347 22.517 56.7009 22.7456 56.0944 22.7456C54.7042 22.7456 53.8434 21.776 53.8434 20.6162C53.8434 19.3429 54.7237 18.4684 55.9769 18.4684ZM58.3252 21.776C58.8344 21.6998 59.2062 21.2821 59.2062 19.8368V18.5635H62.2602V22.631H61.2223V19.3801H60.2045V19.8362C60.2045 21.6041 59.7154 22.631 58.3252 22.6688V21.7755V21.776ZM65.2351 18.4684C66.4287 18.4684 67.0943 19.324 67.0943 20.3887C67.091 20.5224 67.078 20.6556 67.0554 20.7875H64.1778C64.2368 21.4907 64.8044 21.8712 65.431 21.8712C65.8611 21.8712 66.2919 21.6809 66.6246 21.4339L67.0359 22.1566C66.6052 22.517 65.9591 22.7456 65.3525 22.7456C63.963 22.7456 63.1016 21.776 63.1016 20.6162C63.1016 19.3429 63.9825 18.4684 65.2351 18.4684ZM67.9557 18.5629H68.993V20.1222H69.5022L70.52 18.5635H71.6747L70.3436 20.5021V20.5216L71.8311 22.631H70.618L69.5217 20.9778H68.9742V22.631H67.9357V18.5629H67.9551H67.9557ZM44.2719 21.8523C44.9569 21.8523 45.5245 21.3388 45.5245 20.5784C45.5245 19.8368 44.9569 19.3045 44.2713 19.3045C43.5869 19.3045 43.0387 19.8185 43.0387 20.5784C43.0387 21.3388 43.5863 21.8523 44.2719 21.8523ZM56.7794 20.0844C56.7794 19.552 56.4071 19.2288 55.9374 19.2288C55.4093 19.2288 55.0175 19.5709 54.9196 20.0844H56.7794ZM66.0376 20.0844C66.0376 19.552 65.6658 19.2288 65.1962 19.2288C64.6669 19.2288 64.2757 19.5709 64.1778 20.0844H66.0376Z" fill="#999999"/>
<path d="M52.0816 4.62891V14.2293C52.0824 14.2644 52.0759 14.2993 52.0624 14.332C52.049 14.3646 52.0288 14.3942 52.0032 14.4191C51.9776 14.4439 51.9471 14.4635 51.9135 14.4766C51.8799 14.4896 51.844 14.496 51.8078 14.4951H49.7917C49.7555 14.496 49.7195 14.4896 49.6859 14.4766C49.6523 14.4635 49.6218 14.4439 49.5962 14.4191C49.5706 14.3942 49.5505 14.3646 49.537 14.332C49.5236 14.2993 49.5171 14.2644 49.5179 14.2293V4.62891C49.5171 4.59377 49.5236 4.55883 49.537 4.52621C49.5505 4.49358 49.5706 4.46395 49.5962 4.4391C49.6218 4.41424 49.6523 4.39469 49.6859 4.38161C49.7195 4.36853 49.7555 4.36221 49.7917 4.36302H51.8078C51.844 4.36221 51.8799 4.36853 51.9135 4.38161C51.9471 4.39469 51.9776 4.41424 52.0032 4.4391C52.0288 4.46395 52.049 4.49358 52.0624 4.52621C52.0759 4.55883 52.0824 4.59377 52.0816 4.62891ZM67.8189 4.36302C67.8974 4.36302 67.9953 4.40083 68.0927 4.47705C68.1517 4.53378 68.1517 4.62891 68.1322 4.70513L64.8044 14.3244C64.7842 14.3742 64.7493 14.417 64.704 14.4475C64.6587 14.478 64.6052 14.4948 64.5501 14.4957H62.7493C62.6319 14.4957 62.534 14.4384 62.495 14.3244L60.5562 8.7165L58.6185 14.3238C58.5983 14.3736 58.5634 14.4164 58.5181 14.4469C58.4728 14.4774 58.4193 14.4942 58.3642 14.4951H56.5634C56.446 14.4951 56.3481 14.4384 56.3091 14.3238L52.9813 4.70454C52.9619 4.62891 52.9619 4.55268 53.0203 4.47705C53.0598 4.40083 53.1578 4.36302 53.2356 4.36302H55.4866C55.604 4.36302 55.702 4.43865 55.7415 4.55269L57.5222 10.2368L59.48 4.55269C59.5002 4.50291 59.5351 4.46006 59.5804 4.42956C59.6256 4.39906 59.6792 4.38228 59.7343 4.38133H61.3197C61.4371 4.38133 61.535 4.43865 61.574 4.55269L63.5317 10.2368L65.313 4.55269C65.329 4.49884 65.3623 4.45137 65.4081 4.41724C65.4538 4.38311 65.5096 4.36411 65.5673 4.36302H67.8183H67.8189ZM71.2245 4.36302C71.3614 4.36302 71.4789 4.47705 71.4983 4.62891V14.2293C71.4991 14.2644 71.4926 14.2993 71.4792 14.332C71.4657 14.3646 71.4456 14.3942 71.42 14.4191C71.3944 14.4439 71.3639 14.4635 71.3303 14.4766C71.2967 14.4896 71.2607 14.496 71.2245 14.4951H69.2084C69.1722 14.496 69.1363 14.4896 69.1027 14.4766C69.0691 14.4635 69.0386 14.4439 69.013 14.4191C68.9874 14.3942 68.9672 14.3646 68.9538 14.332C68.9403 14.2993 68.9338 14.2644 68.9346 14.2293V4.62891C68.9338 4.59377 68.9403 4.55883 68.9538 4.52621C68.9672 4.49358 68.9874 4.46395 69.013 4.4391C69.0386 4.41424 69.0691 4.39469 69.1027 4.38161C69.1363 4.36853 69.1722 4.36221 69.2084 4.36302H71.2245ZM48.3431 14.1536C48.4605 14.2866 48.3626 14.4762 48.1862 14.4762H45.7198C45.6713 14.4775 45.6231 14.4679 45.5789 14.4481C45.5348 14.4283 45.496 14.3989 45.4655 14.3622L45.0549 13.8682C44.1934 14.4 43.175 14.7238 42.0988 14.7238C39.0849 14.7238 36.6381 12.3474 36.6381 9.41963C36.6381 6.4919 39.0849 4.11545 42.0988 4.11545C45.1133 4.11545 47.5602 6.4919 47.5602 9.41963C47.5602 10.4655 47.2468 11.454 46.6987 12.29L48.3431 14.153V14.1536ZM27.7315 18.8108C28.2407 19.0011 28.4366 19.742 28.4756 20.0652C28.554 20.6549 28.3782 20.883 28.1823 20.883C27.9864 20.883 27.7121 20.6549 27.4188 20.1988C27.125 19.742 27.0076 19.2291 27.1645 18.9627C27.2619 18.7913 27.4772 18.7157 27.7321 18.8108H27.7315ZM24.7566 20.9592C25.0699 20.9592 25.4222 21.0921 25.7355 21.358C26.342 21.8526 26.5184 22.4228 26.2051 22.8411C26.0287 23.0503 25.7355 23.1832 25.4027 23.1832C25.0699 23.1832 24.7177 23.0692 24.4828 22.86C23.9347 22.4039 23.7783 21.6428 24.13 21.2251C24.2675 21.0537 24.4828 20.9592 24.7566 20.9592ZM17.9063 26.453C10.4678 26.453 4.43945 20.5976 4.43945 13.3737C4.43945 6.14979 10.4684 0.294922 17.9057 0.294922C25.3437 0.294922 31.3726 6.15038 31.3726 13.3737C31.3726 15.8258 30.6681 18.1266 29.4745 20.0847C29.435 20.1414 29.337 20.1225 29.3175 20.0463C28.8479 16.8338 26.8317 15.0653 23.8958 14.5336C23.6408 14.4951 23.6019 14.3433 23.9347 14.3055C24.8351 14.2293 26.1072 14.2482 26.7727 14.3622C26.8117 14.039 26.8317 13.6969 26.8317 13.3548C26.8317 8.58297 22.8384 4.70454 17.9252 4.70454C13.0126 4.70454 9.01927 8.58297 9.01927 13.3548C9.01927 18.1266 13.0126 22.005 17.9258 22.005H18.3365C18.197 21.2332 18.1378 20.4497 18.16 19.6664C18.1801 19.134 18.2975 19.0578 18.5324 19.4761C19.7655 21.5483 21.5274 23.4113 24.972 24.1528C27.7905 24.7614 30.6091 25.4645 33.6431 29.2094C33.9168 29.5326 33.5062 29.8747 33.1929 29.6088C30.1005 26.947 27.2819 26.0725 24.7177 26.0725C21.8401 26.092 19.8829 26.453 17.9057 26.453H17.9063ZM43.4494 12.0242L42.3726 10.7503C42.2558 10.6173 42.3537 10.4081 42.5295 10.4081H44.8C44.9174 10.1038 44.9764 9.76174 44.9764 9.41963C44.9764 7.84202 43.7627 6.47299 42.0988 6.47299C40.4355 6.47299 39.2212 7.84202 39.2212 9.41963C39.2212 10.9972 40.4355 12.3474 42.0988 12.3474C42.5685 12.3663 43.0387 12.2333 43.4494 12.0242Z" fill="#999999"/>
</g>
<path fill-rule="evenodd" clip-rule="evenodd" d="M120.341 3.47117C121.143 3.46615 123.526 3.24168 124.536 6.80457C125.216 9.20457 126.299 13.1359 127.785 18.5985H128.39C129.985 12.8394 131.08 8.90811 131.676 6.80457C132.696 3.20457 135.246 3.47124 136.266 3.47124L144.135 3.47125V29.0712H136.114V13.9847H135.576L131.105 29.0712H125.07L120.599 13.9735H120.061V29.0712H112.041V3.47125L120.341 3.47117ZM155.653 3.47125V18.5689H156.293L161.732 6.15422C162.787 3.68365 165.038 3.47125 165.038 3.47125H172.799V29.0712H164.611V13.9735H163.971L158.639 26.3883C157.583 28.8477 155.226 29.0712 155.226 29.0712H147.464V3.47125H155.653ZM201.102 15.6365C199.96 19.0213 196.373 21.4454 192.402 21.4454H183.814V29.0712H176.028V15.6365H201.102Z" fill="#999999"/>
<path fill-rule="evenodd" clip-rule="evenodd" d="M192.777 3.4707H175.62C176.028 9.17013 180.721 14.0492 185.58 14.0492H201.643C202.57 9.31232 199.379 3.4707 192.777 3.4707Z" fill="#999999"/>
<mask id="mask0" mask-type="alpha" maskUnits="userSpaceOnUse" x="238" y="0" width="32" height="32">
<path d="M238.135 16.0003C238.135 24.8375 245.189 32 253.895 32C262.596 32 269.652 24.8375 269.652 16.0003C269.652 7.16249 262.596 0 253.895 0C245.189 0 238.135 7.16249 238.135 16.0003Z" fill="url(#paint0_linear)"/>
</mask>
<g mask="url(#mask0)">
<path d="M269.649 12.5882H238.135V19.437H269.649V12.5882ZM269.649 26.2834H238.135V31.9961H269.649V26.2834ZM269.649 5.7412H238.135V0.00232124H269.649V5.7412Z" fill="#999999"/>
<path d="M269.649 12.5898H238.135V19.4385H269.649V12.5898ZM269.649 5.74287H238.135V0.0040493H269.649V5.74287Z" fill="url(#paint1_radial)"/>
<path d="M269.649 12.5898H238.135V19.4385H269.649V12.5898ZM269.649 5.74287H238.135V0.0040493H269.649V5.74287Z" fill="#999999"/>
</g>
<path d="M337.768 13.0841C337.561 13.0841 337.385 13.2684 337.385 13.4756V17.1849H332.78V13.4756C332.78 13.2684 332.598 13.0841 332.393 13.0841H331.132C330.929 13.0841 330.771 13.2684 330.771 13.4756V23.0046C330.771 23.2164 330.929 23.3988 331.132 23.3988H332.393C332.598 23.3988 332.78 23.2164 332.78 23.0046V19.0438H337.385V23.0046C337.385 23.2164 337.561 23.3988 337.768 23.3988H339.033C339.207 23.3988 339.387 23.2164 339.387 23.0046V13.4756C339.387 13.2684 339.207 13.0841 339.033 13.0841H337.768ZM327.997 8.8291C328.228 8.8291 328.407 9.01198 328.407 9.21643V10.3963C328.407 10.6052 328.228 10.7888 327.997 10.7888H320.155C319.948 10.7888 319.772 10.6052 319.772 10.3963V9.21643C319.772 9.01198 319.948 8.8291 320.155 8.8291H327.997ZM277.176 8.8291C276.975 8.8291 276.792 9.01198 276.792 9.21643V19.0435C276.792 21.6774 277.614 23.4265 280.856 23.4265H281.241C285.868 23.4265 286.564 20.3202 286.564 18.7263C286.564 17.3143 286.049 13.97 281.448 13.97H278.874V10.7888H284.814C285.022 10.7888 285.202 10.6052 285.202 10.3963V9.21643C285.202 9.01198 285.022 8.8291 284.814 8.8291H277.176ZM281.522 15.9049C283.402 15.9049 284.455 16.9463 284.455 18.7263C284.455 20.5019 283.402 21.4705 281.522 21.4705H280.855C279.444 21.4705 278.874 20.8691 278.874 19.2475V15.9049H281.522ZM310.697 13.2684C310.567 13.3221 310.464 13.4756 310.464 13.6062V14.7849C310.464 14.8859 310.541 15.0205 310.615 15.0695C310.723 15.1232 310.824 15.147 310.925 15.1232C311.619 14.8859 312.419 14.651 313.727 14.651C315.346 14.651 315.633 15.147 315.633 16.3195V16.5335L313.396 16.6911C309.792 16.9463 309.614 19.3259 309.614 20.0575C309.614 22.2235 310.746 23.5535 313.448 23.5535C314.296 23.5535 315.247 23.2956 316.068 22.7702L316.25 23.1639C316.299 23.2956 316.428 23.3988 316.581 23.3988H317.331C317.512 23.3988 317.689 23.2416 317.689 23.0355V16.3477C317.689 13.8957 316.404 12.7186 313.727 12.7186C312.596 12.7183 311.493 12.9301 310.697 13.2684ZM311.748 20.0575C311.748 19.3259 311.879 18.5662 313.366 18.4385L315.604 18.2279L315.633 20.9664C314.914 21.4121 314.345 21.6482 313.472 21.6482C312.619 21.6482 311.748 21.3104 311.748 20.0575ZM295.147 23.1639C295.195 23.2956 295.323 23.3988 295.474 23.3988H296.38C296.559 23.3988 296.736 23.2416 296.736 23.0355V13.4756C296.736 13.2684 296.583 13.0841 296.351 13.0841H295.117C294.887 13.0841 294.731 13.2684 294.731 13.4756V20.1884C294.063 20.9196 292.856 21.5418 291.954 21.5418C290.695 21.5418 290.077 20.84 290.077 19.0435V13.4756C290.077 13.2684 289.894 13.0841 289.69 13.0841H288.459C288.251 13.0841 288.07 13.2684 288.07 13.4756V19.6934C288.07 21.9647 289.28 23.5535 291.621 23.5535C293.062 23.5535 294.322 22.7702 294.938 22.2235L295.147 23.1639ZM326.84 23.1639C326.889 23.2956 327.02 23.3988 327.177 23.3988H328.075C328.257 23.3988 328.431 23.2416 328.431 23.0279V13.4756C328.431 13.2684 328.28 13.0841 328.05 13.0841H326.817C326.582 13.0841 326.43 13.2684 326.43 13.4756V20.1884C325.763 20.9196 324.552 21.5418 323.649 21.5418C322.393 21.5418 321.774 20.84 321.774 19.0435V13.4756C321.774 13.2684 321.593 13.0841 321.392 13.0841H320.155C319.948 13.0841 319.772 13.2684 319.772 13.4756V19.6934C319.772 21.9647 320.98 23.5535 323.317 23.5535C324.755 23.5535 326.022 22.7702 326.636 22.2235L326.84 23.1639ZM299.921 19.7704C299.791 21.1508 299.436 21.494 298.277 21.6244C298.093 21.6482 297.917 21.8311 297.917 22.039V23.0847C297.917 23.2956 298.093 23.4772 298.277 23.4772C300.537 23.4772 301.67 22.3826 301.905 19.6691L302.134 17.2358C302.288 15.5414 302.622 15.0207 304.137 15.0207H305.806V23.0046C305.806 23.2164 305.99 23.3988 306.195 23.3988H307.428C307.607 23.3988 307.814 23.2164 307.814 23.0046V13.4756C307.814 13.2684 307.607 13.0841 307.428 13.0841H304.033C301.231 13.0841 300.413 14.7295 300.179 17.0547L299.921 19.7704Z" fill="#999999"/>
<path d="M343.133 12.5498C344.052 12.5498 344.864 12.843 344.864 14.281C344.864 15.7054 344.052 16.0118 343.133 16.0118C342.216 16.0118 341.402 15.7051 341.402 14.281C341.402 12.8432 342.216 12.5498 343.133 12.5498ZM343.133 12.8432C342.308 12.8432 341.717 13.0421 341.717 14.2813C341.717 15.5195 342.308 15.7184 343.133 15.7184C343.96 15.7184 344.55 15.5195 344.55 14.2813C344.55 13.0418 343.96 12.8432 343.133 12.8432ZM342.753 15.1798V14.4678H343.252L343.618 15.1864C343.633 15.2158 343.671 15.2388 343.704 15.2388H343.927C343.959 15.2388 343.973 15.2168 343.958 15.1876L343.541 14.4269C343.763 14.3472 343.842 14.1614 343.842 13.9077C343.842 13.5485 343.698 13.321 343.212 13.321H342.512C342.478 13.321 342.451 13.3492 342.451 13.3813V15.1798C342.451 15.2126 342.478 15.2388 342.512 15.2388H342.695C342.728 15.2388 342.753 15.2129 342.753 15.1798ZM342.753 13.615H343.252C343.514 13.615 343.553 13.7483 343.553 13.9077C343.553 14.0271 343.514 14.1614 343.252 14.1614H342.753V13.615Z" fill="#999999"/>
<g clip-path="url(#clip1)">
<path d="M417.597 30.5537H409.982L414.745 0.544922H422.359L417.597 30.5537Z" fill="#999999"/>
<path d="M445.202 1.27759C443.7 0.670409 441.318 0 438.372 0C430.852 0 425.557 4.0861 425.524 9.92798C425.462 14.2381 429.316 16.6321 432.198 18.0692C435.144 19.5377 436.146 20.4962 436.146 21.8052C436.116 23.8156 433.765 24.7423 431.573 24.7423C428.533 24.7423 426.904 24.2645 424.428 23.1461L423.425 22.6666L422.36 29.4029C424.146 30.232 427.436 30.9678 430.852 31C438.842 31 444.044 26.9771 444.105 20.7517C444.136 17.3356 442.101 14.718 437.714 12.5791C435.05 11.206 433.419 10.2802 433.419 8.87527C433.451 7.5981 434.799 6.28996 437.805 6.28996C440.281 6.22588 442.1 6.83222 443.477 7.43898L444.166 7.75764L445.202 1.27759Z" fill="#999999"/>
<path d="M455.322 19.9227C455.949 18.1987 458.362 11.5265 458.362 11.5265C458.33 11.5905 458.988 9.77067 459.364 8.65347L459.896 11.2392C459.896 11.2392 461.338 18.4223 461.651 19.9227C460.461 19.9227 456.826 19.9227 455.322 19.9227ZM464.721 0.544922H458.831C457.015 0.544922 455.635 1.08719 454.851 3.03477L443.541 30.5533H451.53C451.53 30.5533 452.846 26.8495 453.128 26.0518C454.005 26.0518 461.777 26.0518 462.905 26.0518C463.124 27.1054 463.814 30.5533 463.814 30.5533H470.864L464.721 0.544922Z" fill="#999999"/>
<path d="M403.623 0.544922L396.165 21.0081L395.351 16.8579C393.972 12.0691 389.648 6.86628 384.823 4.27926L391.653 30.5219H399.706L411.675 0.544922H403.623Z" fill="#999999"/>
<path d="M389.241 0.544922H376.99L376.864 1.15126C386.421 3.64153 392.75 9.64422 395.351 16.8592L392.687 3.06744C392.249 1.15083 390.901 0.608144 389.241 0.544922Z" fill="#999999"/>
</g>
<g clip-path="url(#clip2)">
<path d="M619.066 0.457845C621.447 0.457845 623.711 0.985457 625.743 1.92929C626.062 2.06798 626.383 2.23497 626.7 2.40212L625.308 3.59783L623.218 1.51311L619.619 4.56908L617.5 2.37475L610.881 8.07061L615.119 12.5433L613.464 13.9307L617.645 18.4035L615.99 19.7927L621.972 26.1549L625.511 23.0423L628.59 26.3777C627.98 26.8222 627.312 27.2676 626.587 27.6555C624.381 28.8513 621.826 29.5433 619.096 29.5433C610.707 29.5433 603.885 23.0167 603.885 14.9878C603.857 7.01446 610.678 0.456055 619.067 0.456055L619.066 0.457845ZM616.279 14.0978L619.909 10.9852L623.16 14.4592L619.53 17.5701L616.279 14.0969V14.0978ZM618.862 20.0994L622.464 16.9594L625.743 20.4326L622.113 23.5452L618.863 20.0994H618.862ZM613.697 8.1801L617.325 5.06928L620.577 8.54154L616.947 11.6543L613.697 8.1801ZM620.344 6.5143L623.043 4.18026L625.482 6.76351L622.781 9.12492L620.343 6.5143H620.344ZM625.162 17.2095L627.861 14.8764L630.3 17.487L627.6 19.822L625.162 17.2095H625.162ZM627.542 22.4608L630.243 20.1268L632.68 22.71L629.98 25.0714L627.542 22.4608ZM628.645 10.4576L630.446 8.90309L632.071 10.6255L630.272 12.1809L628.644 10.4576H628.645ZM626.323 5.31849L628.124 3.73575L629.75 5.48642L627.95 7.04272L626.324 5.31944L626.323 5.31849ZM630.94 15.5994L632.739 14.0431L634.393 15.7655L632.564 17.3209L630.939 15.5994H630.94ZM622.841 11.7364L625.541 9.40329L627.979 11.9865L625.28 14.3206L622.841 11.7372V11.7364ZM511.298 10.4767H511.162L508.59 19.9297H506.49L503.336 6.50062H505.517L507.697 16.5204H507.832L510.362 6.50062H512.095L514.801 16.5204H514.939L516.924 6.50062H519.202L516.048 19.9297H513.945L511.298 10.4767ZM521.969 14.2119H526.426C526.328 12.2239 525.335 11.4279 524.283 11.4279C523.095 11.4279 522.181 12.3197 521.968 14.2119H521.969ZM527.983 17.7736V19.2141C527.106 19.707 525.939 20.0857 524.536 20.0857C521.264 20.0857 519.924 18.115 519.924 15.1228C519.924 12.243 521.423 10.16 524.342 10.16C526.774 10.16 528.274 11.6935 528.274 14.7806V15.4817H521.928C521.928 17.7545 522.88 18.7585 524.887 18.7585C525.939 18.7585 526.912 18.3971 527.982 17.7727L527.983 17.7736ZM532.804 18.5677C533.426 18.8323 534.109 18.8706 534.595 18.8706C536.038 18.8706 537.125 17.999 537.125 14.9302C537.125 12.5249 536.229 11.749 534.926 11.749C534.148 11.749 533.583 11.957 532.805 12.3734V18.5667L532.804 18.5677ZM532.823 10.9733C533.407 10.6704 534.399 10.2704 535.452 10.2704C537.865 10.2704 539.17 11.8998 539.17 14.9303C539.17 18.4719 537.416 20.1971 534.595 20.1971C533.563 20.1971 531.967 19.8739 530.799 19.2661V6.04968L532.824 5.57496V10.9733H532.823ZM547.933 17.0799H548.029L552.194 6.49146H554.608V19.9215H552.505V10.1856H552.331L548.359 19.9215H547.115L543.143 10.4137H542.967V19.9215H541.215V6.49146H543.572L547.933 17.0799ZM563.198 15.1228C563.198 12.567 562.129 11.4872 560.806 11.4872C559.522 11.4872 558.411 12.5661 558.411 15.1228C558.411 17.7179 559.424 18.7585 560.806 18.7585C562.187 18.7585 563.199 17.718 563.199 15.122L563.198 15.1228ZM556.369 15.122C556.369 11.8067 558.238 10.159 560.807 10.159C563.378 10.159 565.246 11.8058 565.246 15.1211C565.246 18.3588 563.475 20.0839 560.808 20.0839C558.14 20.0839 556.37 18.3588 556.37 15.1211L556.369 15.122ZM566.785 11.562C567.661 11.0509 569.511 10.16 571.748 10.16C574.084 10.16 574.959 11.049 574.959 12.9987V19.8576H572.936V13.4378C572.936 11.9408 572.179 11.6762 571.184 11.6762C570.406 11.6762 569.411 12.0177 568.808 12.358V19.8584H566.785V11.5611V11.562ZM579.245 14.2119H583.701C583.607 12.2239 582.612 11.4279 581.561 11.4279C580.373 11.4279 579.458 12.3197 579.244 14.2119H579.245ZM585.258 17.7736V19.2141C584.383 19.707 583.215 20.0857 581.812 20.0857C578.545 20.0857 577.201 18.115 577.201 15.1228C577.201 12.243 578.699 10.16 581.619 10.16C584.051 10.16 585.552 11.6935 585.552 14.7806V15.4817H579.207C579.207 17.7545 580.159 18.7585 582.164 18.7585C583.215 18.7585 584.191 18.3971 585.258 17.7727V17.7736ZM593.639 10.1609H595.723L592.198 19.6266C591.224 22.2408 590.039 23.6045 587.8 23.6045V22.0546C589.124 22.0546 589.94 21.0324 590.409 19.6285L586.671 10.1609H588.812L591.305 17.1292H591.421L593.639 10.16L593.639 10.1609Z" fill="#999999"/>
</g>
<path d="M773.611 9.01969C772.856 8.45007 771.912 8.07036 770.78 7.9754C768.892 7.78555 767.099 8.45007 765.872 9.68426V8.16526H762.002V22.121H765.872V14.8108C765.872 13.1969 766.155 12.7222 766.438 12.3425C766.91 11.583 767.76 11.2033 768.798 11.2033C769.836 11.2033 770.78 11.6779 771.251 12.4374C771.535 13.007 771.629 13.7665 771.629 14.1463C771.629 15.3804 771.629 22.121 771.629 22.121H775.499V13.6716C775.499 11.4881 774.933 9.96907 773.611 9.01969Z" fill="#999999"/>
<path d="M754.734 8.35507C752.846 7.69049 750.77 7.78545 748.882 8.63988C747.655 9.2095 746.523 10.1589 745.862 11.393C745.202 12.4374 744.918 13.7664 744.918 15.1905C744.918 16.6145 745.202 17.9437 745.862 18.988C746.523 20.0323 747.372 20.9816 748.505 21.5513C749.637 22.1209 750.959 22.5006 752.186 22.5006C752.846 22.5006 753.507 22.4057 754.167 22.2158C754.734 22.0259 755.3 21.8361 755.867 21.5513C756.999 20.8867 757.943 20.0323 758.509 18.988C759.17 17.9437 759.453 16.6145 759.453 15.1905C759.453 12.0576 757.66 9.39935 754.734 8.35507ZM755.772 15.3804C755.678 16.6145 755.3 17.6589 754.545 18.3234C753.979 18.7981 753.129 19.0829 752.091 19.1778C751.053 19.1778 750.298 18.893 749.637 18.3234C748.882 17.6589 748.505 16.6145 748.41 15.3804C748.316 13.9563 748.882 12.8171 749.92 12.0576C750.487 11.6778 751.242 11.393 751.997 11.393C752.846 11.393 753.507 11.6778 754.167 12.0576C755.3 12.7222 755.867 13.9563 755.772 15.3804Z" fill="#999999"/>
<path d="M740.388 9.01894C739.633 8.44932 738.689 8.06956 737.557 7.97461C737.368 7.97461 737.085 7.97461 736.896 7.97461C735.386 7.97461 734.065 8.63918 732.932 9.96828L732.743 10.2531H732.366C732.082 9.77842 731.705 9.39866 731.327 9.11385C730.572 8.54423 729.629 8.16451 728.496 8.06956C726.703 7.8797 725.287 8.44932 724.06 9.77842V8.35437H720.19V22.31H724.06V14.9999V14.81C724.06 13.2911 724.249 12.9113 724.532 12.4367C725.004 11.6771 725.853 11.2025 726.797 11.2974C727.741 11.2974 728.591 11.7721 729.063 12.5316C729.44 13.1012 729.44 13.7658 729.44 14.4303V22.2151H733.31V14.7151C733.31 13.2911 733.498 12.8164 733.782 12.3417C734.254 11.5822 735.103 11.2025 736.047 11.2025C736.99 11.2025 737.745 11.6771 738.217 12.4367C738.501 12.9113 738.595 13.4809 738.595 13.8607C738.595 14.0506 738.595 14.2404 738.595 14.3354V22.1202H742.465V13.5759C742.465 12.8164 742.37 12.0569 742.182 11.3923C741.804 10.443 741.238 9.58856 740.388 9.01894Z" fill="#999999"/>
<path d="M790.032 17.9431C789.466 18.5127 788.145 19.557 786.352 19.6519C784.841 19.7468 783.709 19.2722 782.859 18.4178C782.482 18.038 782.199 17.4684 782.01 16.8988H792.675V16.8038C792.77 16.2342 792.864 15.7595 792.864 15.1899C792.864 14.7152 792.77 14.0507 792.581 13.1962C792.109 11.5823 791.165 10.3481 789.938 9.39875C788.522 8.35447 787.201 8.06966 786.823 8.06966C784.086 7.59499 780.972 8.82913 779.367 11.3924C778.234 13.1962 778.329 15 778.329 15.5697C778.329 16.2342 778.423 18.3228 780.122 20.2216C782.105 22.4051 784.841 22.5 785.691 22.595C789.466 22.6899 792.014 20.3165 792.581 19.8418L790.032 17.9431ZM783.426 12.057C783.992 11.6772 784.652 11.3924 785.502 11.3924C786.352 11.3924 787.012 11.6772 787.673 12.057C788.239 12.5317 788.711 13.1013 788.994 13.7658H782.199C782.388 13.1013 782.765 12.4368 783.426 12.057Z" fill="#999999"/>
<path d="M693.952 0C685.647 0 679.04 6.74052 679.04 15C679.04 23.3544 685.741 30 693.952 30C702.164 30 708.865 23.2595 708.865 15C708.865 6.74052 702.164 0 693.952 0ZM693.952 20.5063C690.932 20.5063 688.384 17.943 688.384 14.905C688.384 11.8671 690.932 9.30381 693.952 9.30381C696.973 9.30381 699.521 11.8671 699.521 14.905C699.427 18.038 696.973 20.5063 693.952 20.5063Z" fill="#999999"/>
<path d="M678.945 4.27246V26.1079H673.66L666.864 4.27246H678.945Z" fill="#999999"/>
<g clip-path="url(#clip3)">
<path d="M888.947 20.5503V14.8315C888.947 12.6393 887.699 11.2096 885.561 11.2096C884.492 11.2096 883.334 11.5908 882.532 12.8299C881.909 11.7815 881.018 11.2096 879.682 11.2096C878.791 11.2096 877.9 11.4955 877.187 12.544V11.4002H875.316V20.5503H877.187V15.4987C877.187 13.8784 877.989 13.1158 879.236 13.1158C880.483 13.1158 881.107 13.9737 881.107 15.4987V20.5503H882.978V15.4987C882.978 13.8784 883.869 13.1158 885.027 13.1158C886.274 13.1158 886.898 13.9737 886.898 15.4987V20.5503H888.947ZM916.653 11.4002H913.624V8.63613H911.753V11.4002H910.06V13.2112H911.753V17.4049C911.753 19.5018 912.555 20.7409 914.693 20.7409C915.494 20.7409 916.385 20.455 917.009 20.0737L916.474 18.3581C915.94 18.7393 915.316 18.8346 914.871 18.8346C913.98 18.8346 913.624 18.2628 913.624 17.3097V13.2112H916.653V11.4002ZM932.51 11.2096C931.441 11.2096 930.728 11.7815 930.283 12.544V11.4002H928.412V20.5503H930.283V15.4034C930.283 13.8784 930.906 13.0206 932.065 13.0206C932.421 13.0206 932.866 13.1159 933.223 13.2112L933.757 11.3049C933.401 11.2096 932.866 11.2096 932.51 11.2096ZM908.546 12.1627C907.655 11.4955 906.408 11.2096 905.071 11.2096C902.933 11.2096 901.508 12.3533 901.508 14.1643C901.508 15.6893 902.577 16.5471 904.448 16.8331L905.339 16.9284C906.319 17.119 906.853 17.4049 906.853 17.8815C906.853 18.5487 906.14 19.0253 904.893 19.0253C903.646 19.0253 902.666 18.5487 902.042 18.0722L901.152 19.5972C902.131 20.3597 903.468 20.7409 904.804 20.7409C907.298 20.7409 908.724 19.5019 908.724 17.7862C908.724 16.1659 907.566 15.3081 905.784 15.0221L904.893 14.9268C904.091 14.8315 903.468 14.6409 903.468 14.069C903.468 13.4018 904.091 13.0206 905.071 13.0206C906.14 13.0206 907.209 13.4971 907.744 13.7831L908.546 12.1627ZM958.256 11.2096C957.187 11.2096 956.474 11.7815 956.029 12.544V11.4002H954.158V20.5503H956.029V15.4034C956.029 13.8784 956.652 13.0206 957.811 13.0206C958.167 13.0206 958.612 13.1159 958.969 13.2112L959.503 11.3049C959.147 11.2096 958.612 11.2096 958.256 11.2096ZM934.381 15.9752C934.381 18.7393 936.163 20.7409 938.924 20.7409C940.171 20.7409 941.062 20.455 941.953 19.6925L941.062 18.0722C940.35 18.644 939.637 18.93 938.835 18.93C937.321 18.93 936.252 17.7862 936.252 15.9752C936.252 14.2596 937.321 13.1159 938.835 13.0206C939.637 13.0206 940.35 13.3065 941.062 13.8784L941.953 12.258C941.062 11.4955 940.171 11.2096 938.924 11.2096C936.163 11.2096 934.381 13.2112 934.381 15.9752ZM951.664 15.9752V11.4002H949.793V12.544C949.169 11.6862 948.278 11.2096 947.12 11.2096C944.715 11.2096 942.844 13.2112 942.844 15.9752C942.844 18.7393 944.715 20.7409 947.12 20.7409C948.367 20.7409 949.258 20.2644 949.793 19.4065V20.5503H951.664V15.9752ZM944.804 15.9752C944.804 14.3549 945.784 13.0206 947.387 13.0206C948.902 13.0206 949.971 14.2596 949.971 15.9752C949.971 17.5956 948.902 18.93 947.387 18.93C945.784 18.8347 944.804 17.5956 944.804 15.9752ZM922.443 11.2096C919.949 11.2096 918.167 13.1158 918.167 15.9752C918.167 18.8346 919.949 20.7409 922.532 20.7409C923.779 20.7409 925.027 20.3597 926.007 19.5019L925.116 18.0722C924.403 18.644 923.512 19.0253 922.621 19.0253C921.463 19.0253 920.305 18.4534 920.038 16.8331H926.363C926.363 16.5471 926.363 16.3565 926.363 16.0706C926.452 13.1159 924.849 11.2096 922.443 11.2096ZM922.443 12.9252C923.601 12.9252 924.403 13.6877 924.581 15.1174H920.127C920.305 13.8784 921.107 12.9252 922.443 12.9252ZM968.857 15.9752V7.77832H966.986V12.544C966.363 11.6862 965.472 11.2096 964.314 11.2096C961.909 11.2096 960.038 13.2112 960.038 15.9752C960.038 18.7393 961.909 20.7409 964.314 20.7409C965.561 20.7409 966.452 20.2644 966.986 19.4065V20.5503H968.857V15.9752ZM961.998 15.9752C961.998 14.3549 962.978 13.0206 964.581 13.0206C966.096 13.0206 967.165 14.2596 967.165 15.9752C967.165 17.5956 966.096 18.93 964.581 18.93C962.978 18.8347 961.998 17.5956 961.998 15.9752ZM899.459 15.9752V11.4002H897.588V12.544C896.964 11.6862 896.074 11.2096 894.915 11.2096C892.51 11.2096 890.639 13.2112 890.639 15.9752C890.639 18.7393 892.51 20.7409 894.915 20.7409C896.163 20.7409 897.054 20.2644 897.588 19.4065V20.5503H899.459V15.9752ZM892.51 15.9752C892.51 14.3549 893.49 13.0206 895.094 13.0206C896.608 13.0206 897.677 14.2596 897.677 15.9752C897.677 17.5956 896.608 18.93 895.094 18.93C893.49 18.8347 892.51 17.5956 892.51 15.9752Z" fill="#999999"/>
<path d="M842.128 14.9427C842.128 10.1693 844.223 5.93557 847.443 3.19608C845.077 1.20372 842.09 0 838.831 0C831.11 0 824.864 6.6827 824.864 14.9427C824.864 23.2027 831.11 29.8854 838.831 29.8854C842.09 29.8854 845.077 28.6817 847.443 26.6893C844.223 23.9913 842.128 19.716 842.128 14.9427Z" fill="#999999"/>
<path d="M870.062 14.9427C870.062 23.2027 863.815 29.8854 856.095 29.8854C852.836 29.8854 849.849 28.6817 847.482 26.6893C850.741 23.9498 852.797 19.716 852.797 14.9427C852.797 10.1693 850.702 5.93557 847.482 3.19608C849.849 1.20372 852.836 0 856.095 0C863.815 0 870.062 6.72421 870.062 14.9427Z" fill="#999999"/>
<path fill-rule="evenodd" clip-rule="evenodd" d="M847.463 4.24121C846.09 5.51312 844.974 7.24298 844.183 9.0548C843.325 11.0222 842.864 13.0579 842.864 14.6659C842.864 17.8084 844.021 22.1817 847.463 25.716C850.905 22.1817 852.062 17.8084 852.062 14.6659C852.062 13.0579 851.601 11.0222 850.743 9.0548C849.953 7.24298 848.837 5.51312 847.463 4.24121Z" fill="#999999"/>
<path d="M847.463 4.24121C846.09 5.51312 844.974 7.24298 844.183 9.0548C843.325 11.0222 842.864 13.0579 842.864 14.6659C842.864 17.8084 844.021 22.1817 847.463 25.716C850.905 22.1817 852.062 17.8084 852.062 14.6659C852.062 13.0579 851.601 11.0222 850.743 9.0548C849.953 7.24298 848.837 5.51312 847.463 4.24121Z" fill="#999999"/>
</g>
<g clip-path="url(#clip4)">
<path fill-rule="evenodd" clip-rule="evenodd" d="M211.99 72.001C209.801 72.001 207.206 74.1509 205.065 77.7653C202.833 81.5085 201.502 86.1426 201.502 90.1669C201.502 96.0582 204.739 101.999 211.991 101.999C219.234 101.999 222.48 96.0582 222.48 90.1669C222.48 86.1426 221.149 81.5085 218.929 77.7653C216.767 74.1509 214.172 72.001 211.99 72.001ZM268.628 80.84H275.97V100.393H283.836V80.84H291.176V73.6072H268.628V80.839V80.84ZM307.958 80.84H319.496V73.6072H307.958C297.358 73.6072 291.697 78.9907 291.697 86.9991C291.697 95.0076 297.358 100.393 307.958 100.393H319.496V93.1605H307.958C303.052 93.1605 299.828 91.3693 299.828 87.0001C299.828 82.6308 303.052 80.84 307.958 80.84ZM252.628 73.6072L248.435 89.5944L244.242 73.6072H230.346V100.393H238.21V78.6062L243.925 100.393H252.945L258.663 78.593V100.393H266.53V73.6072H252.628Z" fill="#999999"/>
</g>
<path d="M358.108 88.1894L354.881 96.0947H352.524L356.069 87.6421C355.238 87.1789 354.572 86.5052 354.06 85.6105C353.548 84.7157 353.297 83.5052 353.297 81.9578C353.297 80.8842 353.442 79.9368 353.731 79.1157C354.021 78.2947 354.417 77.621 354.92 77.0842C355.422 76.5473 356.011 76.1368 356.678 75.8736C357.344 75.5999 358.059 75.4736 358.793 75.4736H361.836V96.1052H359.798V88.1999H358.108V88.1894ZM359.798 77.3157H358.716C358.31 77.3157 357.914 77.3999 357.528 77.5578C357.142 77.7263 356.794 77.9789 356.494 78.3368C356.195 78.6947 355.953 79.1684 355.77 79.7578C355.586 80.3473 355.49 81.0736 355.49 81.9473C355.49 82.7789 355.577 83.4736 355.741 84.0315C355.905 84.5894 356.137 85.0421 356.427 85.3894C356.716 85.7368 357.064 85.9789 357.46 86.1263C357.856 86.2736 358.272 86.3473 358.716 86.3473H359.798V77.3157Z" fill="#999999"/>
<path d="M371.661 81.5572V96.094H369.623V89.5783H366.551V96.094H364.483V81.5572H366.551V87.7362H369.623V81.5572H371.661ZM382.278 98.9467H380.423V96.094H374.704V98.9467H372.849V94.2414H373.67C373.97 93.473 374.211 92.6204 374.385 91.6835C374.559 90.7467 374.694 89.7888 374.791 88.7993C374.887 87.8098 374.945 86.7993 374.974 85.7677C375.003 84.7362 375.013 83.7467 375.013 82.7783V81.5572H381.205V94.2519H382.268V98.9467H382.278ZM379.177 83.3993H376.878V83.6625C376.878 84.4309 376.868 85.273 376.839 86.1783C376.81 87.094 376.752 88.0204 376.665 88.9572C376.578 89.894 376.452 90.8204 376.298 91.7362C376.143 92.6519 375.921 93.4835 375.631 94.2519H379.177V83.3993ZM391.252 95.1151C390.827 95.4835 390.344 95.7677 389.793 95.9783C389.243 96.1888 388.634 96.294 387.967 96.294C386.586 96.294 385.504 95.7151 384.712 94.5467C383.92 93.3783 383.524 91.673 383.524 89.4309C383.524 88.2625 383.601 87.1783 383.746 86.1993C383.901 85.2204 384.132 84.3677 384.461 83.6414C384.789 82.9151 385.205 82.3572 385.717 81.9572C386.229 81.5572 386.837 81.3467 387.542 81.3467C388.093 81.3467 388.595 81.4625 389.049 81.7046C389.503 81.9467 389.9 82.3362 390.218 82.873C390.537 83.4098 390.779 84.1046 390.962 84.9677C391.136 85.8204 391.223 86.8625 391.223 88.094V89.3362H385.659C385.659 90.9888 385.862 92.2414 386.277 93.0835C386.692 93.9256 387.311 94.3572 388.141 94.3572C388.721 94.3572 389.243 94.2519 389.687 94.0204C390.141 93.7993 390.498 93.5783 390.759 93.3677L391.252 95.1151ZM387.542 83.1993C386.905 83.1993 386.46 83.5888 386.19 84.3677C385.92 85.1467 385.755 86.1888 385.688 87.494H389.107C389.107 86.8835 389.078 86.3046 389.03 85.7783C388.982 85.2519 388.895 84.7888 388.779 84.4098C388.663 84.0204 388.508 83.7256 388.306 83.5151C388.103 83.3046 387.842 83.1993 387.542 83.1993ZM395.406 88.8519V96.094H393.339V81.5572H395.406V88.2835L398.613 81.5572H400.709L397.396 88.3993L401.183 96.1046H398.932L395.406 88.8519ZM406.023 96.294C404.593 96.294 403.472 95.673 402.661 94.4309C401.849 93.1888 401.444 91.3151 401.444 88.8204C401.444 87.6835 401.54 86.6519 401.753 85.7362C401.956 84.8098 402.255 84.0309 402.651 83.3888C403.047 82.7467 403.54 82.2414 404.129 81.8835C404.718 81.5256 405.404 81.3467 406.177 81.3467C406.776 81.3467 407.259 81.4204 407.636 81.5677C408.003 81.7151 408.341 81.894 408.64 82.1046L408.351 84.2414C408.07 83.9677 407.732 83.7256 407.356 83.5151C406.979 83.3046 406.573 83.1993 406.148 83.1993C405.404 83.1993 404.796 83.6519 404.322 84.5677C403.849 85.473 403.607 86.8625 403.607 88.7151C403.607 90.5467 403.81 91.9677 404.206 92.9677C404.602 93.9677 405.23 94.4625 406.071 94.4625C406.583 94.4625 407.027 94.3677 407.394 94.1783C407.761 93.9888 408.07 93.7783 408.322 93.5362L408.795 95.2098C408.438 95.5361 408.041 95.7993 407.607 95.9993C407.172 96.1993 406.641 96.294 406.023 96.294Z" fill="#999999"/>
<path d="M422.841 96.0949H414.736L414.552 99.5265H413.519V94.9475H414.079C414.533 94.5265 414.89 93.7686 415.141 92.6949C415.393 91.6212 415.586 90.337 415.721 88.8528C415.866 87.316 415.963 85.4212 416.011 83.1791C416.059 80.937 416.108 78.3686 416.146 75.4844H422.763V94.9581H424.058V99.5475H423.024L422.841 96.0949ZM421.43 76.6212H417.325C417.286 79.2633 417.238 81.5896 417.17 83.5791C417.103 85.5791 417.016 87.3265 416.909 88.8317C416.784 90.4002 416.61 91.6844 416.397 92.6949C416.175 93.7054 415.885 94.4528 415.538 94.937H421.44V76.6212H421.43Z" fill="#999999"/>
<path d="M426.599 89.0529C426.637 91.0635 426.888 92.5898 427.362 93.6424C427.835 94.695 428.56 95.2214 429.535 95.2214C429.98 95.2214 430.366 95.1477 430.704 94.9898C431.042 94.8319 431.323 94.6424 431.554 94.4319C431.815 94.2214 432.047 93.9477 432.24 93.6424L432.636 94.7371C432.424 95.0635 432.173 95.3477 431.873 95.5687C431.612 95.7793 431.284 95.9687 430.897 96.1266C430.511 96.2845 430.047 96.3687 429.516 96.3687C428.106 96.3687 427.062 95.7056 426.396 94.3793C425.729 93.0529 425.391 91.2003 425.391 88.8108C425.391 87.6214 425.488 86.5582 425.681 85.6214C425.874 84.6845 426.145 83.895 426.492 83.2424C426.84 82.5898 427.246 82.095 427.719 81.7582C428.193 81.4214 428.714 81.2529 429.284 81.2529C429.864 81.2529 430.385 81.4214 430.849 81.7477C431.303 82.074 431.69 82.5687 431.989 83.2214C432.289 83.874 432.501 84.6845 432.627 85.6635C432.752 86.6319 432.762 87.7687 432.656 89.0529H426.599ZM429.275 82.4214C428.569 82.4214 427.961 82.895 427.458 83.8424C426.956 84.7898 426.676 86.1687 426.628 87.9898H431.477C431.583 86.0529 431.409 84.6424 430.965 83.7582C430.521 82.874 429.941 82.4214 429.275 82.4214Z" fill="#999999"/>
<path d="M440.789 89.1481H436.239V96.106H434.993V81.5586H436.239V87.9902H440.789V81.5586H442.036V96.0954H440.789V89.1481Z" fill="#999999"/>
<path d="M444.973 81.5586H446.219V86.9481H447.195C448.47 86.9481 449.484 87.327 450.237 88.0744C451.001 88.8218 451.377 89.9586 451.377 91.4744C451.377 93.0112 450.981 94.1691 450.189 94.9375C449.397 95.706 448.373 96.0954 447.117 96.0954H444.973V81.5586ZM446.219 88.0217V95.0323H447.011C447.948 95.0323 448.702 94.7586 449.291 94.2112C449.88 93.6639 450.16 92.7691 450.16 91.5165C450.16 90.2849 449.899 89.4007 449.368 88.8428C448.837 88.2954 448.093 88.0217 447.146 88.0217H446.219Z" fill="#999999"/>
<path d="M454.739 82.706V96.0954H453.521V81.5586H459.163V82.7165H454.739V82.706Z" fill="#999999"/>
<path d="M467.288 85.9689C467.288 85.5794 467.297 85.2321 467.317 84.9163C467.336 84.6005 467.365 84.2847 467.394 83.9794H467.317C467.23 84.3057 467.123 84.6215 466.998 84.9163C466.872 85.211 466.737 85.5268 466.602 85.8531L462.264 96.0952H461.202V81.5584H462.371V91.6531C462.371 92.0426 462.361 92.39 462.342 92.7163C462.322 93.0426 462.293 93.3689 462.264 93.6952H462.342C462.429 93.3689 462.535 93.0426 462.66 92.7268C462.786 92.411 462.912 92.0847 463.056 91.7584L467.394 81.5479H468.476V96.0847H467.288V85.9689Z" fill="#999999"/>
<path d="M589.501 87.1431V91.4967C589.501 91.6584 589.368 91.7982 589.196 91.7982H585.734C582.938 91.7535 581.816 90.473 581.773 87.6894C581.816 84.992 582.817 83.6461 585.751 83.6056V83.6118H593.048V80.6314H585.751C580.553 80.6577 578.411 82.8525 578.308 87.5174L578.303 87.8834L578.308 87.8895C578.419 92.4168 580.556 94.64 585.605 94.7143V94.7178H590.947C592.18 94.7178 593.065 93.6952 593.065 92.6169V87.1425H589.501V87.1431ZM618.106 94.7106V88.9106H626.985V86.0329H618.106V81.687C618.106 81.5209 618.241 81.3833 618.411 81.3833H627.19V78.4041H616.661C615.428 78.4041 614.541 79.4245 614.541 80.5049V94.7106H618.106ZM567.185 91.7467C567.011 91.7467 566.879 91.6079 566.879 91.444V88.9269H575.755V86.0515H566.879V83.9069C566.879 83.7431 567.011 83.6032 567.185 83.6032H575.965V80.6229H565.434C564.2 80.6229 563.313 81.6477 563.313 82.726V92.6239C563.313 93.7055 564.2 94.7281 565.434 94.7281H575.965V91.7467H567.185ZM557.501 78.0693C555.834 78.0693 554.77 78.9521 553.981 80.7274L549.339 91.342L544.695 80.7274C543.905 78.9521 542.841 78.0693 541.172 78.0693C539.612 78.0693 538 79.1782 538 81.5872V94.7287H541.558V81.9466L546.23 92.4716C546.858 93.9421 547.867 94.8653 549.336 94.8675H549.34C550.808 94.8648 551.819 93.9421 552.446 92.4716L557.117 81.9466V94.7287H560.675V81.5872C560.675 79.1782 559.06 78.0693 557.501 78.0693H557.501ZM601.172 88.9272L603.362 83.8067C603.432 83.6461 603.557 83.6035 603.652 83.6035H603.654C603.748 83.6035 603.876 83.6461 603.943 83.8067L606.137 88.9272H601.171H601.172ZM606.58 82.1974C605.982 80.9127 604.795 80.2867 603.654 80.2867H603.652C602.51 80.2867 601.323 80.9127 600.73 82.1974L594.908 94.7283H598.695L599.964 91.7502H607.344L608.614 94.7283H612.401L606.58 82.1974H606.58ZM659.081 80.6232V90.0503L652.964 81.7638C652.448 81.1192 651.873 80.6232 650.693 80.6232C649.609 80.6232 648.27 81.4743 648.27 83.0901V94.7371H651.833V85.3122L657.922 93.6261C658.453 94.3427 659.001 94.7371 660.22 94.7371C661.305 94.7371 662.643 93.9647 662.643 92.2692V80.6232H659.081ZM637.732 91.9456C634.094 91.9456 633.048 90.6193 633.048 87.6663V87.651C633.048 84.7854 634.046 83.3772 637.732 83.3772C641.423 83.3772 642.418 84.7854 642.418 87.651V87.6663C642.418 90.6193 641.37 91.9456 637.732 91.9456ZM645.887 87.651C645.886 82.713 643.901 80.41 637.732 80.41C631.567 80.41 629.581 82.713 629.578 87.651V87.6609C629.578 92.5225 631.619 94.867 637.732 94.867C643.847 94.867 645.887 92.5225 645.887 87.6609V87.651Z" fill="#999999"/>
<path d="M513.878 84.5174C512.894 84.5174 512.095 83.7253 512.095 82.7498C512.095 81.772 512.894 80.9799 513.878 80.9799C514.862 80.9799 515.658 81.772 515.658 82.7498C515.658 83.7253 514.862 84.5174 513.878 84.5174ZM516.61 72.8496C508.737 72.8496 502.358 79.1839 502.358 86.9995C502.358 93.7817 507.165 99.4496 513.58 100.829V88.1314L513.581 88.1305C513.595 87.5176 514.087 87.0238 514.699 87.0009V87H515.292H516.499C516.582 87 516.651 86.9344 516.655 86.8525L516.656 72.8521L516.61 72.8496ZM526.431 94.7187C525.449 94.7187 524.65 93.9266 524.65 92.9488C524.65 91.9743 525.449 91.1823 526.431 91.1823C527.414 91.1823 528.213 91.9743 528.213 92.9488C528.213 93.9266 527.414 94.7187 526.431 94.7187ZM522.256 94.7187C521.273 94.7187 520.475 93.9266 520.475 92.9488C520.475 91.9743 521.273 91.1823 522.256 91.1823C523.239 91.1823 524.037 91.9743 524.037 92.9488C524.037 93.9266 523.239 94.7187 522.256 94.7187ZM518.077 94.7187C517.095 94.7187 516.295 93.9266 516.295 92.9488C516.295 91.9743 517.095 91.1823 518.077 91.1823C519.062 91.1823 519.86 91.9743 519.86 92.9488C519.86 93.9266 519.062 94.7187 518.077 94.7187ZM518.369 72.9563V86.9991V87.5454V87.5552L518.365 87.5587C518.36 88.1902 517.842 88.7004 517.203 88.7004H516.655H515.449C515.361 88.7004 515.291 88.7703 515.291 88.8566V101.09C515.726 101.13 516.164 101.151 516.609 101.151C524.481 101.151 530.861 94.8151 530.861 86.9994C530.861 79.7769 525.41 73.8174 518.369 72.9565" fill="#999999"/>
<path d="M696.57 83.0036V87.0266L707.413 85.8328V81.4785L696.57 83.0036ZM700.03 87.2713V101.057H704V86.8652L700.03 87.2713ZM708.877 81.2726V101.057H713.06V80.6839L708.877 81.2726ZM713.839 80.5742V85.1254L719.879 84.4603V79.7248L713.839 80.5742ZM713.839 88.5129V93.147L717.804 92.9306V88.1713L713.839 88.5129ZM713.839 96.4873V101.057H719.879V96.3049L713.839 96.4873ZM735.499 77.5204V101.057H740.983V76.749L735.499 77.5204ZM742.007 76.6048V82.0187L749.997 81.1393V75.4804L742.007 76.6048ZM742.007 86.0904V91.6046L747.244 91.3183V85.6414L742.007 86.0904ZM742.007 95.6351V101.057H749.997V95.3936L742.007 95.6351ZM721.477 79.4996V101.057H726.242V78.8291L721.477 79.4996ZM727.131 96.0859V101.057H734.048V95.877L727.131 96.0859ZM767.913 75.2143C766.18 73.5754 763.639 72.9032 760.859 73.3029V79.3076C761.985 79.245 762.897 79.6631 763.303 80.5048C763.945 81.8319 763.283 83.823 761.721 85.6678C759.311 88.5146 752.902 94.3414 752.902 94.3414L762.103 94.0387C767.724 88.5414 769.743 85.2045 770.105 81.0399C770.296 78.8366 769.497 76.7137 767.913 75.2143ZM770.429 101.057V94.7739L751.768 95.3366L770.429 101.057ZM751.768 95.3364L751.77 101.057H770.429L751.768 95.3364ZM759.787 73.4377C754.365 74.5933 751.703 78.5854 752.01 85.0995L757.791 84.5861C757.527 80.9059 758.652 80.0329 759.789 79.5529L759.787 73.4377Z" fill="#999999"/>
<defs>
<linearGradient id="paint0_linear" x1="238.136" y1="16.0111" x2="269.649" y2="16.0111" gradientUnits="userSpaceOnUse">
<stop stop-color="#FAA61A"/>
<stop offset="1" stop-color="#FFE100"/>
</linearGradient>
<radialGradient id="paint1_radial" cx="0" cy="0" r="1" gradientUnits="userSpaceOnUse" gradientTransform="translate(257.592 10.9925) scale(9.55475 9.70212)">
<stop stop-color="#363738"/>
<stop offset="1"/>
</radialGradient>
<clipPath id="clip0">
<rect width="68" height="30" fill="white" transform="translate(4.13525)"/>
</clipPath>
<clipPath id="clip1">
<rect width="94" height="31" fill="white" transform="translate(376.864)"/>
</clipPath>
<clipPath id="clip2">
<rect width="132" height="30" fill="white" transform="translate(502.864)"/>
</clipPath>
<clipPath id="clip3">
<rect width="144" height="30" fill="white" transform="translate(824.864)"/>
</clipPath>
<clipPath id="clip4">
<rect width="118" height="30" fill="white" transform="translate(201.5 72)"/>
</clipPath>
</defs>
</svg>
