<svg width="168" height="40" viewBox="0 0 168 40" fill="none" xmlns="http://www.w3.org/2000/svg">
<path d="M33.513 26V13.93H38.511C39.0323 13.93 39.5083 14.0377 39.939 14.253C40.381 14.4683 40.7607 14.763 41.078 15.137C41.4067 15.4997 41.656 15.9077 41.826 16.361C42.0073 16.803 42.098 17.2563 42.098 17.721C42.098 18.3783 41.9507 19.0017 41.656 19.591C41.3613 20.169 40.9533 20.6393 40.432 21.002C39.9107 21.3647 39.3043 21.546 38.613 21.546H34.703V26H33.513ZM34.703 20.492H38.562C39.038 20.492 39.4517 20.3617 39.803 20.101C40.1543 19.8403 40.4263 19.5003 40.619 19.081C40.8117 18.6617 40.908 18.2083 40.908 17.721C40.908 17.2223 40.7947 16.769 40.568 16.361C40.3413 15.9417 40.041 15.6073 39.667 15.358C39.3043 15.1087 38.902 14.984 38.46 14.984H34.703V20.492ZM47.6752 26.17C46.8252 26.17 46.0659 25.9603 45.3972 25.541C44.7285 25.1217 44.2015 24.5607 43.8162 23.858C43.4309 23.1553 43.2382 22.3847 43.2382 21.546C43.2382 20.7187 43.4252 19.9593 43.7992 19.268C44.1845 18.5767 44.7115 18.027 45.3802 17.619C46.0489 17.1997 46.8082 16.99 47.6582 16.99C48.5309 16.99 49.2959 17.1997 49.9532 17.619C50.6105 18.0383 51.1205 18.5937 51.4832 19.285C51.8572 19.965 52.0442 20.713 52.0442 21.529C52.0442 21.7103 52.0385 21.8633 52.0272 21.988H44.4452C44.5019 22.6227 44.6832 23.1893 44.9892 23.688C45.2952 24.1753 45.6862 24.5663 46.1622 24.861C46.6382 25.1443 47.1595 25.286 47.7262 25.286C48.3042 25.286 48.8482 25.1387 49.3582 24.844C49.8682 24.5493 50.2309 24.164 50.4462 23.688L51.4492 23.96C51.2679 24.3907 50.9845 24.776 50.5992 25.116C50.2252 25.4447 49.7889 25.7053 49.2902 25.898C48.7915 26.0793 48.2532 26.17 47.6752 26.17ZM44.4112 21.155H50.9562C50.9109 20.5203 50.7352 19.9593 50.4292 19.472C50.1232 18.9733 49.7322 18.588 49.2562 18.316C48.7802 18.0327 48.2532 17.891 47.6752 17.891C47.0972 17.891 46.5702 18.0327 46.0942 18.316C45.6182 18.588 45.2272 18.9733 44.9212 19.472C44.6265 19.9593 44.4565 20.5203 44.4112 21.155ZM53.8107 26V17.143H59.0977V18.18H54.9667V26H53.8107ZM60.7004 26V17.16H61.8564V24.436L67.2454 17.143H68.2824V26H67.1264V18.843L61.8224 26H60.7004ZM74.6531 26.17C73.7918 26.17 73.0268 25.9603 72.3581 25.541C71.6895 25.1103 71.1625 24.5493 70.7771 23.858C70.3918 23.1553 70.1991 22.3847 70.1991 21.546C70.1991 20.7073 70.3861 19.948 70.7601 19.268C71.1341 18.5767 71.6555 18.027 72.3241 17.619C72.9928 17.1997 73.7635 16.99 74.6361 16.99C75.4635 16.99 76.1888 17.1827 76.8121 17.568C77.4468 17.942 77.9228 18.452 78.2401 19.098L77.1181 19.455C76.8688 19.0017 76.5175 18.6503 76.0641 18.401C75.6221 18.1403 75.1291 18.01 74.5851 18.01C73.9845 18.01 73.4405 18.163 72.9531 18.469C72.4771 18.775 72.0918 19.2 71.7971 19.744C71.5138 20.2767 71.3721 20.8773 71.3721 21.546C71.3721 22.2147 71.5195 22.821 71.8141 23.365C72.1088 23.909 72.4998 24.3453 72.9871 24.674C73.4745 24.9913 74.0128 25.15 74.6021 25.15C74.9875 25.15 75.3615 25.082 75.7241 24.946C76.0868 24.81 76.3985 24.6287 76.6591 24.402C76.9198 24.164 77.0955 23.909 77.1861 23.637L78.3251 23.977C78.1665 24.3963 77.9058 24.776 77.5431 25.116C77.1805 25.4447 76.7498 25.7053 76.2511 25.898C75.7525 26.0793 75.2198 26.17 74.6531 26.17ZM82.3512 26V18.18H79.1892V17.143H86.6692V18.18H83.5072V26H82.3512ZM92.7648 26.17C92.0281 26.17 91.3651 25.9773 90.7758 25.592C90.1978 25.2067 89.7388 24.7307 89.3988 24.164V29.621H88.2428V17.143H89.2798V18.86C89.6311 18.3047 90.0958 17.857 90.6738 17.517C91.2631 17.1657 91.8978 16.99 92.5778 16.99C93.1898 16.99 93.7508 17.1203 94.2608 17.381C94.7708 17.6303 95.2128 17.9703 95.5868 18.401C95.9721 18.8317 96.2668 19.3247 96.4708 19.88C96.6748 20.424 96.7768 20.9907 96.7768 21.58C96.7768 22.4073 96.6068 23.1723 96.2668 23.875C95.9381 24.5663 95.4678 25.1217 94.8558 25.541C94.2551 25.9603 93.5581 26.17 92.7648 26.17ZM92.4418 25.15C93.0878 25.15 93.6431 24.98 94.1078 24.64C94.5838 24.2887 94.9521 23.841 95.2128 23.297C95.4734 22.753 95.6038 22.1807 95.6038 21.58C95.6038 20.9453 95.4564 20.356 95.1618 19.812C94.8671 19.268 94.4704 18.8317 93.9718 18.503C93.4844 18.1743 92.9291 18.01 92.3058 18.01C91.9204 18.01 91.5124 18.112 91.0818 18.316C90.6624 18.5087 90.2884 18.775 89.9598 19.115C89.6424 19.4437 89.4554 19.8063 89.3988 20.203V22.923C89.6594 23.5463 90.0674 24.0733 90.6228 24.504C91.1781 24.9347 91.7844 25.15 92.4418 25.15ZM98.021 23.45C98.021 22.906 98.1796 22.4357 98.497 22.039C98.8143 21.631 99.2506 21.3137 99.806 21.087C100.373 20.8603 101.024 20.747 101.761 20.747C102.192 20.747 102.639 20.7867 103.104 20.866C103.569 20.934 103.982 21.0303 104.345 21.155V20.407C104.345 19.659 104.124 19.064 103.682 18.622C103.24 18.18 102.628 17.959 101.846 17.959C101.381 17.959 100.917 18.0497 100.452 18.231C99.9873 18.401 99.5056 18.656 99.007 18.996L98.565 18.18C99.143 17.7833 99.7096 17.4887 100.265 17.296C100.82 17.092 101.387 16.99 101.965 16.99C103.053 16.99 103.914 17.3017 104.549 17.925C105.184 18.5483 105.501 19.4097 105.501 20.509V24.606C105.501 24.912 105.643 25.0707 105.926 25.082V26C105.677 26.034 105.501 26.0453 105.399 26.034C105.116 26.0227 104.9 25.932 104.753 25.762C104.606 25.592 104.526 25.4107 104.515 25.218L104.498 24.572C104.101 25.082 103.586 25.4787 102.951 25.762C102.316 26.034 101.67 26.17 101.013 26.17C100.435 26.17 99.9193 26.051 99.466 25.813C99.0126 25.5637 98.6556 25.235 98.395 24.827C98.1456 24.4077 98.021 23.9487 98.021 23.45ZM103.954 24.13C104.215 23.824 104.345 23.5407 104.345 23.28V21.988C103.563 21.682 102.747 21.529 101.897 21.529C101.07 21.529 100.401 21.6933 99.891 22.022C99.381 22.3507 99.126 22.7983 99.126 23.365C99.126 23.8523 99.313 24.2943 99.687 24.691C100.072 25.0877 100.605 25.286 101.285 25.286C101.84 25.286 102.356 25.1783 102.832 24.963C103.319 24.7477 103.693 24.47 103.954 24.13ZM115.054 28.057V26H107.982V17.143H109.138V24.98H113.728V17.143H114.884V24.98H116.091V28.057H115.054ZM117.826 26V17.16H118.982V24.436L124.371 17.143H125.408V26H124.252V18.843L118.948 26H117.826ZM127.274 26L129.909 22.379C129.297 22.2997 128.81 22.039 128.447 21.597C128.084 21.155 127.903 20.5543 127.903 19.795C127.903 19.2963 128.022 18.8487 128.26 18.452C128.498 18.044 128.832 17.721 129.263 17.483C129.705 17.245 130.221 17.126 130.81 17.126H134.193V26H133.037V22.566H131.065L128.566 26H127.274ZM130.793 21.682H133.037V18.044H130.997C130.408 18.044 129.937 18.214 129.586 18.554C129.235 18.8827 129.059 19.302 129.059 19.812C129.059 20.3333 129.201 20.7753 129.484 21.138C129.779 21.5007 130.215 21.682 130.793 21.682Z" fill="#111111"/>
<rect x="0.5" y="0.5" width="167" height="39" rx="2.5" stroke="#111111"/>
</svg>
